<svg width="981" height="900" viewBox="0 0 981 900" fill="none" xmlns="http://www.w3.org/2000/svg">
<rect x="579" width="402" height="900" fill="#4260FB"/>
<path d="M286.829 467.279C102.98 610.718 53.6726 815.526 52 900H760V0H286.829C363.433 95.9933 470.678 323.84 286.829 467.279Z" fill="#4260FB"/>
<path d="M306.84 645.706L34.7051 485.076C26.0446 480.224 18.6146 472.235 27.0542 467.02L300.183 309.81C304.284 307.273 310.499 305.619 314.664 308.029L600.302 473.606C608.962 478.632 610.524 492.671 601.879 497.697L342.712 645.438C337.272 648.593 331.102 650.277 324.811 650.324C318.521 650.371 312.326 648.779 306.84 645.706V645.706Z" fill="#FFDAAE"/>
<path opacity="0.32" d="M91.7475 503.29C97.4738 505.039 103.232 506.772 109.1 508.017C112.694 508.654 116.324 509.07 119.969 509.261L302.959 623.979L411.396 556.56L150.888 438.77L59.5349 489.551C68.9841 496.468 80.6734 499.918 91.7475 503.29Z" fill="url(#paint0_linear)"/>
<path d="M107.175 461.994L196.935 409.512C199.75 407.867 202.948 406.989 206.21 406.967C209.471 406.945 212.681 407.779 215.518 409.386L375.445 500.06C377.346 501.171 378.923 502.76 380.019 504.669C381.115 506.577 381.692 508.739 381.692 510.94C381.692 513.14 381.115 515.302 380.019 517.21C378.923 519.119 377.346 520.708 375.445 521.819L287.736 572.08C283.543 574.484 278.788 575.737 273.953 575.712C269.119 575.687 264.377 574.385 260.209 571.938L107.081 482.13C105.321 481.098 103.863 479.622 102.853 477.851C101.843 476.079 101.316 474.074 101.326 472.035C101.336 469.996 101.881 467.996 102.907 466.234C103.934 464.472 105.406 463.01 107.175 461.994V461.994Z" fill="#68E1FD"/>
<path opacity="0.33" d="M107.175 461.994L196.935 409.512C199.75 407.867 202.948 406.989 206.21 406.967C209.471 406.945 212.681 407.779 215.518 409.386L375.445 500.06C377.346 501.171 378.923 502.76 380.019 504.669C381.115 506.577 381.692 508.739 381.692 510.94C381.692 513.14 381.115 515.302 380.019 517.21C378.923 519.119 377.346 520.708 375.445 521.819L287.736 572.08C283.543 574.484 278.788 575.737 273.953 575.712C269.119 575.687 264.377 574.385 260.209 571.938L107.081 482.13C105.321 481.098 103.863 479.622 102.853 477.851C101.843 476.079 101.316 474.074 101.326 472.035C101.336 469.996 101.881 467.996 102.907 466.234C103.934 464.472 105.406 463.01 107.175 461.994V461.994Z" fill="#1E4549"/>
<path d="M106.418 456.102L196.178 403.619C198.993 401.974 202.191 401.097 205.453 401.075C208.714 401.052 211.924 401.887 214.761 403.493L374.704 494.152C376.605 495.263 378.182 496.852 379.278 498.76C380.374 500.669 380.951 502.831 380.951 505.031C380.951 507.231 380.374 509.393 379.278 511.302C378.182 513.21 376.605 514.799 374.704 515.91L287.105 566.187C282.912 568.591 278.157 569.844 273.322 569.819C268.488 569.794 263.746 568.492 259.578 566.045L106.45 476.237C104.683 475.216 103.216 473.75 102.195 471.984C101.174 470.219 100.635 468.217 100.632 466.179C100.629 464.14 101.162 462.136 102.177 460.368C103.192 458.6 104.655 457.128 106.418 456.102V456.102Z" fill="#68E1FD"/>
<path d="M204.302 415.279L204.507 415.389C205.207 415.705 205.768 416.265 206.085 416.964C206.16 417.266 206.152 417.583 206.06 417.88C205.968 418.177 205.797 418.444 205.564 418.65L203.829 417.626C203.888 417.506 203.92 417.374 203.92 417.24C203.92 417.106 203.888 416.974 203.829 416.854C203.676 416.547 203.426 416.298 203.119 416.145H203.04C202.56 415.877 202.011 415.756 201.462 415.798C200.867 415.821 200.288 416.006 199.79 416.334C199.582 416.432 199.402 416.58 199.264 416.764C199.127 416.948 199.036 417.163 199.002 417.39C199.002 417.768 199.222 418.083 199.711 418.382C200.054 418.57 200.428 418.693 200.816 418.745C201.217 418.819 201.629 418.819 202.03 418.745L203.766 419.785C202.908 420.12 201.986 420.254 201.068 420.179C200.17 420.101 199.298 419.833 198.513 419.391L198.339 419.296C197.853 418.962 197.458 418.513 197.187 417.989C197.072 417.781 197.004 417.55 196.991 417.312C196.977 417.075 197.017 416.837 197.109 416.618C197.349 416.087 197.752 415.645 198.26 415.357C198.859 414.971 199.53 414.708 200.232 414.585C200.967 414.452 201.721 414.452 202.456 414.585C203.105 414.716 203.728 414.95 204.302 415.279V415.279Z" fill="white"/>
<path d="M210.47 422.715C209.856 422.744 209.243 422.642 208.672 422.416L207.962 424.874L206.148 423.802L206.921 421.486L206.542 421.266L204.318 422.715L202.74 421.738L208.64 417.91L211.385 419.564C211.827 419.795 212.21 420.124 212.505 420.525C212.603 420.657 212.668 420.81 212.695 420.971C212.723 421.133 212.712 421.298 212.663 421.455C212.535 421.792 212.296 422.076 211.984 422.258C211.527 422.537 211.005 422.694 210.47 422.715V422.715ZM210.218 421.313C210.454 421.155 210.565 420.998 210.549 420.825C210.533 420.651 210.36 420.462 210.044 420.273L209.019 419.674L207.52 420.636L208.545 421.234H208.656C208.896 421.375 209.167 421.456 209.445 421.471C209.721 421.475 209.991 421.392 210.218 421.234" fill="white"/>
<path d="M224.005 428.844C223.783 429.369 223.395 429.806 222.901 430.089C222.304 430.475 221.632 430.727 220.929 430.829C220.178 430.967 219.408 430.967 218.657 430.829C217.949 430.69 217.268 430.44 216.638 430.089L216.401 429.947L213.846 428.372L219.762 424.543L222.301 426.119C222.93 426.434 223.472 426.899 223.879 427.474C224.002 427.678 224.078 427.907 224.1 428.144C224.122 428.382 224.089 428.621 224.005 428.844ZM221.244 429.112C221.781 428.765 222.017 428.387 221.954 427.993C221.891 427.6 221.56 427.206 220.929 426.828L220.156 426.355L216.78 428.545L217.553 429.018H217.679C218.233 429.338 218.855 429.522 219.493 429.553C220.12 429.57 220.737 429.394 221.26 429.049" fill="white"/>
<path d="M214.666 421.518L218.878 424.023L217.742 424.763L215.171 423.219L213.925 424.039L216.212 425.394L215.139 426.087L212.852 424.732L211.543 425.583L214.098 427.111L212.963 427.852L208.766 425.346L214.666 421.518Z" fill="white"/>
<path d="M226.813 428.734L228.438 429.711L222.538 433.539L220.897 432.563L226.813 428.734Z" fill="white"/>
<path d="M229.132 430.12L234.432 433.272L233.281 433.996L231.451 432.909L226.671 435.997L225.03 435.02L229.81 431.932L227.996 430.861L229.132 430.12Z" fill="white"/>
<path d="M239.969 436.502L240.174 436.612C240.875 436.928 241.436 437.488 241.752 438.187C241.828 438.489 241.819 438.806 241.728 439.103C241.636 439.4 241.464 439.667 241.231 439.873L239.496 438.849C239.558 438.73 239.591 438.598 239.591 438.463C239.591 438.329 239.558 438.196 239.496 438.077C239.343 437.77 239.094 437.521 238.786 437.368H238.707C238.227 437.1 237.678 436.979 237.13 437.022C236.534 437.043 235.955 437.229 235.458 437.557C234.937 437.888 234.669 438.25 234.669 438.613C234.669 438.975 234.89 439.306 235.379 439.605C235.72 439.796 236.095 439.919 236.483 439.968C236.885 440.042 237.296 440.042 237.698 439.968L239.433 441.008C238.577 441.346 237.653 441.481 236.736 441.402C235.82 441.326 234.931 441.052 234.133 440.598H234.006C233.453 440.301 232.99 439.86 232.666 439.322C232.547 439.115 232.477 438.885 232.461 438.647C232.444 438.41 232.482 438.172 232.571 437.951C232.816 437.423 233.218 436.983 233.723 436.691C234.322 436.304 234.992 436.042 235.694 435.919C236.43 435.787 237.183 435.787 237.919 435.919C238.631 435.992 239.325 436.19 239.969 436.502V436.502Z" fill="white"/>
<path d="M248.078 441.449L244.686 446.727L242.951 445.687L243.613 444.742L241.074 443.166L239.496 443.623L237.777 442.599L246.122 440.267L248.078 441.449ZM242.588 442.772L244.276 443.781L245.601 441.858L242.588 442.757" fill="white"/>
<path d="M253.126 448.066C252.512 448.098 251.898 447.996 251.327 447.767L250.617 450.225L248.803 449.153L249.576 446.837L249.198 446.617L246.958 448.066L245.38 447.089L251.28 443.261L253.977 444.931C254.414 445.163 254.792 445.492 255.082 445.892C255.178 446.024 255.243 446.176 255.273 446.337C255.303 446.498 255.297 446.663 255.255 446.822C255.121 447.156 254.876 447.434 254.561 447.609C254.129 447.881 253.635 448.038 253.126 448.066V448.066ZM252.1 446.9C252.38 446.911 252.656 446.834 252.889 446.68C253.11 446.522 253.22 446.365 253.205 446.176C253.189 445.986 253.015 445.813 252.7 445.624L251.69 445.025L250.113 446.002L251.138 446.601C251.393 446.751 251.679 446.843 251.974 446.869" fill="white"/>
<path d="M261.565 451.076C261.346 451.61 260.951 452.055 260.445 452.336C259.848 452.72 259.176 452.972 258.473 453.077C257.728 453.212 256.963 453.212 256.218 453.077C255.482 452.931 254.774 452.671 254.12 452.305L253.946 452.21L251.406 450.634L257.306 446.806L259.862 448.381C260.491 448.697 261.033 449.162 261.439 449.736C261.558 449.936 261.631 450.16 261.653 450.392C261.674 450.623 261.645 450.857 261.565 451.076ZM258.805 451.343C259.331 450.997 259.567 450.624 259.515 450.225C259.515 449.815 259.12 449.437 258.489 449.059L257.7 448.602L254.325 450.792L255.113 451.249H255.24C255.793 451.57 256.415 451.753 257.054 451.785C257.68 451.801 258.297 451.625 258.821 451.28" fill="white"/>
<path d="M162.94 438.014L165.811 439.731L157.955 444.836L156.425 443.923L163.098 439.605L161.741 438.786L162.94 438.014Z" fill="white"/>
<path d="M171.679 443.04L171.837 443.135C172.705 443.655 173.194 444.19 173.288 444.71C173.383 445.23 173.068 445.782 172.358 446.286C171.644 446.709 170.848 446.972 170.023 447.058C168.978 447.203 167.922 447.251 166.868 447.2C165.811 447.153 164.758 447.048 163.713 446.885L167.972 449.421L166.931 450.099L160.621 446.38L161.552 445.782C163.449 446.043 165.363 446.175 167.278 446.176C168.464 446.256 169.65 446.022 170.717 445.498C170.878 445.421 171.019 445.307 171.126 445.164C171.233 445.021 171.304 444.855 171.332 444.679C171.332 444.395 171.096 444.096 170.591 443.796H170.496C170.018 443.521 169.469 443.395 168.919 443.434C168.315 443.482 167.732 443.67 167.215 443.986L165.811 443.15C166.722 442.613 167.767 442.346 168.824 442.378C169.816 442.355 170.799 442.583 171.679 443.04V443.04Z" fill="white"/>
<path d="M186.713 458.449L187.991 459.206L186.871 459.93L185.624 459.174L183.921 460.277L182.454 459.41L184.142 458.307L179.583 455.597L180.655 454.904L190.294 454.211L191.871 455.141L186.713 458.449ZM185.356 457.63L188.969 455.298L182.185 455.755L185.34 457.63" fill="white"/>
<path d="M180.34 448.066L180.529 448.177C181.02 448.442 181.446 448.814 181.775 449.264C181.887 449.413 181.964 449.585 182 449.768C182.035 449.951 182.029 450.139 181.98 450.319C181.854 450.696 181.589 451.012 181.239 451.202C180.73 451.543 180.133 451.729 179.52 451.737C178.848 451.754 178.182 451.608 177.579 451.312V451.312C177.971 451.657 178.237 452.123 178.336 452.635C178.336 453.045 178.089 453.423 177.595 453.77C176.889 454.212 176.061 454.422 175.229 454.368C174.317 454.324 173.429 454.059 172.642 453.596L172.452 453.486C171.679 453.127 171.075 452.483 170.764 451.69C170.607 451.06 170.901 450.451 171.648 449.862L173.083 450.713C172.916 450.82 172.781 450.971 172.692 451.148C172.603 451.326 172.564 451.524 172.579 451.722C172.579 452.084 172.926 452.415 173.462 452.746H173.572C173.995 452.99 174.472 453.125 174.961 453.14C175.416 453.152 175.866 453.031 176.254 452.793C176.68 452.509 176.822 452.163 176.68 451.785C176.366 451.254 175.899 450.831 175.339 450.571L174.992 450.367L176.049 449.689L176.396 449.894L176.68 450.067C177.106 450.391 177.615 450.588 178.148 450.635C178.681 450.683 179.217 450.579 179.693 450.335C180.056 450.099 180.214 449.847 180.166 449.563C180.107 449.382 180.011 449.216 179.883 449.075C179.755 448.933 179.599 448.821 179.425 448.744H179.314C178.904 448.513 178.444 448.383 177.974 448.366C177.427 448.342 176.883 448.462 176.396 448.712L174.976 447.861C175.789 447.393 176.721 447.168 177.658 447.215C178.607 447.283 179.526 447.574 180.34 448.066V448.066Z" fill="white"/>
<path d="M215.581 473.48C215.581 474.079 215.218 474.646 214.382 475.198C213.87 475.53 213.296 475.755 212.694 475.859C212.043 475.983 211.374 475.983 210.723 475.859C210.08 475.75 209.461 475.531 208.893 475.213L208.672 475.087C207.362 474.315 206.826 473.512 207.094 472.818C207.541 471.817 208.314 470.995 209.287 470.487C210.465 469.67 211.814 469.131 213.231 468.911C214.42 468.777 215.621 469.031 216.654 469.636L216.843 469.746C217.711 470.266 218.184 470.818 218.216 471.322C218.212 471.635 218.131 471.943 217.98 472.218C217.828 472.493 217.611 472.726 217.348 472.897L215.976 472.078C216.701 471.416 216.607 470.833 215.723 470.298H215.644C215.021 469.951 214.3 469.818 213.594 469.919C212.66 470.083 211.776 470.455 211.006 471.007L210.644 471.259C211.218 471.068 211.831 471.024 212.426 471.133C213.03 471.222 213.613 471.419 214.146 471.716H214.272C215.103 472.293 215.539 472.882 215.581 473.48ZM213.026 474.378C213.562 474.032 213.799 473.685 213.767 473.307C213.736 472.929 213.42 472.582 212.868 472.251H212.773C212.286 471.985 211.749 471.824 211.196 471.779C210.61 471.718 210.021 471.857 209.524 472.172C209.32 472.273 209.146 472.424 209.019 472.612C208.892 472.8 208.816 473.018 208.798 473.244C208.798 473.643 209.114 474.032 209.745 474.41H209.839C210.321 474.682 210.863 474.834 211.417 474.851C211.976 474.859 212.526 474.7 212.994 474.394" fill="white"/>
<path d="M204.413 462.53L210.202 465.98L209.066 466.705L204.618 464.058L202.283 465.634C202.762 465.612 203.241 465.665 203.703 465.791C204.17 465.914 204.621 466.093 205.044 466.327H205.138C205.645 466.594 206.066 466.998 206.353 467.493C206.442 467.672 206.488 467.869 206.488 468.068C206.488 468.268 206.442 468.464 206.353 468.643C206.117 469.061 205.774 469.409 205.359 469.652C204.527 470.187 203.557 470.472 202.567 470.471C201.564 470.48 200.578 470.219 199.712 469.715L199.507 469.589C198.768 469.224 198.202 468.585 197.929 467.808C197.862 467.476 197.904 467.131 198.049 466.824C198.194 466.518 198.434 466.266 198.734 466.107L200.169 466.957C200.027 467.068 199.916 467.212 199.847 467.378C199.778 467.544 199.753 467.724 199.775 467.903C199.841 468.101 199.947 468.283 200.085 468.44C200.223 468.597 200.391 468.725 200.579 468.816H200.674C201.176 469.108 201.749 469.255 202.33 469.242C202.894 469.204 203.438 469.019 203.908 468.706C204.381 468.391 204.618 468.076 204.586 467.714C204.555 467.351 204.271 467.02 203.718 466.689H203.64C203.278 466.482 202.883 466.338 202.472 466.264C202.065 466.191 201.649 466.191 201.242 466.264L199.838 465.429L204.413 462.53Z" fill="white"/>
<path d="M231.893 484.478C231.848 484.707 231.752 484.924 231.613 485.112C231.474 485.3 231.295 485.455 231.088 485.565C230.28 486.071 229.321 486.283 228.375 486.164C227.358 486.068 226.374 485.756 225.488 485.25L225.299 485.139C224.498 484.757 223.864 484.096 223.516 483.28C223.327 482.634 223.611 482.067 224.384 481.579C224.897 481.244 225.491 481.053 226.103 481.027C226.805 480.994 227.506 481.096 228.17 481.327C228.012 481.187 227.888 481.015 227.806 480.821C227.724 480.627 227.686 480.418 227.697 480.208C227.739 480.004 227.827 479.813 227.952 479.647C228.078 479.481 228.238 479.344 228.422 479.247C228.851 478.978 229.338 478.816 229.842 478.774C230.454 478.705 231.074 478.748 231.672 478.9C232.301 479.052 232.906 479.291 233.47 479.609L233.675 479.719C234.226 480.01 234.705 480.419 235.079 480.917C235.212 481.067 235.308 481.245 235.36 481.438C235.413 481.631 235.42 481.834 235.382 482.03C235.344 482.226 235.261 482.411 235.14 482.571C235.02 482.73 234.864 482.86 234.685 482.949C234.235 483.236 233.719 483.404 233.186 483.438C232.566 483.47 231.945 483.385 231.356 483.186C231.539 483.345 231.683 483.545 231.776 483.769C231.869 483.993 231.909 484.236 231.893 484.478V484.478ZM229.716 484.667C230.189 484.367 230.347 484.037 230.221 483.674C229.998 483.213 229.625 482.841 229.164 482.619H229.037C228.551 482.342 228.015 482.165 227.46 482.099C226.91 482.031 226.353 482.153 225.882 482.445C225.441 482.745 225.267 483.075 225.346 483.438C225.533 483.92 225.901 484.31 226.371 484.525H226.498C227.009 484.821 227.58 484.999 228.17 485.045C228.723 485.102 229.28 484.968 229.747 484.667H229.716ZM229.747 480.224C229.353 480.492 229.195 480.775 229.274 481.09C229.439 481.51 229.762 481.849 230.173 482.036H230.299C230.739 482.287 231.229 482.438 231.735 482.477C232.222 482.527 232.711 482.41 233.123 482.146C233.517 481.878 233.675 481.594 233.596 481.264C233.424 480.848 233.104 480.511 232.697 480.318H232.571C232.131 480.066 231.641 479.915 231.135 479.877C230.644 479.828 230.15 479.945 229.731 480.208" fill="white"/>
<path d="M221.844 473.008L227.791 476.537L226.829 477.167L216.528 479.672L215.013 478.758L225.22 476.379L220.755 473.717L221.844 473.008Z" fill="white"/>
<path d="M266.945 501.068C266.527 502.083 265.761 502.916 264.783 503.416C263.671 504.168 262.404 504.663 261.076 504.866C259.883 505.013 258.675 504.764 257.637 504.157L257.448 504.046C256.249 503.337 255.76 502.597 255.965 501.84C256.392 500.823 257.162 499.987 258.142 499.477C259.246 498.72 260.509 498.225 261.833 498.028C263.023 497.887 264.226 498.142 265.257 498.752L265.446 498.863C266.597 499.556 267.15 500.296 266.945 501.068ZM263.332 502.549C264.011 502.17 264.585 501.628 265.004 500.974C265.241 500.501 265.004 500.06 264.247 499.635H264.121C263.5 499.265 262.762 499.141 262.054 499.288C261.178 499.503 260.35 499.877 259.609 500.391C258.919 500.767 258.334 501.308 257.905 501.967C257.669 502.439 257.905 502.88 258.678 503.322H258.757C259.396 503.707 260.157 503.836 260.887 503.684C261.766 503.455 262.598 503.077 263.348 502.565" fill="white"/>
<path d="M256.344 493.569L259.231 495.286L251.359 500.391L249.829 499.477L256.501 495.144L255.161 494.357L256.344 493.569Z" fill="white"/>
<path d="M252.731 492.419C252.296 493.41 251.533 494.222 250.57 494.719C249.394 495.517 248.06 496.054 246.658 496.294C245.483 496.453 244.29 496.214 243.266 495.617L243.093 495.522C242.209 495.003 241.72 494.435 241.657 493.852C241.652 493.542 241.724 493.236 241.867 492.96C242.01 492.685 242.22 492.45 242.478 492.277L243.85 493.096C243.7 493.2 243.579 493.339 243.496 493.501C243.414 493.664 243.373 493.844 243.377 494.026C243.424 494.22 243.515 494.401 243.644 494.554C243.772 494.707 243.935 494.828 244.118 494.908H244.197C244.814 495.259 245.53 495.392 246.232 495.286C247.171 495.125 248.061 494.753 248.835 494.199L249.214 493.947C248.627 494.128 248.006 494.171 247.399 494.073C246.796 493.982 246.214 493.784 245.68 493.49H245.554C244.67 492.965 244.208 492.403 244.166 491.804C244.166 491.205 244.528 490.638 245.349 490.103C245.867 489.768 246.446 489.538 247.052 489.425C247.71 489.308 248.383 489.308 249.04 489.425C249.677 489.544 250.29 489.768 250.854 490.087L251.075 490.213C252.4 490.922 252.936 491.678 252.731 492.419ZM250.239 493.128C250.442 493.027 250.616 492.876 250.744 492.688C250.871 492.5 250.947 492.282 250.965 492.056C250.965 491.662 250.649 491.268 250.018 490.89H249.923C249.44 490.622 248.899 490.476 248.346 490.465C247.785 490.461 247.235 490.626 246.768 490.938C246.232 491.284 245.995 491.631 246.027 492.009C246.059 492.387 246.358 492.734 246.91 493.065H246.989C247.302 493.234 247.636 493.361 247.983 493.443C248.385 493.508 248.796 493.508 249.198 493.443C249.587 493.41 249.961 493.28 250.286 493.065" fill="white"/>
<path d="M276.141 506.536C275.726 507.551 274.959 508.384 273.98 508.883C272.872 509.644 271.604 510.14 270.273 510.333C269.095 510.474 267.904 510.225 266.882 509.624L266.661 509.498C265.478 508.789 264.973 508.064 265.162 507.292C265.593 506.272 266.369 505.436 267.355 504.929C268.461 504.175 269.722 503.679 271.046 503.479C272.241 503.34 273.448 503.595 274.485 504.204L274.674 504.314C275.863 505.039 276.352 505.779 276.141 506.536ZM272.529 508.017C273.217 507.644 273.798 507.101 274.217 506.441C274.422 505.968 274.217 505.527 273.46 505.102H273.365C272.732 504.717 271.978 504.582 271.251 504.724C270.378 504.945 269.55 505.318 268.806 505.827C268.119 506.206 267.534 506.747 267.102 507.402C266.882 507.859 267.102 508.316 267.875 508.757H268.002C268.622 509.13 269.36 509.254 270.068 509.104C270.949 508.882 271.783 508.503 272.529 507.985" fill="white"/>
<path d="M169.045 462.577L165.338 468.407L164.044 467.635L164.896 466.374L161.741 464.484L159.738 465.067L158.444 464.295L167.657 461.758L169.045 462.577ZM162.893 464.153L165.385 465.634L167.215 462.892L162.908 464.137" fill="white"/>
<path d="M159.454 456.748L164.328 459.631L163.492 460.182L155.037 461.191L158.681 463.365L157.813 463.916L152.844 460.954L153.649 460.419L162.088 459.379L158.602 457.299L159.454 456.748Z" fill="white"/>
<path d="M156.993 455.282L158.208 455.991L151.645 460.245L150.446 459.536L156.993 455.282Z" fill="white"/>
<path d="M152.26 452.462L153.459 453.171L147.733 456.889L150.32 458.434L149.5 458.969L145.698 456.716L152.26 452.462Z" fill="white"/>
<path d="M146.786 449.201L151.077 451.753L150.209 452.32L147.133 450.477L145.146 451.769L147.922 453.407L147.102 453.943L144.325 452.305L142.29 453.612L145.382 455.44L144.515 456.007L140.224 453.455L146.786 449.201Z" fill="white"/>
<path d="M190.562 475.245L191.761 475.954L189.016 477.734L192.55 479.846L195.294 478.065L196.509 478.774L189.947 483.028L188.732 482.303L191.682 480.397L188.148 478.301L185.214 480.208L184 479.483L190.562 475.245Z" fill="white"/>
<path d="M184.268 471.495L189.647 474.709L188.811 475.261L186.713 474.016L181.002 477.703L179.788 476.978L185.482 473.275L183.4 472.046L184.268 471.495Z" fill="white"/>
<path d="M179.362 468.58L183.653 471.133L182.801 471.684L179.725 469.856L177.737 471.148L180.498 472.787L179.677 473.323L176.917 471.668L174.882 472.992L177.958 474.835L177.09 475.387L172.815 472.834L179.362 468.58Z" fill="white"/>
<path d="M174.061 470.077C174.045 470.269 173.98 470.454 173.872 470.613C173.765 470.773 173.618 470.903 173.446 470.991C172.877 471.347 172.208 471.513 171.537 471.463C170.797 471.405 170.079 471.179 169.439 470.802L169.25 470.691L166.269 468.911L172.831 464.657L175.749 466.39C176.326 466.653 176.787 467.118 177.043 467.698C177.153 468.139 176.948 468.517 176.443 468.848C176.027 469.112 175.548 469.259 175.055 469.273C174.544 469.294 174.033 469.208 173.557 469.021C173.721 469.142 173.853 469.302 173.941 469.486C174.029 469.67 174.07 469.873 174.061 470.077ZM172.342 470.171C172.673 469.967 172.799 469.715 172.736 469.447C172.581 469.082 172.294 468.79 171.932 468.627L170.354 467.729L168.272 469.084L169.849 469.998C170.234 470.227 170.666 470.367 171.111 470.408C171.509 470.446 171.909 470.352 172.247 470.14L172.342 470.171ZM173.068 465.933L171.111 467.194L172.61 468.076H172.721C173.058 468.273 173.435 468.391 173.825 468.423C174.202 468.448 174.577 468.354 174.897 468.155C175.021 468.097 175.124 468.002 175.192 467.884C175.26 467.765 175.289 467.629 175.276 467.493C175.276 467.257 174.961 466.989 174.519 466.721L173.068 465.854" fill="white"/>
<path d="M241.026 505.26L243.424 506.693L236.877 510.947L235.6 510.175L241.168 506.583L240.032 505.906L241.026 505.26Z" fill="white"/>
<path d="M255.255 510.979L256.438 511.688L243.14 516.698L241.973 516.005L255.255 510.979Z" fill="white"/>
<path d="M257.338 514.807H257.448C258.174 515.249 258.568 515.69 258.647 516.147C258.726 516.604 258.458 517.045 257.874 517.423C257.275 517.775 256.608 517.995 255.918 518.069C255.05 518.188 254.174 518.225 253.299 518.179C252.401 518.144 251.505 518.054 250.617 517.911L254.183 520.023L253.315 520.574L248.125 517.423L248.914 516.919C250.482 517.136 252.063 517.246 253.646 517.25C254.636 517.315 255.627 517.119 256.517 516.682C256.849 516.462 257.038 516.241 257.038 516.005C257.038 515.769 256.849 515.516 256.423 515.264H256.328C255.949 515.052 255.516 514.953 255.082 514.981C254.584 515.02 254.103 515.177 253.678 515.438L252.51 514.744C253.263 514.298 254.128 514.074 255.003 514.098C255.827 514.141 256.629 514.385 257.338 514.807Z" fill="white"/>
<path d="M247.257 508.82L247.399 508.899C248.125 509.34 248.519 509.781 248.598 510.238C248.677 510.695 248.425 511.136 247.825 511.515C247.227 511.868 246.56 512.088 245.869 512.161C245.002 512.279 244.125 512.316 243.251 512.271C242.358 512.237 241.468 512.153 240.585 512.019L244.134 514.13L243.282 514.681L238.061 511.53L238.849 511.026C240.418 511.243 241.999 511.354 243.582 511.357C244.572 511.422 245.562 511.227 246.453 510.79C246.8 510.569 246.973 510.349 246.973 510.097C246.973 509.844 246.768 509.608 246.358 509.356C245.966 509.13 245.517 509.021 245.065 509.041C244.564 509.087 244.079 509.243 243.645 509.498L242.478 508.805C243.235 508.354 244.105 508.13 244.986 508.159C245.785 508.194 246.564 508.421 247.257 508.82V508.82Z" fill="white"/>
<path d="M261.25 517.155L266.061 520.023L265.13 520.621L261.423 518.431L259.467 519.692C259.866 519.671 260.265 519.714 260.65 519.818C261.041 519.923 261.417 520.077 261.77 520.275H261.865C262.288 520.49 262.639 520.824 262.875 521.236C262.952 521.384 262.992 521.549 262.992 521.716C262.992 521.884 262.952 522.049 262.875 522.197C262.681 522.543 262.398 522.832 262.054 523.032C261.366 523.485 260.56 523.726 259.735 523.725C258.894 523.732 258.067 523.514 257.338 523.095L257.18 523C256.867 522.856 256.586 522.65 256.353 522.396C256.12 522.142 255.94 521.844 255.823 521.519C255.779 521.242 255.821 520.958 255.942 520.705C256.063 520.452 256.258 520.241 256.502 520.101L257.7 520.81C257.581 520.9 257.488 521.021 257.433 521.16C257.377 521.299 257.361 521.451 257.385 521.598C257.438 521.765 257.526 521.918 257.643 522.049C257.76 522.179 257.903 522.283 258.063 522.354H258.158C258.567 522.598 259.038 522.718 259.515 522.701C260.004 522.683 260.479 522.53 260.887 522.26C261.281 521.992 261.471 521.724 261.455 521.441C261.439 521.157 261.202 520.858 260.729 520.59H260.65C260.353 520.418 260.027 520.301 259.688 520.243C259.35 520.172 259.001 520.172 258.663 520.243L257.48 519.534L261.25 517.155Z" fill="white"/>
<path d="M355.048 505.716L356.405 506.52L353.754 508.237L358.897 508.017L360.522 508.978L354.78 509.151L354.622 512.807L352.997 511.83L353.202 508.6L350.489 510.349L349.148 509.545L355.048 505.716Z" fill="white"/>
<path d="M348.123 501.588L349.464 502.392L348.438 506.803L352.477 504.188L353.833 504.992L347.918 508.82L346.577 508.017L347.571 503.621L343.564 506.221L342.207 505.417L348.123 501.588Z" fill="white"/>
<path d="M344.842 499.729L341.481 504.992L340.062 504.141L340.74 503.069L338.027 501.494L336.449 501.982L335.014 501.132L343.327 498.831L344.842 499.729ZM339.32 501.116L341.308 502.297L342.807 500.092L339.32 501.116" fill="white"/>
<path d="M336.702 498.989C336.679 499.161 336.616 499.325 336.517 499.467C336.418 499.61 336.287 499.727 336.134 499.808C335.616 500.133 335.008 500.282 334.398 500.233C333.731 500.177 333.084 499.972 332.505 499.635L332.316 499.524L329.429 497.807L335.329 493.978L338.169 495.664C338.847 496.074 339.257 496.468 339.352 496.846C339.446 497.224 339.273 497.586 338.8 497.886C338.433 498.127 338.008 498.263 337.569 498.28C337.117 498.298 336.666 498.223 336.244 498.059C336.389 498.167 336.506 498.307 336.585 498.469C336.665 498.63 336.705 498.809 336.702 498.989V498.989ZM334.036 499.099C334.346 499.126 334.657 499.048 334.919 498.878C335.187 498.705 335.282 498.516 335.235 498.311C335.187 498.106 334.982 497.902 334.604 497.681L333.342 496.925L331.764 497.98L333.042 498.737H333.152C333.434 498.895 333.745 498.992 334.067 499.02L334.036 499.099ZM335.755 495.318L334.178 496.31L335.377 497.019C335.65 497.182 335.958 497.279 336.276 497.303C336.564 497.327 336.853 497.255 337.096 497.098C337.333 496.94 337.443 496.767 337.411 496.578C337.38 496.389 337.175 496.184 336.828 495.979L335.629 495.27" fill="white"/>
<path d="M190.183 424.165L198.45 429.018L197.061 429.916L182.548 425.835L181.886 425.441L184.11 424.007C185.023 423.522 186.041 423.268 187.076 423.268C188.11 423.268 189.128 423.522 190.041 424.007L190.183 424.165Z" fill="#F8C401"/>
<path d="M197.787 430.184L198.986 429.411L198.718 429.254L202.283 431.365L202.204 431.428L197.787 430.184Z" fill="#F8C401"/>
<path d="M193.417 432.358L182.548 425.914L197.077 429.979L193.417 432.358Z" fill="#F8C401"/>
<path d="M181.902 425.52L182.548 425.914L193.417 432.358L192.944 432.657L181.444 425.819L181.665 425.662L181.902 425.52Z" fill="#F15A24"/>
<path d="M197.787 430.183L202.204 431.428L197.251 434.642L193.938 432.673L197.787 430.183Z" fill="#F8C401"/>
<path d="M202.551 431.523L202.819 431.68L197.314 435.257L193.48 432.972L193.938 432.673L197.251 434.642L202.204 431.428L202.283 431.365L202.551 431.523Z" fill="#F15A24"/>
<path d="M175.797 429.459L181.412 425.866L192.912 432.72L187.218 436.407L175.702 429.569L175.797 429.459Z" fill="#F8C401"/>
<path d="M198.718 429.254L198.986 429.411L197.787 430.183L193.938 432.673L193.48 432.972L187.786 436.675L187.249 436.36L192.944 432.657L193.417 432.358L197.077 429.979L198.45 429.081L198.718 429.254Z" fill="#F15A24"/>
<path d="M176.207 433.224C174.629 432.295 174.298 430.861 175.323 429.853L186.776 436.659L184.473 438.156L176.207 433.224Z" fill="#F8C401"/>
<path d="M187.249 436.36L187.786 436.675L191.098 438.629L190.625 438.944L187.312 436.974L186.792 436.659L175.323 429.837L175.276 429.805L175.718 429.522L187.249 436.36Z" fill="#F15A24"/>
<path d="M184.489 438.14L186.792 436.659L187.313 436.974L185.025 438.455L185.009 438.471L184.489 438.14Z" fill="#F15A24"/>
<path d="M185.025 438.455L187.313 436.974L190.625 438.944L188.322 440.425L185.025 438.455Z" fill="#F8C401"/>
<path d="M195.137 436.659L197.803 438.235L191.509 442.315L191.777 442.473L188.843 440.74L195.137 436.659Z" fill="#F8C401"/>
<path d="M195.089 436.045L198.797 438.25L194.806 440.834L194.332 441.149L192.045 442.631L191.777 442.473L191.509 442.315L197.803 438.235L195.137 436.659L188.843 440.74L188.322 440.425L190.625 438.944L191.098 438.629L195.089 436.045Z" fill="#F15A24"/>
<path d="M207.268 434.327C209.035 435.399 209.24 437.069 207.662 438.093L199.349 443.481L194.853 440.803L198.844 438.219L195.137 436.013L191.146 438.597L187.833 436.628L193.528 432.941L197.361 435.225L202.867 431.649L202.598 431.491L207.268 434.327Z" fill="#F8C401"/>
<path d="M199.301 443.513L199.065 443.67L198.828 443.812L198.781 443.781L194.332 441.149L194.806 440.834L199.301 443.513Z" fill="#F15A24"/>
<path d="M192.045 442.631L194.348 441.134L198.781 443.765C197.914 444.093 196.988 444.233 196.063 444.176C195.139 444.119 194.237 443.866 193.417 443.434H193.291L191.714 442.52L192.045 442.631Z" fill="#F8C401"/>
<path d="M261.786 548.336C268.852 548.336 274.58 544.794 274.58 540.426C274.58 536.058 268.852 532.517 261.786 532.517C254.721 532.517 248.993 536.058 248.993 540.426C248.993 544.794 254.721 548.336 261.786 548.336Z" fill="#F15A24"/>
<path d="M273.412 554.638C280.478 554.638 286.206 551.097 286.206 546.729C286.206 542.36 280.478 538.819 273.412 538.819C266.346 538.819 260.619 542.36 260.619 546.729C260.619 551.097 266.346 554.638 273.412 554.638Z" fill="#FBB03B"/>
<path opacity="0.32" d="M472.382 513.768C478.109 515.516 483.867 517.25 489.735 518.494C493.329 519.132 496.959 519.547 500.604 519.739L506.709 515.611L548.97 484.163L516.631 473.417L440.123 500.029C449.588 506.945 461.308 510.364 472.382 513.768Z" fill="url(#paint1_linear)"/>
<path d="M532.122 451.596C524.487 450.934 516.458 448.633 510.81 443.418V466.012C510.81 472.23 513.283 478.193 517.685 482.59C522.088 486.986 528.058 489.457 534.284 489.457V489.457C540.509 489.457 546.48 486.986 550.882 482.59C555.284 478.193 557.757 472.23 557.757 466.012V443.04C549.759 446.349 540.672 452.336 532.122 451.596Z" fill="#68E1FD"/>
<path d="M534.299 455.708C547.263 455.708 557.772 450.142 557.772 443.277C557.772 436.411 547.263 430.845 534.299 430.845C521.335 430.845 510.826 436.411 510.826 443.277C510.826 450.142 521.335 455.708 534.299 455.708Z" fill="#5ED18D"/>
<path d="M534.299 445.372C534.299 445.372 518.335 443.024 514.107 417.232C514.107 417.248 527.721 424.748 534.299 445.372Z" fill="#5ED18D"/>
<path d="M536.65 442.095C536.65 442.095 518.335 409.276 536.65 387.233C542.238 405.095 542.238 424.234 536.65 442.095V442.095Z" fill="#5ED18D"/>
<path d="M534.299 421.471C534.299 421.471 518.335 419.123 514.107 393.331C514.107 393.331 527.721 400.831 534.299 421.471Z" fill="#5ED18D"/>
<path d="M536.24 431.98C536.24 431.98 532.249 416.366 554.428 402.516C554.428 402.516 552.756 417.989 536.24 431.98Z" fill="#5ED18D"/>
<path d="M534.299 455.708C547.263 455.708 557.772 450.142 557.772 443.277C557.772 436.411 547.263 430.845 534.299 430.845C521.335 430.845 510.826 436.411 510.826 443.277C510.826 450.142 521.335 455.708 534.299 455.708Z" fill="#146666"/>
<path d="M534.299 445.372C534.299 445.372 518.335 443.024 514.107 417.232C514.107 417.248 527.721 424.748 534.299 445.372Z" fill="#5ED18D"/>
<path d="M536.65 442.095C536.65 442.095 518.335 409.276 536.65 387.233C542.238 405.095 542.238 424.234 536.65 442.095V442.095Z" fill="#5ED18D"/>
<path d="M534.299 421.471C534.299 421.471 518.335 419.123 514.107 393.331C514.107 393.331 527.721 400.831 534.299 421.471Z" fill="#5ED18D"/>
<path d="M536.24 431.98C536.24 431.98 532.249 416.366 554.428 402.516C554.428 402.516 552.756 417.989 536.24 431.98Z" fill="#5ED18D"/>
<path d="M202.141 461.065L291.838 408.535C294.653 406.89 297.851 406.012 301.112 405.99C304.374 405.968 307.583 406.802 310.421 408.409L470.363 499.067C472.265 500.179 473.842 501.767 474.938 503.676C476.034 505.585 476.61 507.747 476.61 509.947C476.61 512.147 476.034 514.309 474.938 516.218C473.842 518.126 472.265 519.715 470.363 520.826L382.654 571.087C378.461 573.491 373.706 574.744 368.871 574.719C364.037 574.694 359.295 573.392 355.127 570.945L201.999 481.137C200.256 480.097 198.815 478.62 197.819 476.853C196.824 475.085 196.307 473.089 196.322 471.061C196.336 469.033 196.881 467.043 197.901 465.29C198.922 463.537 200.383 462.08 202.141 461.065V461.065Z" fill="#BA3D3A"/>
<path d="M202.141 456.102L291.837 403.619C294.652 401.974 297.851 401.097 301.112 401.075C304.373 401.052 307.583 401.887 310.42 403.493L470.363 494.152C472.264 495.263 473.841 496.852 474.937 498.76C476.033 500.669 476.61 502.831 476.61 505.031C476.61 507.231 476.033 509.393 474.937 511.302C473.841 513.21 472.264 514.799 470.363 515.91L382.654 566.171C378.482 568.561 373.753 569.812 368.943 569.798C364.133 569.784 359.411 568.506 355.253 566.092L202.125 476.285C200.35 475.262 198.876 473.791 197.851 472.019C196.827 470.246 196.288 468.235 196.29 466.189C196.292 464.142 196.833 462.132 197.86 460.361C198.888 458.59 200.364 457.121 202.141 456.102V456.102Z" fill="#DD5E57"/>
<path d="M295.655 419.769L295.813 419.848C296.527 420.183 297.09 420.773 297.39 421.502C297.475 421.804 297.472 422.124 297.383 422.425C297.294 422.726 297.121 422.996 296.886 423.204L295.15 422.164C295.215 422.048 295.249 421.918 295.249 421.786C295.249 421.653 295.215 421.523 295.15 421.408C295.001 421.103 294.758 420.854 294.456 420.699C293.974 420.433 293.428 420.308 292.879 420.336C292.283 420.361 291.706 420.546 291.207 420.872C290.686 421.203 290.434 421.549 290.434 421.927C290.448 422.138 290.521 422.341 290.643 422.513C290.766 422.686 290.933 422.821 291.128 422.904H291.238C291.572 423.083 291.935 423.201 292.311 423.251C292.717 423.329 293.135 423.329 293.541 423.251L295.276 424.275C294.422 424.62 293.497 424.755 292.579 424.669C291.681 424.602 290.808 424.339 290.023 423.897L289.85 423.802C289.289 423.51 288.819 423.068 288.493 422.526C288.375 422.32 288.305 422.089 288.288 421.852C288.272 421.614 288.31 421.376 288.399 421.155C288.649 420.631 289.05 420.192 289.55 419.895C290.15 419.511 290.82 419.248 291.522 419.123C292.949 418.87 294.419 419.114 295.687 419.816L295.655 419.769Z" fill="white"/>
<path d="M289.093 434.642L293.51 435.887L288.556 439.085L285.259 437.132L289.093 434.642Z" fill="#F8C401"/>
<path d="M284.723 436.817L273.901 430.373L288.383 434.438L284.723 436.817Z" fill="#F8C401"/>
<path d="M273.207 429.963L273.901 430.373L284.723 436.817L284.266 437.116L272.75 430.278L273.207 429.963Z" fill="#F15A24"/>
<path d="M293.604 435.824L294.125 436.139L288.619 439.716L284.802 437.431L285.259 437.132L288.556 439.085L293.51 435.887L293.604 435.824Z" fill="#F15A24"/>
<path d="M267.118 433.918L272.75 430.262L284.265 437.1L278.571 440.787L267.055 433.933L267.118 433.918Z" fill="#F8C401"/>
<path d="M289.771 433.555L290.307 433.87L289.093 434.642L285.259 437.132L284.802 437.431L279.107 441.134L278.571 440.803L284.266 437.116L284.723 436.817L288.383 434.437L289.771 433.555Z" fill="#F15A24"/>
<path d="M278.097 441.102L275.794 442.599L276.063 442.757L267.512 437.667C265.935 436.722 265.619 435.304 266.645 434.28L278.097 441.102Z" fill="#F8C401"/>
<path d="M278.571 440.803L279.107 441.134L282.404 443.087L281.931 443.387L278.634 441.433L278.097 441.102L266.645 434.296L266.597 434.264L267.039 433.981L278.571 440.803Z" fill="#F15A24"/>
<path d="M275.794 442.599L278.098 441.102L278.634 441.433L276.331 442.914L276.063 442.757L275.794 442.599Z" fill="#F15A24"/>
<path d="M281.931 443.387L279.628 444.884L279.896 445.025L276.331 442.914L278.634 441.433L281.931 443.387Z" fill="#F8C401"/>
<path d="M286.458 441.118L289.109 442.693L282.814 446.774L283.082 446.932L280.164 445.199L286.458 441.118Z" fill="#F8C401"/>
<path d="M286.395 440.488L290.118 442.709L286.111 445.293L285.654 445.593L283.351 447.089L283.082 446.932L282.814 446.774L289.108 442.693L286.458 441.118L280.164 445.199L279.896 445.025L279.628 444.884L281.931 443.387L282.404 443.087L286.395 440.488Z" fill="#F15A24"/>
<path d="M298.573 438.786C300.372 439.857 300.545 441.543 298.984 442.536L290.67 447.924L286.174 445.246L290.181 442.662L286.474 440.456L282.373 443.087L279.076 441.118L284.77 437.431L288.604 439.7L294.109 436.139L293.573 435.824H293.478L289.061 434.579L290.26 433.807L289.724 433.492L288.335 434.39L273.854 430.325L273.16 429.916L275.384 428.482C276.297 427.996 277.316 427.742 278.35 427.742C279.384 427.742 280.403 427.996 281.316 428.482H281.442L298.573 438.786Z" fill="#F8C401"/>
<path d="M290.607 447.972L290.371 448.129L290.15 448.271L290.102 448.24L285.654 445.593L286.111 445.293L290.607 447.972Z" fill="#F15A24"/>
<path d="M283.351 447.089L285.654 445.593L290.102 448.239C289.236 448.568 288.31 448.709 287.385 448.652C286.46 448.595 285.558 448.342 284.739 447.909H284.613L283.351 447.089Z" fill="#F8C401"/>
<path d="M301.792 427.158C301.178 427.185 300.565 427.083 299.993 426.859L299.268 429.317L297.469 428.246L298.242 425.929L297.864 425.709L295.639 427.158L294.062 426.197L299.977 422.369L302.754 424.023C303.197 424.258 303.581 424.593 303.874 425C303.973 425.131 304.039 425.284 304.066 425.445C304.094 425.607 304.082 425.773 304.032 425.929C303.897 426.264 303.652 426.542 303.337 426.717C302.874 427.007 302.338 427.16 301.792 427.158V427.158ZM301.539 425.756C301.776 425.599 301.87 425.441 301.855 425.252C301.839 425.063 301.65 424.89 301.334 424.7L300.324 424.102L298.842 425.079L299.851 425.677C300.105 425.829 300.392 425.915 300.687 425.929C300.967 425.941 301.243 425.864 301.476 425.709" fill="white"/>
<path d="M344.431 452.525C343.817 452.554 343.204 452.452 342.633 452.226L341.907 454.684L340.109 453.612L340.882 451.296L340.503 451.076L338.263 452.525L336.686 451.564L342.601 447.735L345.394 449.405C345.832 449.641 346.214 449.969 346.514 450.367C346.608 450.5 346.671 450.652 346.699 450.813C346.726 450.974 346.717 451.139 346.671 451.296C346.537 451.63 346.292 451.908 345.977 452.084C345.514 452.373 344.978 452.526 344.431 452.525V452.525ZM344.179 451.123C344.416 450.965 344.526 450.808 344.494 450.619C344.463 450.43 344.305 450.256 343.99 450.067L342.964 449.468L341.481 450.445L342.491 451.044C342.745 451.198 343.031 451.289 343.327 451.312C343.603 451.311 343.872 451.229 344.1 451.076" fill="white"/>
<path d="M339.399 445.908L336.007 451.17L334.256 450.146L334.903 449.185L332.379 447.609L330.896 448.066L329.161 447.042L337.585 444.773L339.399 445.908ZM333.894 447.247L335.582 448.255L336.922 446.349L333.909 447.247" fill="white"/>
<path d="M331.275 440.976L331.433 441.071C332.133 441.386 332.694 441.947 333.01 442.646C333.095 442.949 333.092 443.269 333.003 443.57C332.914 443.871 332.741 444.14 332.505 444.348L330.77 443.308C330.835 443.193 330.869 443.062 330.869 442.93C330.869 442.797 330.835 442.667 330.77 442.552C330.621 442.247 330.378 441.998 330.076 441.843C329.594 441.577 329.048 441.452 328.499 441.48C327.903 441.505 327.325 441.69 326.826 442.016C326.622 442.117 326.445 442.266 326.311 442.45C326.176 442.633 326.088 442.847 326.053 443.072C326.068 443.282 326.141 443.485 326.263 443.657C326.386 443.83 326.553 443.965 326.748 444.048H326.858C327.192 444.227 327.555 444.345 327.931 444.395C328.337 444.473 328.755 444.473 329.161 444.395L330.896 445.419C330.042 445.764 329.117 445.899 328.199 445.813C327.301 445.746 326.428 445.483 325.643 445.041L325.47 444.947C324.909 444.654 324.439 444.212 324.113 443.67C323.997 443.463 323.93 443.231 323.916 442.994C323.903 442.757 323.943 442.519 324.034 442.3C324.274 441.768 324.677 441.326 325.186 441.039C325.785 440.653 326.455 440.39 327.158 440.267C328.589 440.01 330.066 440.255 331.338 440.96L331.275 440.976Z" fill="white"/>
<path d="M315.358 433.303C315.137 433.828 314.749 434.266 314.254 434.548C313.676 434.931 313.027 435.194 312.345 435.32C311.594 435.457 310.824 435.457 310.073 435.32C309.343 435.173 308.64 434.913 307.991 434.548L307.818 434.453L305.278 432.878L311.178 429.049L313.717 430.625C314.348 430.938 314.89 431.404 315.295 431.98C315.401 432.182 315.462 432.406 315.473 432.634C315.483 432.863 315.444 433.091 315.358 433.303V433.303ZM312.597 433.571C313.123 433.224 313.36 432.851 313.307 432.452C313.307 432.043 312.897 431.665 312.266 431.271L311.493 430.814L308.117 433.004L308.89 433.461H309.017C309.564 433.781 310.181 433.965 310.815 433.996C311.446 434.025 312.07 433.854 312.597 433.508" fill="white"/>
<path d="M318.119 433.193L319.759 434.17L313.844 437.998L312.203 437.021L318.119 433.193Z" fill="white"/>
<path d="M320.438 434.579L325.738 437.715L324.602 438.455L322.772 437.368L317.992 440.456L316.352 439.479L321.116 436.391L319.318 435.304L320.438 434.579Z" fill="white"/>
<path d="M305.988 425.977L310.184 428.482L309.048 429.207L306.477 427.678L305.246 428.482L307.534 429.837L306.445 430.546L304.158 429.175L302.848 430.026L305.42 431.554L304.284 432.31L300.072 429.805L305.988 425.977Z" fill="white"/>
<path d="M352.871 455.613C352.649 456.138 352.261 456.575 351.767 456.858C351.168 457.238 350.496 457.49 349.795 457.598C349.044 457.736 348.274 457.736 347.523 457.598C346.81 457.46 346.124 457.21 345.488 456.858L345.267 456.732L342.728 455.156L348.628 451.328L351.167 452.903C351.799 453.215 352.341 453.681 352.745 454.258C352.866 454.46 352.94 454.687 352.962 454.921C352.984 455.156 352.953 455.392 352.871 455.613ZM350.11 455.881C350.647 455.534 350.883 455.156 350.836 454.747C350.789 454.337 350.426 453.959 349.795 453.581L349.022 453.108L345.646 455.298L346.403 455.755H346.529C347.082 456.075 347.705 456.254 348.344 456.275C348.969 456.303 349.588 456.132 350.11 455.787" fill="white"/>
<path d="M278.034 462.908L279.28 463.664L278.176 464.389L276.914 463.649L275.226 464.736L273.759 463.869L275.447 462.766L270.888 460.056L271.945 459.363L281.584 458.67L283.161 459.599L278.034 462.908ZM276.662 462.105L280.274 459.757L273.507 460.214L276.662 462.089" fill="white"/>
<path d="M271.614 452.494L271.835 452.62C272.33 452.886 272.76 453.257 273.097 453.707C273.209 453.856 273.286 454.028 273.321 454.211C273.357 454.394 273.35 454.582 273.302 454.762C273.165 455.138 272.896 455.452 272.545 455.645C272.032 455.976 271.436 456.156 270.825 456.165C270.155 456.187 269.489 456.046 268.885 455.755C269.281 456.093 269.552 456.553 269.658 457.063C269.658 457.472 269.453 457.851 268.917 458.213C268.208 458.65 267.382 458.859 266.55 458.812C265.634 458.764 264.741 458.499 263.947 458.04L263.758 457.929C262.988 457.571 262.388 456.926 262.086 456.133C261.918 455.503 262.212 454.894 262.969 454.306L264.405 455.156C264.234 455.26 264.094 455.409 264.002 455.587C263.911 455.765 263.87 455.965 263.884 456.165C263.946 456.39 264.058 456.599 264.21 456.776C264.363 456.953 264.554 457.094 264.768 457.189C265.205 457.444 265.697 457.59 266.203 457.614C266.66 457.633 267.111 457.512 267.497 457.268C267.938 456.984 268.08 456.653 267.923 456.275C267.61 455.745 267.15 455.318 266.598 455.046L266.251 454.841L267.292 454.164L267.639 454.369L267.891 454.51C268.324 454.844 268.843 455.047 269.388 455.098C269.933 455.148 270.48 455.043 270.967 454.794C271.325 454.552 271.483 454.29 271.441 454.006C271.441 453.723 271.141 453.455 270.715 453.187C270.281 452.94 269.794 452.8 269.295 452.777C268.748 452.754 268.204 452.874 267.718 453.124L266.282 452.273C267.099 451.815 268.028 451.597 268.964 451.643C269.903 451.711 270.811 452.002 271.614 452.494Z" fill="white"/>
<path d="M263.001 447.499L263.159 447.594C264.026 448.113 264.515 448.649 264.61 449.169C264.704 449.689 264.389 450.241 263.679 450.745C262.96 451.167 262.158 451.43 261.329 451.517C260.283 451.66 259.227 451.707 258.174 451.659C257.117 451.613 256.064 451.508 255.019 451.343L259.278 453.88L258.237 454.558L251.927 450.855L252.857 450.241C254.754 450.51 256.668 450.647 258.584 450.65C259.771 450.72 260.956 450.481 262.023 449.957C262.181 449.876 262.319 449.76 262.425 449.618C262.532 449.476 262.605 449.312 262.638 449.138C262.638 448.854 262.401 448.555 261.897 448.255C261.419 447.978 260.871 447.846 260.319 447.877C259.721 447.927 259.143 448.116 258.631 448.429L257.211 447.594C258.123 447.059 259.167 446.791 260.224 446.822C261.191 446.82 262.144 447.052 263.001 447.499V447.499Z" fill="white"/>
<path d="M254.246 442.473L257.132 444.19L249.261 449.295L247.746 448.381L254.419 444.049L253.063 443.245L254.246 442.473Z" fill="white"/>
<path d="M295.718 466.989L301.492 470.424L300.372 471.148L295.923 468.501L293.588 470.077C294.067 470.053 294.547 470.106 295.008 470.235C295.454 470.347 295.884 470.516 296.286 470.739L296.459 470.833C296.973 471.091 297.396 471.497 297.674 471.999C297.763 472.178 297.809 472.375 297.809 472.574C297.809 472.774 297.763 472.971 297.674 473.149C297.438 473.562 297.102 473.909 296.696 474.158C295.862 474.691 294.895 474.98 293.904 474.993C292.89 474.997 291.893 474.731 291.017 474.221L290.844 474.126C290.474 473.95 290.144 473.702 289.873 473.396C289.602 473.09 289.396 472.733 289.266 472.346C289.201 472.018 289.243 471.677 289.385 471.374C289.526 471.071 289.761 470.821 290.055 470.66L291.49 471.511C291.348 471.62 291.237 471.765 291.17 471.931C291.104 472.098 291.084 472.279 291.112 472.456C291.179 472.654 291.284 472.837 291.422 472.994C291.56 473.151 291.728 473.278 291.916 473.37H292.011C292.513 473.661 293.087 473.809 293.667 473.795C294.23 473.766 294.775 473.586 295.245 473.275C295.718 472.96 295.939 472.629 295.923 472.283C295.907 471.936 295.592 471.59 295.056 471.259C294.688 471.051 294.288 470.907 293.872 470.833C293.466 470.757 293.049 470.757 292.642 470.833L291.222 469.982L295.718 466.989Z" fill="white"/>
<path d="M313.165 477.466L319.112 480.996L318.15 481.61L307.849 484.131L306.319 483.217L316.525 480.838L312.077 478.175L313.165 477.466Z" fill="white"/>
<path d="M306.887 477.86C306.887 478.459 306.524 479.026 305.688 479.578C305.17 479.912 304.591 480.142 303.984 480.255C303.333 480.376 302.664 480.376 302.012 480.255C301.347 480.13 300.708 479.895 300.119 479.562L299.962 479.467C298.668 478.695 298.116 477.892 298.384 477.183C298.82 476.183 299.59 475.365 300.561 474.867C301.741 474.053 303.089 473.514 304.505 473.291C305.691 473.167 306.885 473.427 307.912 474.032L308.102 474.142C308.985 474.662 309.442 475.213 309.474 475.717C309.47 476.031 309.389 476.339 309.238 476.614C309.086 476.889 308.87 477.122 308.606 477.293L307.218 476.474C307.944 475.812 307.849 475.213 306.966 474.678C306.342 474.331 305.622 474.198 304.915 474.299C303.985 474.464 303.102 474.829 302.328 475.371L301.965 475.623C302.541 475.442 303.152 475.399 303.748 475.497C304.356 475.585 304.944 475.783 305.483 476.08H305.609C306.429 476.721 306.855 477.314 306.887 477.86ZM304.331 478.758C304.852 478.412 305.104 478.065 305.057 477.687C305.01 477.309 304.726 476.962 304.174 476.631C303.687 476.361 303.15 476.195 302.596 476.143C302.012 476.073 301.421 476.206 300.924 476.521C300.721 476.623 300.548 476.775 300.421 476.962C300.294 477.15 300.217 477.367 300.198 477.592C300.198 477.992 300.514 478.38 301.145 478.758H301.255C301.736 479.035 302.278 479.187 302.833 479.2C303.393 479.21 303.943 479.05 304.41 478.743" fill="white"/>
<path d="M323.214 488.889C323.169 489.119 323.074 489.335 322.934 489.523C322.795 489.711 322.616 489.866 322.409 489.976C321.6 490.48 320.644 490.696 319.696 490.591C318.697 490.494 317.73 490.188 316.857 489.693L316.62 489.551C315.815 489.174 315.18 488.511 314.837 487.692C314.648 487.046 314.932 486.479 315.705 485.974C316.221 485.646 316.813 485.456 317.425 485.423C318.126 485.39 318.828 485.492 319.491 485.722C319.33 485.586 319.204 485.413 319.122 485.219C319.04 485.025 319.004 484.814 319.018 484.604C319.062 484.403 319.15 484.214 319.275 484.05C319.401 483.887 319.56 483.753 319.743 483.658C320.173 483.388 320.659 483.221 321.163 483.17C321.777 483.113 322.396 483.161 322.993 483.312C323.624 483.459 324.23 483.698 324.791 484.021L324.981 484.131C325.529 484.433 326.011 484.84 326.401 485.329C326.526 485.487 326.617 485.669 326.669 485.864C326.721 486.06 326.731 486.263 326.7 486.463C326.653 486.652 326.566 486.83 326.447 486.984C326.328 487.139 326.177 487.267 326.006 487.361C325.533 487.661 324.989 487.829 324.429 487.849C323.809 487.898 323.186 487.818 322.599 487.613C322.786 487.77 322.938 487.965 323.044 488.185C323.15 488.405 323.208 488.645 323.214 488.889V488.889ZM321.037 489.078C321.494 488.779 321.652 488.448 321.526 488.086C321.315 487.622 320.946 487.248 320.485 487.03H320.359C319.871 486.757 319.336 486.581 318.781 486.51C318.231 486.436 317.672 486.559 317.204 486.857C316.746 487.156 316.573 487.487 316.667 487.865C316.854 488.347 317.222 488.737 317.693 488.952H317.819C318.33 489.25 318.901 489.428 319.491 489.472C320.044 489.527 320.6 489.393 321.069 489.094L321.037 489.078ZM321.069 484.651C320.658 484.903 320.501 485.202 320.595 485.518C320.76 485.938 321.083 486.277 321.494 486.463H321.621C322.066 486.717 322.561 486.873 323.072 486.92C323.559 486.97 324.048 486.853 324.46 486.589C324.87 486.337 325.028 486.037 324.933 485.707C324.77 485.286 324.447 484.946 324.034 484.761H323.908C323.473 484.513 322.988 484.362 322.488 484.32C322 484.277 321.511 484.399 321.1 484.667" fill="white"/>
<path d="M358.25 505.512C357.835 506.522 357.075 507.354 356.105 507.859C354.995 508.616 353.727 509.111 352.398 509.309C351.204 509.46 349.995 509.21 348.959 508.6L348.77 508.489C347.586 507.78 347.097 507.056 347.287 506.299C347.711 505.276 348.481 504.434 349.464 503.92C350.573 503.162 351.841 502.666 353.171 502.471C354.36 502.333 355.563 502.587 356.594 503.196L356.783 503.306C357.961 504.01 358.45 504.745 358.25 505.512ZM354.638 506.993C355.326 506.62 355.907 506.077 356.326 505.417C356.547 504.96 356.326 504.503 355.569 504.078H355.442C354.817 503.703 354.075 503.574 353.36 503.715C352.49 503.942 351.668 504.321 350.931 504.834C350.241 505.21 349.655 505.751 349.227 506.41C349.006 506.867 349.227 507.323 350 507.765H350.126C350.746 508.138 351.485 508.261 352.193 508.111C353.074 507.89 353.908 507.511 354.654 506.993" fill="white"/>
<path d="M347.665 498.028L350.536 499.745L342.665 504.85L341.15 503.936L347.823 499.603L346.466 498.8L347.665 498.028Z" fill="white"/>
<path d="M344.021 496.877C343.596 497.871 342.838 498.684 341.876 499.178C340.695 499.979 339.355 500.516 337.948 500.753C336.775 500.919 335.581 500.686 334.556 500.092L334.383 499.997C333.484 499.461 333.026 498.91 332.947 498.311C332.934 498 333.003 497.69 333.147 497.414C333.291 497.138 333.505 496.904 333.767 496.736L335.14 497.555C334.987 497.657 334.863 497.796 334.778 497.958C334.692 498.12 334.649 498.301 334.651 498.485C334.702 498.677 334.795 498.856 334.923 499.008C335.051 499.161 335.211 499.283 335.392 499.367V499.367C336.016 499.714 336.736 499.847 337.443 499.745C338.38 499.578 339.269 499.207 340.046 498.658L340.409 498.406C339.828 498.589 339.211 498.633 338.61 498.532C338.002 498.443 337.414 498.246 336.875 497.949H336.749C335.881 497.429 335.424 496.862 335.377 496.263C335.329 495.664 335.724 495.081 336.56 494.561C337.079 494.23 337.658 494 338.263 493.884C338.92 493.76 339.594 493.76 340.251 493.884C340.911 494.001 341.546 494.23 342.128 494.561L342.302 494.656C343.69 495.381 344.226 496.137 344.021 496.877ZM341.545 497.586C341.748 497.484 341.923 497.333 342.053 497.146C342.182 496.958 342.262 496.741 342.286 496.515C342.286 496.121 341.97 495.727 341.339 495.349C340.858 495.072 340.317 494.916 339.762 494.892C339.201 494.893 338.653 495.057 338.184 495.365C337.664 495.712 337.411 496.058 337.443 496.436C337.475 496.814 337.774 497.161 338.311 497.476H338.39C339.07 497.845 339.842 498.009 340.614 497.949C341.001 497.91 341.374 497.78 341.702 497.571" fill="white"/>
<path d="M367.463 510.947C367.046 511.962 366.279 512.795 365.302 513.295C364.191 514.051 362.924 514.547 361.595 514.744C360.388 514.925 359.155 514.698 358.093 514.098L357.903 513.988C356.704 513.279 356.215 512.539 356.42 511.782C356.848 510.765 357.618 509.929 358.597 509.419C359.704 508.666 360.965 508.171 362.289 507.969C363.478 507.833 364.68 508.087 365.712 508.694L365.901 508.805C367.179 509.498 367.668 510.223 367.463 510.947ZM363.85 512.428C364.529 512.048 365.103 511.507 365.523 510.853C365.759 510.38 365.523 509.939 364.765 509.498H364.686C364.051 509.119 363.298 508.99 362.573 509.135C361.698 509.354 360.87 509.728 360.128 510.238C359.437 510.614 358.852 511.156 358.424 511.814C358.187 512.287 358.424 512.728 359.197 513.169H359.276C359.91 513.55 360.664 513.68 361.39 513.531C362.269 513.305 363.102 512.926 363.85 512.413" fill="white"/>
<path d="M243.566 456.905L244.765 457.63L239.038 461.348L241.626 462.892L240.805 463.428L237.019 461.159L243.566 456.905Z" fill="white"/>
<path d="M248.299 459.741L249.529 460.466L242.967 464.704L241.752 463.98L248.299 459.741Z" fill="white"/>
<path d="M238.092 453.659L242.399 456.212L241.531 456.763L238.455 454.936L236.467 456.212L239.228 457.866L238.408 458.386L235.647 456.748L233.612 458.071L236.688 459.899L235.836 460.466L231.545 457.914L238.092 453.659Z" fill="white"/>
<path d="M260.288 467.02L256.596 472.85L255.303 472.078L256.139 470.817L252.984 468.943L250.98 469.51L249.687 468.738L258.899 466.185L260.288 467.02ZM254.135 468.596L256.612 470.077L258.426 467.351L254.12 468.596" fill="white"/>
<path d="M250.775 461.206L255.634 464.09L254.813 464.625L246.342 465.65L250.002 467.824L249.134 468.375L244.134 465.397L244.97 464.878L253.394 463.838L249.907 461.758L250.775 461.206Z" fill="white"/>
<path d="M265.383 474.536C265.365 474.731 265.297 474.919 265.187 475.082C265.076 475.244 264.927 475.376 264.752 475.465C264.178 475.825 263.503 475.991 262.827 475.938C262.069 475.871 261.336 475.634 260.682 475.245L260.54 475.166L257.574 473.386L264.121 469.132L267.055 470.881C267.812 471.322 268.238 471.763 268.349 472.188C268.459 472.614 268.238 472.992 267.733 473.323C267.325 473.594 266.85 473.746 266.361 473.764C265.855 473.778 265.351 473.693 264.878 473.512C265.034 473.633 265.161 473.788 265.248 473.966C265.336 474.143 265.382 474.338 265.383 474.536V474.536ZM263.648 474.63C263.979 474.41 264.105 474.173 264.042 473.906C263.979 473.638 263.711 473.37 263.253 473.086L261.676 472.188L259.578 473.543L261.155 474.457H261.281C261.653 474.674 262.067 474.808 262.496 474.851C262.894 474.889 263.293 474.795 263.632 474.583L263.648 474.63ZM264.436 470.361L262.48 471.637L263.963 472.535C264.318 472.746 264.718 472.87 265.13 472.897C265.503 472.927 265.874 472.833 266.187 472.629C266.487 472.44 266.613 472.22 266.566 471.968C266.519 471.716 266.266 471.463 265.825 471.196L264.357 470.329" fill="white"/>
<path d="M281.868 479.688L283.067 480.413L280.322 482.193L283.855 484.289L286.6 482.508L287.831 483.233L281.268 487.487L280.054 486.762L282.988 484.856L279.47 482.76L276.52 484.667L275.321 483.942L281.868 479.688Z" fill="white"/>
<path d="M275.573 475.954L280.968 479.152L280.117 479.719L278.018 478.459L272.324 482.162L271.093 481.437L276.788 477.75L274.721 476.505L275.573 475.954Z" fill="white"/>
<path d="M338.61 513.295H338.721C339.446 513.736 339.841 514.177 339.92 514.65C339.999 515.123 339.746 515.532 339.162 515.926C338.564 516.278 337.897 516.498 337.206 516.572C336.339 516.691 335.462 516.728 334.588 516.682C333.689 516.647 332.794 516.558 331.906 516.415L335.471 518.526L334.604 519.077L329.414 515.926L330.202 515.422C331.77 515.646 333.351 515.756 334.935 515.753C335.925 515.821 336.916 515.625 337.806 515.186C338.153 514.965 338.326 514.744 338.326 514.508C338.326 514.272 338.137 514.02 337.711 513.768H337.617C337.237 513.555 336.804 513.457 336.37 513.484C335.873 513.523 335.392 513.68 334.966 513.941L333.799 513.248C334.552 512.801 335.416 512.577 336.291 512.602C337.109 512.642 337.905 512.88 338.61 513.295V513.295Z" fill="white"/>
<path d="M348.627 519.235L348.785 519.329C349.527 519.771 349.921 520.212 350 520.684C350.079 521.157 349.826 521.567 349.227 521.961C348.627 522.306 347.96 522.521 347.271 522.591C346.393 522.707 345.506 522.744 344.621 522.701C343.733 522.664 342.848 522.575 341.97 522.433L345.52 524.544L344.652 525.112L339.446 521.961L340.219 521.456C341.788 521.672 343.369 521.783 344.952 521.787C345.943 521.846 346.933 521.645 347.823 521.204C347.955 521.138 348.071 521.043 348.161 520.925C348.251 520.808 348.314 520.672 348.344 520.527C348.344 520.29 348.154 520.038 347.728 519.786H347.634C347.256 519.57 346.822 519.471 346.387 519.503C345.884 519.539 345.398 519.696 344.968 519.96L343.785 519.251C344.544 518.806 345.413 518.583 346.293 518.605C347.112 518.615 347.915 518.832 348.627 519.235V519.235Z" fill="white"/>
<path d="M352.54 521.598L357.367 524.466L356.436 525.08L352.729 522.874L350.789 524.135C351.187 524.113 351.587 524.156 351.972 524.261C352.357 524.362 352.728 524.51 353.076 524.702H353.171C353.6 524.921 353.957 525.26 354.196 525.679C354.269 525.829 354.306 525.993 354.306 526.159C354.306 526.326 354.269 526.49 354.196 526.64C353.996 526.982 353.715 527.269 353.376 527.475C352.68 527.925 351.87 528.166 351.041 528.168C350.205 528.172 349.383 527.955 348.659 527.538L348.501 527.444C348.186 527.302 347.903 527.097 347.67 526.843C347.437 526.588 347.258 526.289 347.145 525.962C347.096 525.685 347.135 525.399 347.257 525.145C347.379 524.891 347.576 524.681 347.823 524.544L349.022 525.253C348.898 525.344 348.802 525.467 348.743 525.609C348.685 525.751 348.667 525.906 348.691 526.057C348.748 526.221 348.838 526.373 348.954 526.503C349.071 526.633 349.212 526.738 349.369 526.813C349.794 527.061 350.28 527.187 350.773 527.176C351.266 527.152 351.745 527 352.161 526.735C352.54 526.482 352.745 526.199 352.713 525.899C352.682 525.6 352.445 525.332 351.988 525.049C351.682 524.882 351.352 524.764 351.009 524.702C350.671 524.637 350.323 524.637 349.984 524.702L348.817 524.009L352.54 521.598Z" fill="white"/>
<path d="M346.577 515.438L347.76 516.131L334.462 521.157L333.294 520.464L346.577 515.438Z" fill="white"/>
<path d="M332.348 509.718L334.745 511.152L328.183 515.39L326.921 514.634L332.474 511.026L331.354 510.364L332.348 509.718Z" fill="white"/>
<path d="M446.369 510.175L447.71 510.963L445.076 512.696L450.219 512.46L451.843 513.437L446.085 513.61L445.944 517.25L444.319 516.288L444.508 513.043L441.81 514.807L440.47 514.004L446.369 510.175Z" fill="white"/>
<path d="M439.428 506.047L440.769 506.851L439.744 511.262L443.798 508.647L445.139 509.45L439.239 513.263L437.898 512.476L438.876 508.064L434.885 510.679L433.513 509.876L439.428 506.047Z" fill="white"/>
<path d="M436.163 504.188L432.803 509.372L431.383 508.521L432.093 507.465L429.396 505.89L427.723 506.378L426.304 505.527L434.633 503.227L436.163 504.188ZM430.642 505.575L432.629 506.756L434.112 504.551L430.642 505.575Z" fill="white"/>
<path d="M428.023 503.448C428.002 503.62 427.939 503.784 427.84 503.927C427.741 504.07 427.609 504.186 427.455 504.267C426.936 504.6 426.319 504.75 425.704 504.692C425.019 504.639 424.355 504.429 423.764 504.078L423.622 503.999L420.735 502.282L426.635 498.453L429.474 500.139C430.153 500.548 430.547 500.942 430.657 501.336C430.768 501.73 430.657 502.061 430.105 502.376C429.737 502.61 429.312 502.741 428.875 502.754C428.422 502.777 427.971 502.701 427.55 502.534C427.695 502.638 427.814 502.775 427.896 502.934C427.978 503.093 428.022 503.269 428.023 503.448V503.448ZM425.357 503.574C425.668 503.6 425.979 503.523 426.24 503.353C426.509 503.18 426.603 502.991 426.556 502.786C426.44 502.504 426.219 502.279 425.941 502.156L424.663 501.399L423.085 502.455L424.363 503.227C424.653 503.398 424.975 503.505 425.31 503.542L425.357 503.574ZM426.998 499.824L425.42 500.816L426.635 501.541C426.904 501.704 427.205 501.806 427.518 501.84C427.812 501.866 428.106 501.794 428.354 501.636C428.591 501.478 428.701 501.305 428.654 501.116C428.607 500.927 428.417 500.722 428.07 500.501L426.871 499.792" fill="white"/>
<path d="M353.108 552.794C360.173 552.794 365.901 549.253 365.901 544.885C365.901 540.517 360.173 536.976 353.108 536.976C346.042 536.976 340.314 540.517 340.314 544.885C340.314 549.253 346.042 552.794 353.108 552.794Z" fill="#F15A24"/>
<path d="M364.734 559.097C371.799 559.097 377.527 555.556 377.527 551.187C377.527 546.819 371.799 543.278 364.734 543.278C357.668 543.278 351.94 546.819 351.94 551.187C351.94 555.556 357.668 559.097 364.734 559.097Z" fill="#FBB03B"/>
<defs>
<linearGradient id="paint0_linear" x1="215.771" y1="558.482" x2="248.159" y2="500.137" gradientUnits="userSpaceOnUse">
<stop stop-opacity="0"/>
<stop offset="0.99" stop-color="#552800"/>
</linearGradient>
<linearGradient id="paint1_linear" x1="33591.8" y1="9064.27" x2="34481.9" y2="7096.35" gradientUnits="userSpaceOnUse">
<stop stop-opacity="0"/>
<stop offset="0.99" stop-color="#552800"/>
</linearGradient>
</defs>
</svg>
