<svg width="403" height="232" viewBox="0 0 403 232" fill="none" xmlns="http://www.w3.org/2000/svg">
<rect x="27.0745" width="375.167" height="232" rx="38" fill="#DD5E57"/>
<path d="M66.2435 144H64.1165V133.726L60.9788 134.798V132.996L65.971 131.159H66.2435V144ZM79.2952 144H70.6907V142.532L74.9534 137.883C75.5686 137.197 76.0052 136.626 76.263 136.169C76.5267 135.706 76.6585 135.243 76.6585 134.78C76.6585 134.171 76.4856 133.679 76.1399 133.304C75.8001 132.929 75.3401 132.741 74.7601 132.741C74.0686 132.741 73.5325 132.952 73.1517 133.374C72.7708 133.796 72.5804 134.373 72.5804 135.105H70.4446C70.4446 134.326 70.6204 133.626 70.972 133.005C71.3294 132.378 71.8362 131.892 72.4925 131.546C73.1546 131.2 73.9163 131.027 74.7776 131.027C76.0198 131.027 76.9983 131.341 77.7132 131.968C78.4339 132.589 78.7942 133.45 78.7942 134.552C78.7942 135.19 78.6126 135.861 78.2493 136.564C77.8919 137.262 77.303 138.056 76.4827 138.946L73.3538 142.295H79.2952V144ZM83.3909 136.626H84.6917C85.3479 136.62 85.8665 136.45 86.2474 136.116C86.6341 135.782 86.8274 135.299 86.8274 134.666C86.8274 134.057 86.6663 133.585 86.344 133.251C86.0276 132.911 85.5413 132.741 84.8851 132.741C84.3108 132.741 83.8392 132.908 83.47 133.242C83.1009 133.57 82.9163 134.001 82.9163 134.534H80.7806C80.7806 133.878 80.9534 133.28 81.2991 132.741C81.6507 132.202 82.137 131.783 82.7581 131.484C83.3851 131.18 84.0853 131.027 84.8587 131.027C86.136 131.027 87.138 131.35 87.8645 131.994C88.597 132.633 88.9632 133.523 88.9632 134.666C88.9632 135.24 88.7786 135.782 88.4095 136.292C88.0462 136.796 87.5745 137.177 86.9944 137.435C87.6976 137.675 88.2308 138.053 88.594 138.568C88.9632 139.084 89.1478 139.699 89.1478 140.414C89.1478 141.562 88.7522 142.477 87.9612 143.156C87.1761 143.836 86.1419 144.176 84.8587 144.176C83.6282 144.176 82.6204 143.848 81.8353 143.191C81.0501 142.535 80.6575 141.662 80.6575 140.572H82.7933C82.7933 141.135 82.9808 141.592 83.3558 141.943C83.7366 142.295 84.2464 142.471 84.8851 142.471C85.5472 142.471 86.0686 142.295 86.4495 141.943C86.8304 141.592 87.0208 141.082 87.0208 140.414C87.0208 139.74 86.8216 139.222 86.4231 138.858C86.0247 138.495 85.4329 138.313 84.6478 138.313H83.3909V136.626ZM98.3763 139.438H99.9671V141.152H98.3763V144H96.2405V141.152H90.7122L90.6507 139.852L96.1702 131.203H98.3763V139.438ZM92.8919 139.438H96.2405V134.095L96.0823 134.376L92.8919 139.438ZM119.883 137.654L120.577 131.203H127.45V133.049H122.353L122.001 136.107C122.593 135.768 123.261 135.598 124.005 135.598C125.224 135.598 126.17 135.987 126.844 136.767C127.524 137.546 127.864 138.595 127.864 139.913C127.864 141.214 127.489 142.251 126.739 143.024C125.989 143.792 124.96 144.176 123.654 144.176C122.482 144.176 121.509 143.845 120.736 143.183C119.968 142.515 119.552 141.636 119.488 140.546H121.553C121.635 141.167 121.858 141.645 122.221 141.979C122.584 142.307 123.059 142.471 123.645 142.471C124.301 142.471 124.811 142.236 125.174 141.768C125.543 141.299 125.728 140.66 125.728 139.852C125.728 139.072 125.526 138.457 125.121 138.006C124.717 137.549 124.16 137.32 123.451 137.32C123.065 137.32 122.737 137.373 122.467 137.479C122.198 137.578 121.905 137.777 121.588 138.076L119.883 137.654ZM136.187 131.142V132.908H135.923C134.728 132.926 133.773 133.254 133.058 133.893C132.343 134.531 131.918 135.437 131.783 136.608C132.469 135.888 133.345 135.527 134.411 135.527C135.542 135.527 136.433 135.926 137.083 136.723C137.74 137.52 138.068 138.548 138.068 139.808C138.068 141.108 137.684 142.163 136.916 142.972C136.155 143.774 135.153 144.176 133.91 144.176C132.633 144.176 131.596 143.704 130.799 142.761C130.008 141.817 129.613 140.581 129.613 139.052V138.322C129.613 136.078 130.158 134.32 131.247 133.049C132.343 131.777 133.916 131.142 135.967 131.142H136.187ZM133.893 137.25C133.424 137.25 132.993 137.382 132.601 137.646C132.214 137.909 131.93 138.261 131.748 138.7V139.351C131.748 140.3 131.948 141.056 132.346 141.618C132.744 142.175 133.26 142.453 133.893 142.453C134.526 142.453 135.027 142.216 135.396 141.741C135.765 141.267 135.95 140.643 135.95 139.869C135.95 139.096 135.762 138.466 135.387 137.979C135.012 137.493 134.514 137.25 133.893 137.25ZM148.289 132.39L143.174 144H140.933L146.039 132.917H139.421V131.203H148.289V132.39ZM158.063 134.578C158.063 135.205 157.902 135.765 157.579 136.257C157.257 136.743 156.818 137.127 156.261 137.408C156.929 137.719 157.442 138.144 157.799 138.683C158.162 139.222 158.344 139.831 158.344 140.511C158.344 141.636 157.963 142.529 157.201 143.191C156.44 143.848 155.426 144.176 154.16 144.176C152.889 144.176 151.869 143.845 151.102 143.183C150.34 142.521 149.959 141.63 149.959 140.511C149.959 139.825 150.141 139.21 150.504 138.665C150.867 138.12 151.377 137.701 152.033 137.408C151.483 137.127 151.046 136.743 150.724 136.257C150.408 135.765 150.249 135.205 150.249 134.578C150.249 133.488 150.601 132.624 151.304 131.985C152.007 131.347 152.956 131.027 154.152 131.027C155.353 131.027 156.305 131.347 157.008 131.985C157.711 132.624 158.063 133.488 158.063 134.578ZM156.208 140.405C156.208 139.772 156.018 139.263 155.637 138.876C155.262 138.483 154.764 138.287 154.143 138.287C153.522 138.287 153.024 138.48 152.649 138.867C152.28 139.254 152.095 139.767 152.095 140.405C152.095 141.032 152.277 141.533 152.64 141.908C153.009 142.283 153.516 142.471 154.16 142.471C154.805 142.471 155.306 142.289 155.663 141.926C156.027 141.562 156.208 141.056 156.208 140.405ZM155.936 134.657C155.936 134.101 155.775 133.644 155.452 133.286C155.13 132.923 154.697 132.741 154.152 132.741C153.607 132.741 153.176 132.914 152.86 133.26C152.543 133.6 152.385 134.065 152.385 134.657C152.385 135.243 152.543 135.709 152.86 136.055C153.182 136.4 153.616 136.573 154.16 136.573C154.705 136.573 155.136 136.4 155.452 136.055C155.775 135.709 155.936 135.243 155.936 134.657ZM184.219 138.647C183.504 139.403 182.669 139.781 181.714 139.781C180.589 139.781 179.693 139.389 179.025 138.604C178.357 137.812 178.023 136.775 178.023 135.492C178.023 134.648 178.193 133.884 178.533 133.198C178.872 132.513 179.356 131.979 179.983 131.599C180.61 131.218 181.336 131.027 182.162 131.027C183.451 131.027 184.474 131.508 185.23 132.469C185.986 133.43 186.364 134.716 186.364 136.327V136.925C186.364 139.233 185.842 140.994 184.799 142.207C183.756 143.42 182.2 144.035 180.132 144.053H179.877V142.286H180.185C181.445 142.269 182.411 141.967 183.085 141.381C183.759 140.789 184.137 139.878 184.219 138.647ZM182.162 138.111C182.59 138.111 182.992 137.988 183.367 137.742C183.742 137.496 184.032 137.156 184.237 136.723V135.888C184.237 134.944 184.043 134.186 183.657 133.611C183.27 133.037 182.769 132.75 182.154 132.75C181.538 132.75 181.046 133.005 180.677 133.515C180.314 134.019 180.132 134.657 180.132 135.431C180.132 136.233 180.317 136.881 180.686 137.373C181.055 137.865 181.547 138.111 182.162 138.111ZM194.177 144H192.05V133.726L188.912 134.798V132.996L193.905 131.159H194.177V144ZM206.965 138.612C206.965 140.452 206.619 141.841 205.928 142.778C205.242 143.71 204.197 144.176 202.79 144.176C201.408 144.176 200.365 143.722 199.661 142.813C198.964 141.899 198.607 140.549 198.589 138.762V136.547C198.589 134.707 198.932 133.327 199.617 132.407C200.309 131.487 201.361 131.027 202.773 131.027C204.173 131.027 205.216 131.476 205.902 132.372C206.593 133.269 206.948 134.61 206.965 136.397V138.612ZM204.829 136.222C204.829 135.021 204.665 134.142 204.337 133.585C204.009 133.022 203.488 132.741 202.773 132.741C202.075 132.741 201.563 133.008 201.235 133.541C200.907 134.068 200.734 134.895 200.716 136.02V138.92C200.716 140.115 200.883 141.006 201.217 141.592C201.551 142.178 202.075 142.471 202.79 142.471C203.476 142.471 203.983 142.201 204.311 141.662C204.639 141.117 204.812 140.268 204.829 139.113V136.222ZM217.196 138.612C217.196 140.452 216.85 141.841 216.158 142.778C215.473 143.71 214.427 144.176 213.021 144.176C211.638 144.176 210.595 143.722 209.892 142.813C209.195 141.899 208.837 140.549 208.82 138.762V136.547C208.82 134.707 209.162 133.327 209.848 132.407C210.539 131.487 211.591 131.027 213.003 131.027C214.404 131.027 215.447 131.476 216.132 132.372C216.824 133.269 217.178 134.61 217.196 136.397V138.612ZM215.06 136.222C215.06 135.021 214.896 134.142 214.568 133.585C214.24 133.022 213.718 132.741 213.003 132.741C212.306 132.741 211.793 133.008 211.465 133.541C211.137 134.068 210.964 134.895 210.947 136.02V138.92C210.947 140.115 211.114 141.006 211.448 141.592C211.782 142.178 212.306 142.471 213.021 142.471C213.706 142.471 214.213 142.201 214.541 141.662C214.869 141.117 215.042 140.268 215.06 139.113V136.222Z" fill="white"/>
<path fill-rule="evenodd" clip-rule="evenodd" d="M104.745 68.7511H99.2048V66.3847H130.764C135.183 66.3847 138.764 69.9664 138.764 74.3847V79.7946H113.214H112.745V76.7511C112.745 72.3329 109.163 68.7511 104.745 68.7511ZM96.4394 66.3847H65.6453C61.227 66.3847 57.6453 69.9664 57.6453 74.3847V79.7946H83.1952H83.6646V76.7511C83.6646 72.3329 87.2463 68.7511 91.6646 68.7511H96.4394V66.3847ZM112.745 93.9934V97.8257C112.745 102.244 109.163 105.826 104.745 105.826H99.2048V112.136H130.764C135.183 112.136 138.764 108.555 138.764 104.136V93.9934H113.214H112.745ZM97.2048 105.826H91.6646C87.2463 105.826 83.6646 102.244 83.6646 97.8257V93.9934H83.1952H57.6453V104.136C57.6453 108.555 61.227 112.136 65.6453 112.136H97.2048V105.826ZM138.764 91.9934V81.7946H113.214V91.9934H138.764ZM57.6453 91.9934H83.1952V81.7946H57.6453V91.9934ZM91.6646 70.7511H104.745C108.059 70.7511 110.745 73.4374 110.745 76.7511V97.8257C110.745 101.139 108.059 103.826 104.745 103.826H91.6646C88.3509 103.826 85.6646 101.139 85.6646 97.8257V76.7511C85.6646 73.4374 88.3509 70.7511 91.6646 70.7511Z" fill="#F8C401"/>
<path d="M332.192 46.3234V33.5265H336.577C338.025 33.5265 339.126 33.8166 339.882 34.3967C340.638 34.9767 341.016 35.841 341.016 36.9894C341.016 37.5754 340.858 38.1027 340.541 38.5715C340.225 39.0402 339.762 39.4035 339.153 39.6613C339.844 39.8488 340.377 40.2033 340.752 40.7248C341.133 41.2404 341.323 41.8615 341.323 42.5881C341.323 43.7892 340.937 44.7121 340.163 45.3566C339.396 46.0012 338.294 46.3234 336.859 46.3234H332.192ZM334.415 40.549V44.548H336.885C337.582 44.548 338.127 44.3752 338.52 44.0295C338.912 43.6838 339.109 43.2033 339.109 42.5881C339.109 41.258 338.429 40.5783 337.07 40.549H334.415ZM334.415 38.9142H336.595C337.286 38.9142 337.825 38.759 338.212 38.4484C338.605 38.132 338.801 37.6867 338.801 37.1125C338.801 36.4797 338.619 36.0226 338.256 35.7414C337.899 35.4601 337.339 35.3195 336.577 35.3195H334.415V38.9142ZM349.023 46.3234C348.929 46.1418 348.847 45.8459 348.777 45.4357C348.097 46.1447 347.265 46.4992 346.28 46.4992C345.325 46.4992 344.546 46.2267 343.943 45.6818C343.339 45.1369 343.037 44.4631 343.037 43.6603C343.037 42.6467 343.412 41.8703 344.162 41.3312C344.918 40.7863 345.996 40.5138 347.397 40.5138H348.706V39.8898C348.706 39.3976 348.569 39.0051 348.293 38.7121C348.018 38.4133 347.599 38.2638 347.036 38.2638C346.55 38.2638 346.152 38.3869 345.841 38.633C345.53 38.8732 345.375 39.1808 345.375 39.5558H343.239C343.239 39.0344 343.412 38.548 343.758 38.0969C344.104 37.6398 344.572 37.2824 345.164 37.0246C345.762 36.7668 346.427 36.6379 347.159 36.6379C348.273 36.6379 349.16 36.9191 349.822 37.4816C350.485 38.0383 350.824 38.8234 350.842 39.8371V44.1262C350.842 44.9816 350.962 45.6642 351.202 46.174V46.3234H349.023ZM346.676 44.7853C347.098 44.7853 347.493 44.6828 347.862 44.4777C348.237 44.2726 348.519 43.9972 348.706 43.6515V41.8586H347.555C346.764 41.8586 346.169 41.9963 345.771 42.2717C345.372 42.5471 345.173 42.9367 345.173 43.4406C345.173 43.8508 345.308 44.1789 345.577 44.425C345.853 44.6652 346.219 44.7853 346.676 44.7853ZM355.061 36.8137L355.122 37.9123C355.825 37.0627 356.748 36.6379 357.891 36.6379C359.871 36.6379 360.879 37.7717 360.914 40.0392V46.3234H358.778V40.1623C358.778 39.5588 358.647 39.1135 358.383 38.8263C358.125 38.5334 357.7 38.3869 357.109 38.3869C356.247 38.3869 355.606 38.7765 355.184 39.5558V46.3234H353.048V36.8137H355.061ZM366.188 42.2453L365.238 43.2209V46.3234H363.103V32.8234H365.238V40.6105L365.906 39.7756L368.534 36.8137H371.101L367.568 40.7775L371.479 46.3234H369.009L366.188 42.2453Z" fill="white"/>
<path d="M68.5787 42.834C68.4498 44.1992 67.9459 45.2656 67.067 46.0332C66.188 46.7949 65.0191 47.1758 63.5601 47.1758C62.5406 47.1758 61.6412 46.9355 60.8619 46.4551C60.0884 45.9688 59.4908 45.2803 59.0689 44.3896C58.647 43.499 58.4273 42.4648 58.4097 41.2871V40.0918C58.4097 38.8848 58.6236 37.8213 59.0513 36.9014C59.4791 35.9814 60.0914 35.2725 60.8882 34.7744C61.691 34.2764 62.6168 34.0273 63.6656 34.0273C65.0777 34.0273 66.2144 34.4111 67.0757 35.1787C67.9371 35.9463 68.438 37.0303 68.5787 38.4307H66.3638C66.2584 37.5107 65.9888 36.8486 65.5552 36.4443C65.1275 36.0342 64.4976 35.8291 63.6656 35.8291C62.6988 35.8291 61.9546 36.1836 61.4332 36.8926C60.9175 37.5957 60.6539 38.6299 60.6421 39.9951V41.1289C60.6421 42.5117 60.8882 43.5664 61.3804 44.293C61.8785 45.0195 62.605 45.3828 63.5601 45.3828C64.4332 45.3828 65.0894 45.1865 65.5289 44.7939C65.9683 44.4014 66.2466 43.748 66.3638 42.834H68.5787ZM75.3462 39.4414C75.065 39.3945 74.775 39.3711 74.4761 39.3711C73.4976 39.3711 72.8384 39.7461 72.4986 40.4961V47H70.3629V37.4902H72.4019L72.4546 38.5537C72.9703 37.7275 73.6851 37.3145 74.5992 37.3145C74.9039 37.3145 75.1558 37.3555 75.355 37.4375L75.3462 39.4414ZM80.7076 47.1758C79.3541 47.1758 78.2554 46.751 77.4117 45.9014C76.5738 45.0459 76.1548 43.9092 76.1548 42.4912V42.2275C76.1548 41.2783 76.3365 40.4316 76.6998 39.6875C77.0689 38.9375 77.5845 38.3545 78.2466 37.9385C78.9087 37.5225 79.647 37.3145 80.4615 37.3145C81.7564 37.3145 82.7554 37.7275 83.4586 38.5537C84.1675 39.3799 84.522 40.5488 84.522 42.0605V42.9219H78.3082C78.3726 43.707 78.6334 44.3281 79.0904 44.7852C79.5533 45.2422 80.1334 45.4707 80.8306 45.4707C81.8091 45.4707 82.606 45.0752 83.2212 44.2842L84.3726 45.3828C83.9918 45.9512 83.482 46.3936 82.8433 46.71C82.2105 47.0205 81.4986 47.1758 80.7076 47.1758ZM80.4527 39.0283C79.8668 39.0283 79.3921 39.2334 79.0289 39.6436C78.6714 40.0537 78.4429 40.625 78.3433 41.3574H82.4127V41.1992C82.3658 40.4844 82.1754 39.9453 81.8414 39.582C81.5074 39.2129 81.0445 39.0283 80.4527 39.0283ZM85.7877 42.1748C85.7877 40.71 86.1275 39.5352 86.8072 38.6504C87.4869 37.7598 88.398 37.3145 89.5406 37.3145C90.5484 37.3145 91.3629 37.666 91.9839 38.3691V33.5H94.1197V47H92.1861L92.0806 46.0156C91.442 46.7891 90.5894 47.1758 89.523 47.1758C88.4097 47.1758 87.5074 46.7275 86.816 45.8311C86.1304 44.9346 85.7877 43.7158 85.7877 42.1748ZM87.9234 42.3594C87.9234 43.3262 88.108 44.082 88.4771 44.627C88.8521 45.166 89.3824 45.4355 90.0679 45.4355C90.941 45.4355 91.5796 45.0459 91.9839 44.2666V40.2061C91.5914 39.4443 90.9586 39.0635 90.0855 39.0635C89.3941 39.0635 88.8609 39.3389 88.4859 39.8896C88.1109 40.4346 87.9234 41.2578 87.9234 42.3594ZM98.6197 47H96.4839V37.4902H98.6197V47ZM96.3521 35.0205C96.3521 34.6924 96.4546 34.4199 96.6597 34.2031C96.8707 33.9863 97.1695 33.8779 97.5562 33.8779C97.9429 33.8779 98.2418 33.9863 98.4527 34.2031C98.6636 34.4199 98.7691 34.6924 98.7691 35.0205C98.7691 35.3428 98.6636 35.6123 98.4527 35.8291C98.2418 36.04 97.9429 36.1455 97.5562 36.1455C97.1695 36.1455 96.8707 36.04 96.6597 35.8291C96.4546 35.6123 96.3521 35.3428 96.3521 35.0205ZM103.629 35.1787V37.4902H105.308V39.0723H103.629V44.3809C103.629 44.7441 103.7 45.0078 103.84 45.1719C103.987 45.3301 104.245 45.4092 104.614 45.4092C104.86 45.4092 105.109 45.3799 105.361 45.3213V46.9736C104.875 47.1084 104.406 47.1758 103.955 47.1758C102.314 47.1758 101.494 46.2705 101.494 44.46V39.0723H99.9293V37.4902H101.494V35.1787H103.629ZM121.401 42.834C121.272 44.1992 120.768 45.2656 119.889 46.0332C119.01 46.7949 117.841 47.1758 116.382 47.1758C115.363 47.1758 114.463 46.9355 113.684 46.4551C112.911 45.9688 112.313 45.2803 111.891 44.3896C111.469 43.499 111.25 42.4648 111.232 41.2871V40.0918C111.232 38.8848 111.446 37.8213 111.874 36.9014C112.301 35.9814 112.914 35.2725 113.711 34.7744C114.513 34.2764 115.439 34.0273 116.488 34.0273C117.9 34.0273 119.037 34.4111 119.898 35.1787C120.759 35.9463 121.26 37.0303 121.401 38.4307H119.186C119.081 37.5107 118.811 36.8486 118.377 36.4443C117.95 36.0342 117.32 35.8291 116.488 35.8291C115.521 35.8291 114.777 36.1836 114.255 36.8926C113.74 37.5957 113.476 38.6299 113.464 39.9951V41.1289C113.464 42.5117 113.711 43.5664 114.203 44.293C114.701 45.0195 115.427 45.3828 116.382 45.3828C117.255 45.3828 117.912 45.1865 118.351 44.7939C118.791 44.4014 119.069 43.748 119.186 42.834H121.401ZM128.872 47C128.778 46.8184 128.696 46.5225 128.626 46.1123C127.946 46.8213 127.114 47.1758 126.129 47.1758C125.174 47.1758 124.395 46.9033 123.792 46.3584C123.188 45.8135 122.886 45.1396 122.886 44.3369C122.886 43.3232 123.261 42.5469 124.011 42.0078C124.767 41.4629 125.845 41.1904 127.246 41.1904H128.555V40.5664C128.555 40.0742 128.418 39.6816 128.142 39.3887C127.867 39.0898 127.448 38.9404 126.885 38.9404C126.399 38.9404 126.001 39.0635 125.69 39.3096C125.379 39.5498 125.224 39.8574 125.224 40.2324H123.088C123.088 39.7109 123.261 39.2246 123.607 38.7734C123.953 38.3164 124.421 37.959 125.013 37.7012C125.611 37.4434 126.276 37.3145 127.008 37.3145C128.122 37.3145 129.009 37.5957 129.671 38.1582C130.334 38.7148 130.673 39.5 130.691 40.5137V44.8027C130.691 45.6582 130.811 46.3408 131.051 46.8506V47H128.872ZM126.525 45.4619C126.947 45.4619 127.342 45.3594 127.711 45.1543C128.086 44.9492 128.368 44.6738 128.555 44.3281V42.5352H127.404C126.613 42.5352 126.018 42.6729 125.62 42.9482C125.221 43.2236 125.022 43.6133 125.022 44.1172C125.022 44.5273 125.157 44.8555 125.426 45.1016C125.702 45.3418 126.068 45.4619 126.525 45.4619ZM137.907 39.4414C137.626 39.3945 137.336 39.3711 137.037 39.3711C136.058 39.3711 135.399 39.7461 135.059 40.4961V47H132.923V37.4902H134.962L135.015 38.5537C135.531 37.7275 136.246 37.3145 137.16 37.3145C137.464 37.3145 137.716 37.3555 137.916 37.4375L137.907 39.4414ZM138.68 42.1748C138.68 40.71 139.02 39.5352 139.7 38.6504C140.379 37.7598 141.291 37.3145 142.433 37.3145C143.441 37.3145 144.255 37.666 144.877 38.3691V33.5H147.012V47H145.079L144.973 46.0156C144.335 46.7891 143.482 47.1758 142.416 47.1758C141.302 47.1758 140.4 46.7275 139.709 45.8311C139.023 44.9346 138.68 43.7158 138.68 42.1748ZM140.816 42.3594C140.816 43.3262 141.001 44.082 141.37 44.627C141.745 45.166 142.275 45.4355 142.961 45.4355C143.834 45.4355 144.472 45.0459 144.877 44.2666V40.2061C144.484 39.4443 143.851 39.0635 142.978 39.0635C142.287 39.0635 141.753 39.3389 141.378 39.8896C141.003 40.4346 140.816 41.2578 140.816 42.3594Z" fill="white"/>
<path d="M72.553 171.959H74.2493V181.021C74.2493 182.245 73.8802 183.203 73.1419 183.895C72.4095 184.586 71.431 184.932 70.2064 184.932C68.9349 184.932 67.9446 184.606 67.2357 183.956C66.5267 183.306 66.1722 182.395 66.1722 181.223H67.8597C67.8597 181.955 68.0589 182.526 68.4573 182.937C68.8616 183.347 69.4446 183.552 70.2064 183.552C70.9036 183.552 71.4661 183.332 71.8939 182.893C72.3275 182.453 72.5472 181.838 72.553 181.047V171.959ZM76.4378 179.913C76.4378 178.981 76.6194 178.144 76.9827 177.399C77.3519 176.655 77.8616 176.081 78.512 175.677C79.1683 175.272 79.9153 175.07 80.7532 175.07C82.0482 175.07 83.0941 175.519 83.8909 176.415C84.6937 177.312 85.095 178.504 85.095 179.992V180.106C85.095 181.032 84.9163 181.864 84.5589 182.603C84.2073 183.335 83.7005 183.906 83.0384 184.316C82.3821 184.727 81.6263 184.932 80.7708 184.932C79.4818 184.932 78.4359 184.483 77.6331 183.587C76.8362 182.69 76.4378 181.504 76.4378 180.027V179.913ZM78.0726 180.106C78.0726 181.161 78.3157 182.008 78.8021 182.646C79.2943 183.285 79.9505 183.605 80.7708 183.605C81.597 183.605 82.2532 183.282 82.7396 182.638C83.2259 181.987 83.4691 181.079 83.4691 179.913C83.4691 178.87 83.22 178.026 82.722 177.382C82.2298 176.731 81.5736 176.406 80.7532 176.406C79.9505 176.406 79.303 176.726 78.8109 177.364C78.3187 178.003 78.0726 178.917 78.0726 180.106ZM88.7601 176.397C89.4808 175.513 90.4183 175.07 91.5726 175.07C93.5823 175.07 94.596 176.204 94.6136 178.472V184.756H92.9876V178.463C92.9818 177.777 92.8236 177.271 92.513 176.942C92.2083 176.614 91.7308 176.45 91.0804 176.45C90.553 176.45 90.0902 176.591 89.6917 176.872C89.2933 177.153 88.9827 177.522 88.7601 177.98V184.756H87.1341V171.256H88.7601V176.397ZM98.5862 175.246L98.639 176.441C99.3655 175.527 100.315 175.07 101.487 175.07C103.496 175.07 104.51 176.204 104.528 178.472V184.756H102.902V178.463C102.896 177.777 102.738 177.271 102.427 176.942C102.122 176.614 101.645 176.45 100.994 176.45C100.467 176.45 100.004 176.591 99.6058 176.872C99.2073 177.153 98.8968 177.522 98.6741 177.98V184.756H97.0482V175.246H98.5862ZM111.7 184.756V171.959H115.312C116.425 171.959 117.409 172.205 118.265 172.697C119.12 173.189 119.78 173.89 120.242 174.798C120.711 175.706 120.949 176.749 120.954 177.927V178.744C120.954 179.951 120.72 181.009 120.251 181.917C119.788 182.825 119.123 183.522 118.256 184.009C117.395 184.495 116.39 184.744 115.242 184.756H111.7ZM113.387 173.348V183.376H115.162C116.463 183.376 117.474 182.972 118.195 182.163C118.921 181.355 119.284 180.203 119.284 178.709V177.962C119.284 176.509 118.942 175.381 118.256 174.578C117.576 173.77 116.61 173.359 115.356 173.348H113.387ZM122.826 179.913C122.826 178.981 123.008 178.144 123.371 177.399C123.741 176.655 124.25 176.081 124.901 175.677C125.557 175.272 126.304 175.07 127.142 175.07C128.437 175.07 129.483 175.519 130.28 176.415C131.082 177.312 131.484 178.504 131.484 179.992V180.106C131.484 181.032 131.305 181.864 130.948 182.603C130.596 183.335 130.089 183.906 129.427 184.316C128.771 184.727 128.015 184.932 127.159 184.932C125.87 184.932 124.825 184.483 124.022 183.587C123.225 182.69 122.826 181.504 122.826 180.027V179.913ZM124.461 180.106C124.461 181.161 124.704 182.008 125.191 182.646C125.683 183.285 126.339 183.605 127.159 183.605C127.986 183.605 128.642 183.282 129.128 182.638C129.615 181.987 129.858 181.079 129.858 179.913C129.858 178.87 129.609 178.026 129.111 177.382C128.618 176.731 127.962 176.406 127.142 176.406C126.339 176.406 125.692 176.726 125.2 177.364C124.707 178.003 124.461 178.917 124.461 180.106ZM137.469 184.932C136.18 184.932 135.131 184.51 134.323 183.666C133.514 182.816 133.11 181.683 133.11 180.265V179.966C133.11 179.022 133.288 178.182 133.646 177.443C134.009 176.699 134.513 176.119 135.158 175.703C135.808 175.281 136.511 175.07 137.267 175.07C138.503 175.07 139.464 175.478 140.15 176.292C140.835 177.106 141.178 178.272 141.178 179.79V180.467H134.736C134.759 181.404 135.032 182.163 135.553 182.743C136.08 183.317 136.748 183.605 137.557 183.605C138.131 183.605 138.617 183.487 139.016 183.253C139.414 183.019 139.763 182.708 140.062 182.321L141.055 183.095C140.258 184.319 139.063 184.932 137.469 184.932ZM137.267 176.406C136.611 176.406 136.06 176.646 135.615 177.127C135.169 177.602 134.894 178.27 134.788 179.131H139.552V179.008C139.505 178.182 139.283 177.543 138.884 177.092C138.486 176.635 137.947 176.406 137.267 176.406Z" fill="white"/>
<path d="M211.145 184.756H209.51V173.919L206.232 175.123V173.646L210.89 171.897H211.145V184.756ZM224.293 184.756H215.909V183.587L220.338 178.665C220.995 177.921 221.446 177.317 221.692 176.855C221.944 176.386 222.07 175.902 222.07 175.404C222.07 174.736 221.868 174.188 221.463 173.761C221.059 173.333 220.52 173.119 219.846 173.119C219.038 173.119 218.408 173.351 217.956 173.813C217.511 174.271 217.289 174.909 217.289 175.73H215.663C215.663 174.552 216.04 173.6 216.796 172.873C217.558 172.146 218.575 171.783 219.846 171.783C221.036 171.783 221.976 172.097 222.667 172.724C223.359 173.345 223.705 174.174 223.705 175.211C223.705 176.471 222.902 177.971 221.296 179.711L217.869 183.429H224.293V184.756ZM226.508 185.855H225.111L230.455 171.959H231.843L226.508 185.855ZM241.819 184.756H233.434V183.587L237.864 178.665C238.52 177.921 238.971 177.317 239.217 176.855C239.469 176.386 239.595 175.902 239.595 175.404C239.595 174.736 239.393 174.188 238.989 173.761C238.584 173.333 238.045 173.119 237.372 173.119C236.563 173.119 235.933 173.351 235.482 173.813C235.037 174.271 234.814 174.909 234.814 175.73H233.188C233.188 174.552 233.566 173.6 234.322 172.873C235.083 172.146 236.1 171.783 237.372 171.783C238.561 171.783 239.501 172.097 240.193 172.724C240.884 173.345 241.23 174.174 241.23 175.211C241.23 176.471 240.427 177.971 238.822 179.711L235.394 183.429H241.819V184.756ZM244.289 178.34L244.939 171.959H251.496V173.462H246.319L245.932 176.951C246.559 176.582 247.271 176.397 248.068 176.397C249.234 176.397 250.16 176.784 250.845 177.558C251.531 178.325 251.873 179.365 251.873 180.678C251.873 181.996 251.516 183.036 250.801 183.798C250.092 184.554 249.099 184.932 247.822 184.932C246.691 184.932 245.768 184.618 245.053 183.991C244.338 183.364 243.931 182.497 243.831 181.39H245.37C245.469 182.122 245.73 182.676 246.152 183.051C246.574 183.42 247.13 183.605 247.822 183.605C248.578 183.605 249.169 183.347 249.597 182.831C250.031 182.315 250.247 181.604 250.247 180.695C250.247 179.84 250.013 179.154 249.544 178.639C249.081 178.117 248.463 177.856 247.69 177.856C246.981 177.856 246.424 178.012 246.02 178.322L245.589 178.674L244.289 178.34Z" fill="white"/>
<ellipse cx="328.747" cy="188.398" rx="20.4523" ry="21.0816" fill="#F15A24"/>
<ellipse cx="351.376" cy="188.398" rx="20.4523" ry="21.0816" fill="#FBB03B"/>
</svg>
