<svg width="100" height="100" viewBox="0 0 100 100" fill="none" xmlns="http://www.w3.org/2000/svg">
<path d="M98.369 48.1815C96.9149 45.8225 94.6891 44.2244 92.1014 43.6812C89.5135 43.1377 86.8905 43.7181 84.7153 45.3146L68.2065 57.4235C66.692 54.9372 64.0756 53.2896 61.1057 53.2896H50.6455C48.8746 51.4336 44.9106 48.5348 37.427 48.5348C27.8934 48.5348 23.7969 52.8629 22.967 53.8792L19.6496 57.5159L17.869 53.8581L0 63.8625L17.2635 99.3243L35.1322 89.3199L33.2824 85.5205H65.7735L95.895 62.4753C100.195 59.1853 101.281 52.9069 98.369 48.1815ZM19.7506 90.8286L7.92188 66.53L15.3818 62.3533L27.2106 86.652L19.7506 90.8286ZM92.4854 57.3494L63.8942 79.2237H30.2176L22.5078 63.3864L27.2324 58.2069L27.2977 58.1627L27.4076 57.9995C27.7162 57.6489 30.416 54.8312 37.427 54.8312C44.2072 54.8312 46.5719 57.7687 46.8574 58.161L47.5961 59.5858H61.1057C62.5428 59.5858 63.7119 60.8396 63.7119 62.3808C63.7119 63.922 62.5428 65.1758 61.1057 65.1758H43.4727V71.4724H61.1057C65.2117 71.4724 68.6442 68.3255 69.4188 64.1627L88.0303 50.5117C88.8973 49.8752 89.9432 49.6446 90.9737 49.8605C92.0047 50.0769 92.8918 50.7139 93.4711 51.6537C94.6315 53.5365 94.1989 56.0383 92.4854 57.3494Z" fill="#4260FB"/>
<path d="M73.7487 0H31.6637C27.7371 0 24.5424 3.42593 24.5424 7.63713V34.4197C24.5424 38.6309 27.7369 42.0569 31.6637 42.0569H73.7489C77.6754 42.0569 80.8699 38.6309 80.8699 34.4197V7.63713C80.8699 3.42614 77.6754 0 73.7487 0ZM74.9987 34.4197C74.9985 35.1589 74.4379 35.7605 73.7487 35.7605H31.6637C30.9744 35.7605 30.4135 35.1593 30.4135 34.4197V19.4718H74.9987V34.4197ZM74.9987 13.1755H30.4135V7.63734C30.4135 6.89815 30.974 6.29658 31.6637 6.29658H73.7489C74.4379 6.29658 74.9988 6.89815 74.9988 7.63734V13.1755H74.9987Z" fill="#4260FB"/>
<path d="M43.1346 25.6626H33.936V31.9584H43.1346V25.6626Z" fill="#4260FB"/>
</svg>
