<svg width="527" height="397" viewBox="0 0 527 397" fill="none" xmlns="http://www.w3.org/2000/svg">
<path d="M256.267 362.487L28.985 228.234C21.7519 224.179 15.5465 217.502 22.5951 213.143L250.707 81.7484C254.133 79.6283 259.324 78.2456 262.802 80.2604L501.361 218.648C508.595 222.848 509.899 234.582 502.679 238.782L286.227 362.263C281.683 364.9 276.53 366.307 271.277 366.347C266.023 366.386 260.849 365.056 256.267 362.487Z" fill="#FFDAAE"/>
<path opacity="0.32" d="M76.6258 243.457C81.4083 244.919 86.2172 246.367 91.1183 247.408C94.1199 247.94 97.1515 248.288 100.196 248.448L253.026 344.328L343.591 287.98L126.019 189.532L49.7224 231.974C57.6142 237.755 67.3769 240.639 76.6258 243.457Z" fill="url(#paint0_linear)"/>
<path d="M89.5109 208.943L164.477 165.078C166.828 163.703 169.499 162.97 172.223 162.951C174.946 162.933 177.627 163.63 179.997 164.973L313.565 240.758C315.153 241.686 316.47 243.014 317.385 244.609C318.301 246.205 318.782 248.012 318.782 249.85C318.782 251.689 318.301 253.496 317.385 255.091C316.47 256.687 315.153 258.015 313.565 258.943L240.312 300.951C236.81 302.96 232.839 304.007 228.801 303.986C224.763 303.966 220.803 302.877 217.322 300.832L89.4319 225.772C87.9619 224.909 86.7443 223.676 85.9008 222.195C85.0574 220.714 84.6177 219.038 84.6257 217.335C84.6337 215.631 85.0891 213.959 85.9465 212.486C86.8038 211.013 88.0329 209.792 89.5109 208.943Z" fill="#68E1FD"/>
<path opacity="0.33" d="M89.5109 208.943L164.477 165.078C166.828 163.703 169.499 162.97 172.223 162.951C174.946 162.933 177.627 163.63 179.997 164.973L313.565 240.758C315.153 241.686 316.47 243.014 317.385 244.609C318.301 246.205 318.782 248.012 318.782 249.85C318.782 251.689 318.301 253.496 317.385 255.091C316.47 256.687 315.153 258.015 313.565 258.943L240.312 300.951C236.81 302.96 232.839 304.007 228.801 303.986C224.763 303.966 220.803 302.877 217.322 300.832L89.4319 225.772C87.9619 224.909 86.7443 223.676 85.9008 222.195C85.0574 220.714 84.6177 219.038 84.6257 217.335C84.6337 215.631 85.0891 213.959 85.9465 212.486C86.8038 211.013 88.0329 209.792 89.5109 208.943Z" fill="#1E4549"/>
<path d="M88.8786 204.018L163.844 160.153C166.195 158.778 168.866 158.045 171.59 158.026C174.314 158.008 176.995 158.705 179.364 160.048L312.946 235.819C314.534 236.748 315.851 238.076 316.766 239.671C317.682 241.266 318.163 243.073 318.163 244.912C318.163 246.751 317.682 248.558 316.766 250.153C315.851 251.749 314.534 253.076 312.946 254.005L239.785 296.026C236.283 298.035 232.312 299.082 228.274 299.061C224.236 299.041 220.276 297.952 216.795 295.907L88.9049 220.847C87.4296 219.993 86.2043 218.768 85.3517 217.292C84.499 215.817 84.0488 214.144 84.0462 212.44C84.0435 210.736 84.4884 209.061 85.3365 207.583C86.1845 206.105 87.4059 204.876 88.8786 204.018Z" fill="#68E1FD"/>
<path d="M170.629 169.898L170.801 169.99C171.386 170.254 171.854 170.722 172.118 171.307C172.182 171.559 172.174 171.824 172.098 172.072C172.021 172.321 171.878 172.543 171.683 172.716L170.234 171.86C170.284 171.76 170.31 171.65 170.31 171.538C170.31 171.426 170.284 171.315 170.234 171.215C170.106 170.958 169.898 170.75 169.641 170.622H169.575C169.174 170.398 168.716 170.297 168.258 170.333C167.76 170.352 167.277 170.506 166.861 170.78C166.688 170.862 166.537 170.986 166.422 171.139C166.307 171.293 166.232 171.473 166.203 171.663C166.203 171.979 166.387 172.242 166.796 172.492C167.082 172.649 167.394 172.752 167.718 172.795C168.053 172.857 168.397 172.857 168.732 172.795L170.182 173.664C169.465 173.944 168.695 174.057 167.929 173.993C167.178 173.929 166.45 173.704 165.794 173.335L165.649 173.256C165.244 172.976 164.913 172.601 164.688 172.163C164.591 171.989 164.535 171.796 164.523 171.598C164.512 171.399 164.545 171.201 164.622 171.017C164.823 170.573 165.159 170.205 165.583 169.964C166.084 169.641 166.644 169.422 167.23 169.319C167.844 169.207 168.474 169.207 169.088 169.319C169.63 169.428 170.15 169.623 170.629 169.898Z" fill="white"/>
<path d="M175.781 176.114C175.268 176.138 174.756 176.053 174.279 175.863L173.686 177.918L172.171 177.022L172.816 175.086L172.5 174.902L170.643 176.114L169.325 175.297L174.253 172.097L176.545 173.48C176.914 173.673 177.234 173.948 177.48 174.283C177.562 174.393 177.617 174.521 177.639 174.656C177.662 174.791 177.653 174.929 177.612 175.06C177.506 175.342 177.306 175.579 177.046 175.732C176.663 175.964 176.228 176.096 175.781 176.114ZM175.57 174.942C175.768 174.81 175.86 174.678 175.847 174.533C175.834 174.389 175.689 174.231 175.425 174.072L174.569 173.572L173.317 174.375L174.173 174.876H174.266C174.466 174.993 174.692 175.061 174.924 175.073C175.155 175.077 175.381 175.008 175.57 174.876" fill="white"/>
<path d="M187.085 181.236C186.9 181.674 186.576 182.04 186.163 182.276C185.665 182.599 185.103 182.81 184.516 182.895C183.889 183.01 183.246 183.01 182.619 182.895C182.028 182.779 181.458 182.57 180.932 182.276L180.735 182.158L178.6 180.841L183.541 177.641L185.662 178.958C186.188 179.222 186.64 179.611 186.98 180.091C187.083 180.261 187.146 180.453 187.164 180.651C187.182 180.85 187.155 181.05 187.085 181.236ZM184.779 181.46C185.227 181.17 185.425 180.854 185.372 180.525C185.32 180.196 185.043 179.867 184.516 179.551L183.87 179.156L181.051 180.986L181.696 181.381H181.802C182.264 181.649 182.783 181.802 183.317 181.829C183.84 181.843 184.356 181.696 184.793 181.407" fill="white"/>
<path d="M179.285 175.113L182.803 177.207L181.854 177.826L179.707 176.535L178.666 177.22L180.576 178.352L179.681 178.932L177.77 177.799L176.677 178.51L178.811 179.788L177.862 180.407L174.358 178.313L179.285 175.113Z" fill="white"/>
<path d="M189.43 181.144L190.787 181.96L185.86 185.16L184.49 184.344L189.43 181.144Z" fill="white"/>
<path d="M191.367 182.303L195.794 184.936L194.832 185.542L193.304 184.634L189.312 187.215L187.941 186.398L191.933 183.817L190.418 182.922L191.367 182.303Z" fill="white"/>
<path d="M200.418 187.636L200.589 187.728C201.174 187.992 201.643 188.46 201.907 189.045C201.97 189.297 201.963 189.562 201.886 189.81C201.81 190.059 201.667 190.281 201.472 190.454L200.023 189.598C200.075 189.499 200.102 189.388 200.102 189.275C200.102 189.163 200.075 189.052 200.023 188.953C199.895 188.696 199.687 188.488 199.43 188.36H199.364C198.963 188.136 198.505 188.035 198.047 188.071C197.549 188.089 197.066 188.244 196.65 188.518C196.215 188.795 195.991 189.098 195.991 189.401C195.991 189.703 196.176 189.98 196.584 190.23C196.869 190.389 197.182 190.492 197.506 190.533C197.842 190.595 198.186 190.595 198.521 190.533L199.97 191.402C199.255 191.685 198.484 191.798 197.717 191.731C196.952 191.668 196.21 191.439 195.543 191.06H195.438C194.976 190.811 194.589 190.443 194.318 189.993C194.219 189.821 194.161 189.628 194.147 189.429C194.133 189.231 194.165 189.032 194.239 188.848C194.444 188.406 194.78 188.038 195.201 187.794C195.701 187.471 196.261 187.252 196.848 187.149C197.462 187.039 198.091 187.039 198.705 187.149C199.3 187.21 199.88 187.375 200.418 187.636Z" fill="white"/>
<path d="M207.19 191.771L204.357 196.182L202.908 195.313L203.462 194.523L201.34 193.206L200.023 193.588L198.587 192.732L205.556 190.783L207.19 191.771ZM202.605 192.877L204.015 193.72L205.122 192.113L202.605 192.864" fill="white"/>
<path d="M211.406 197.302C210.893 197.328 210.381 197.243 209.904 197.051L209.311 199.106L207.796 198.21L208.442 196.275L208.125 196.09L206.255 197.302L204.937 196.485L209.865 193.285L212.118 194.681C212.482 194.875 212.798 195.15 213.04 195.484C213.12 195.595 213.175 195.722 213.2 195.857C213.225 195.991 213.22 196.129 213.185 196.261C213.072 196.541 212.868 196.773 212.605 196.92C212.244 197.147 211.832 197.278 211.406 197.302ZM210.55 196.327C210.783 196.336 211.013 196.271 211.208 196.143C211.393 196.011 211.485 195.879 211.472 195.721C211.459 195.563 211.314 195.419 211.05 195.261L210.207 194.76L208.89 195.577L209.746 196.077C209.959 196.203 210.198 196.279 210.444 196.301" fill="white"/>
<path d="M218.455 199.817C218.271 200.264 217.941 200.635 217.519 200.87C217.02 201.191 216.459 201.402 215.872 201.489C215.249 201.602 214.611 201.602 213.988 201.489C213.374 201.368 212.782 201.15 212.236 200.844L212.091 200.765L209.97 199.448L214.897 196.248L217.032 197.565C217.557 197.829 218.01 198.218 218.349 198.698C218.448 198.865 218.509 199.052 218.527 199.245C218.546 199.439 218.521 199.634 218.455 199.817ZM216.149 200.041C216.588 199.751 216.786 199.439 216.742 199.106C216.742 198.763 216.413 198.447 215.886 198.131L215.227 197.749L212.407 199.58L213.066 199.962H213.172C213.634 200.23 214.153 200.383 214.687 200.409C215.21 200.423 215.725 200.276 216.162 199.988" fill="white"/>
<path d="M136.085 188.9L138.482 190.336L131.921 194.602L130.643 193.838L136.216 190.23L135.083 189.545L136.085 188.9Z" fill="white"/>
<path d="M143.383 193.101L143.515 193.18C144.24 193.615 144.648 194.062 144.727 194.497C144.806 194.931 144.543 195.392 143.95 195.814C143.354 196.167 142.689 196.387 142 196.459C141.127 196.58 140.245 196.62 139.365 196.577C138.483 196.539 137.603 196.451 136.73 196.314L140.287 198.434L139.418 199L134.148 195.893L134.925 195.392C136.51 195.611 138.108 195.721 139.708 195.721C140.698 195.789 141.689 195.593 142.58 195.155C142.714 195.091 142.832 194.995 142.921 194.876C143.011 194.757 143.07 194.618 143.094 194.47C143.094 194.233 142.896 193.983 142.474 193.733H142.395C141.996 193.503 141.537 193.397 141.078 193.43C140.574 193.47 140.086 193.628 139.655 193.891L138.482 193.193C139.243 192.744 140.116 192.52 140.999 192.548C141.828 192.528 142.648 192.718 143.383 193.101Z" fill="white"/>
<path d="M155.939 205.98L157.006 206.612L156.071 207.218L155.03 206.585L153.607 207.507L152.382 206.783L153.792 205.861L149.984 203.596L150.88 203.017L158.93 202.437L160.247 203.214L155.939 205.98ZM154.806 205.295L157.823 203.346L152.158 203.728L154.793 205.295" fill="white"/>
<path d="M150.617 197.302L150.775 197.394C151.185 197.616 151.54 197.926 151.816 198.302C151.909 198.427 151.973 198.571 152.003 198.724C152.033 198.877 152.027 199.034 151.987 199.185C151.881 199.5 151.66 199.763 151.368 199.922C150.943 200.208 150.444 200.363 149.932 200.37C149.371 200.384 148.815 200.262 148.311 200.014C148.638 200.303 148.861 200.692 148.943 201.121C148.943 201.463 148.737 201.779 148.324 202.069C147.734 202.438 147.043 202.614 146.348 202.569C145.586 202.532 144.845 202.31 144.187 201.924L144.029 201.832C143.383 201.531 142.879 200.994 142.619 200.33C142.488 199.804 142.734 199.295 143.357 198.803L144.556 199.514C144.417 199.604 144.304 199.729 144.229 199.877C144.155 200.026 144.122 200.191 144.135 200.357C144.135 200.66 144.424 200.936 144.872 201.213H144.965C145.318 201.417 145.716 201.53 146.124 201.542C146.505 201.552 146.88 201.451 147.204 201.252C147.56 201.015 147.679 200.725 147.56 200.409C147.298 199.966 146.908 199.612 146.44 199.395L146.15 199.224L147.033 198.658L147.323 198.829L147.56 198.974C147.916 199.245 148.341 199.409 148.786 199.449C149.231 199.488 149.679 199.401 150.076 199.198C150.38 199 150.511 198.79 150.472 198.553C150.422 198.401 150.342 198.262 150.235 198.144C150.128 198.026 149.998 197.932 149.853 197.868H149.76C149.417 197.675 149.034 197.567 148.64 197.552C148.184 197.533 147.729 197.632 147.323 197.842L146.137 197.131C146.816 196.739 147.594 196.551 148.377 196.591C149.169 196.647 149.937 196.89 150.617 197.302Z" fill="white"/>
<path d="M180.05 218.542C180.05 219.043 179.747 219.517 179.048 219.978C178.621 220.256 178.141 220.444 177.639 220.531C177.094 220.634 176.536 220.634 175.992 220.531C175.455 220.439 174.938 220.257 174.463 219.991L174.279 219.886C173.185 219.24 172.737 218.569 172.961 217.989C173.335 217.152 173.98 216.465 174.793 216.04C175.777 215.358 176.903 214.907 178.086 214.724C179.08 214.611 180.083 214.824 180.945 215.329L181.104 215.421C181.828 215.856 182.223 216.317 182.25 216.738C182.247 217 182.179 217.258 182.053 217.487C181.926 217.717 181.745 217.912 181.525 218.055L180.379 217.37C180.985 216.817 180.906 216.33 180.168 215.882H180.102C179.581 215.593 178.98 215.482 178.389 215.566C177.61 215.703 176.872 216.014 176.229 216.475L175.926 216.686C176.405 216.526 176.917 216.49 177.415 216.58C177.919 216.655 178.405 216.82 178.851 217.068H178.956C179.65 217.55 180.014 218.042 180.05 218.542ZM177.915 219.293C178.363 219.003 178.561 218.714 178.534 218.398C178.508 218.082 178.245 217.792 177.783 217.515H177.704C177.298 217.293 176.849 217.159 176.387 217.12C175.898 217.07 175.406 217.186 174.99 217.449C174.82 217.533 174.675 217.66 174.569 217.817C174.463 217.974 174.399 218.156 174.384 218.345C174.384 218.678 174.648 219.003 175.175 219.319H175.254C175.657 219.547 176.109 219.674 176.571 219.688C177.039 219.695 177.498 219.562 177.889 219.306" fill="white"/>
<path d="M170.722 209.39L175.557 212.274L174.608 212.88L170.893 210.668L168.943 211.985C169.343 211.966 169.743 212.011 170.129 212.116C170.519 212.218 170.895 212.369 171.249 212.564H171.328C171.751 212.787 172.102 213.125 172.342 213.538C172.416 213.688 172.455 213.852 172.455 214.019C172.455 214.186 172.416 214.35 172.342 214.5C172.145 214.849 171.859 215.14 171.512 215.342C170.817 215.79 170.007 216.028 169.18 216.027C168.343 216.035 167.519 215.817 166.795 215.395L166.624 215.29C166.008 214.985 165.535 214.451 165.307 213.802C165.251 213.524 165.286 213.236 165.407 212.979C165.528 212.723 165.728 212.513 165.979 212.38L167.178 213.091C167.059 213.183 166.967 213.304 166.909 213.442C166.851 213.581 166.83 213.732 166.848 213.881C166.904 214.046 166.992 214.199 167.107 214.33C167.223 214.461 167.363 214.568 167.52 214.645H167.599C168.019 214.888 168.497 215.011 168.983 215C169.453 214.968 169.908 214.814 170.3 214.552C170.695 214.289 170.893 214.026 170.867 213.723C170.84 213.42 170.603 213.143 170.142 212.867H170.076C169.774 212.693 169.444 212.573 169.101 212.511C168.761 212.45 168.413 212.45 168.073 212.511L166.901 211.813L170.722 209.39Z" fill="white"/>
<path d="M193.673 227.734C193.635 227.926 193.555 228.107 193.439 228.264C193.323 228.421 193.173 228.55 193.001 228.643C192.326 229.066 191.525 229.243 190.735 229.143C189.886 229.063 189.063 228.803 188.323 228.379L188.165 228.287C187.496 227.968 186.967 227.415 186.677 226.733C186.518 226.193 186.756 225.719 187.401 225.311C187.83 225.031 188.326 224.872 188.837 224.85C189.423 224.823 190.009 224.908 190.563 225.1C190.431 224.984 190.327 224.84 190.259 224.678C190.191 224.516 190.16 224.341 190.168 224.165C190.204 223.995 190.277 223.835 190.381 223.696C190.486 223.557 190.62 223.443 190.774 223.362C191.132 223.137 191.539 223.002 191.96 222.967C192.471 222.909 192.989 222.945 193.488 223.072C194.014 223.199 194.519 223.399 194.99 223.665L195.161 223.757C195.621 224 196.022 224.342 196.334 224.758C196.444 224.883 196.525 225.032 196.568 225.194C196.612 225.355 196.619 225.524 196.587 225.688C196.555 225.852 196.486 226.007 196.385 226.14C196.284 226.273 196.154 226.382 196.005 226.457C195.629 226.696 195.198 226.837 194.753 226.865C194.235 226.892 193.716 226.821 193.225 226.654C193.377 226.788 193.497 226.954 193.575 227.142C193.653 227.329 193.686 227.532 193.673 227.734ZM191.854 227.892C192.25 227.642 192.381 227.365 192.276 227.062C192.09 226.677 191.779 226.366 191.393 226.18H191.288C190.882 225.949 190.434 225.801 189.97 225.746C189.511 225.689 189.046 225.791 188.653 226.035C188.284 226.285 188.139 226.562 188.205 226.865C188.361 227.268 188.668 227.594 189.061 227.773H189.167C189.594 228.021 190.071 228.17 190.563 228.208C191.026 228.256 191.49 228.144 191.881 227.892H191.854ZM191.881 224.179C191.551 224.402 191.42 224.639 191.485 224.903C191.623 225.254 191.893 225.537 192.236 225.693H192.342C192.709 225.903 193.119 226.029 193.541 226.062C193.947 226.103 194.356 226.006 194.7 225.785C195.03 225.561 195.161 225.324 195.095 225.048C194.952 224.7 194.684 224.419 194.344 224.258H194.239C193.872 224.047 193.462 223.921 193.04 223.889C192.629 223.848 192.217 223.946 191.868 224.165" fill="white"/>
<path d="M185.28 218.147L190.247 221.097L189.443 221.624L180.84 223.718L179.575 222.954L188.099 220.965L184.371 218.74L185.28 218.147Z" fill="white"/>
<path d="M222.947 241.6C222.599 242.449 221.959 243.144 221.142 243.562C220.213 244.191 219.155 244.605 218.046 244.774C217.05 244.897 216.04 244.689 215.174 244.181L215.016 244.089C214.015 243.497 213.606 242.878 213.778 242.246C214.134 241.395 214.778 240.697 215.596 240.27C216.518 239.638 217.572 239.223 218.679 239.059C219.672 238.942 220.677 239.155 221.538 239.665L221.696 239.757C222.657 240.336 223.119 240.955 222.947 241.6ZM219.93 242.838C220.497 242.521 220.977 242.068 221.327 241.521C221.524 241.126 221.327 240.758 220.694 240.402H220.589C220.07 240.093 219.454 239.989 218.863 240.112C218.132 240.292 217.439 240.604 216.821 241.034C216.245 241.348 215.756 241.801 215.398 242.351C215.2 242.746 215.398 243.115 216.044 243.483H216.11C216.643 243.806 217.278 243.914 217.888 243.786C218.622 243.595 219.317 243.279 219.943 242.851" fill="white"/>
<path d="M214.094 235.332L216.505 236.768L209.93 241.034L208.652 240.27L214.226 236.649L213.106 235.991L214.094 235.332Z" fill="white"/>
<path d="M211.077 234.371C210.713 235.199 210.076 235.878 209.272 236.293C208.289 236.961 207.175 237.41 206.004 237.61C205.023 237.742 204.026 237.543 203.172 237.044L203.027 236.965C202.289 236.531 201.881 236.056 201.828 235.569C201.823 235.31 201.883 235.054 202.003 234.824C202.123 234.594 202.298 234.397 202.513 234.252L203.659 234.937C203.534 235.024 203.433 235.14 203.364 235.276C203.295 235.412 203.261 235.562 203.264 235.714C203.303 235.876 203.379 236.028 203.487 236.156C203.594 236.284 203.73 236.385 203.883 236.452H203.949C204.464 236.745 205.063 236.856 205.649 236.768C206.433 236.633 207.176 236.322 207.823 235.859L208.139 235.648C207.649 235.8 207.13 235.836 206.624 235.754C206.12 235.677 205.634 235.512 205.188 235.266H205.082C204.344 234.827 203.958 234.358 203.923 233.857C203.923 233.357 204.226 232.883 204.911 232.435C205.344 232.155 205.827 231.963 206.334 231.869C206.883 231.771 207.445 231.771 207.994 231.869C208.526 231.969 209.038 232.155 209.509 232.422L209.693 232.527C210.8 233.12 211.248 233.752 211.077 234.371ZM208.995 234.963C209.165 234.88 209.31 234.753 209.417 234.596C209.523 234.439 209.586 234.257 209.601 234.068C209.601 233.739 209.338 233.41 208.811 233.094H208.732C208.328 232.869 207.876 232.747 207.414 232.738C206.945 232.735 206.486 232.873 206.097 233.133C205.649 233.423 205.451 233.712 205.477 234.029C205.504 234.345 205.754 234.634 206.215 234.911H206.281C206.542 235.053 206.822 235.159 207.111 235.227C207.447 235.282 207.79 235.282 208.126 235.227C208.45 235.2 208.763 235.091 209.035 234.911" fill="white"/>
<path d="M230.628 246.17C230.281 247.019 229.641 247.715 228.823 248.132C227.898 248.768 226.839 249.182 225.727 249.343C224.744 249.462 223.748 249.253 222.895 248.751L222.71 248.646C221.722 248.053 221.301 247.447 221.459 246.802C221.819 245.949 222.467 245.25 223.29 244.827C224.214 244.196 225.267 243.782 226.373 243.615C227.371 243.499 228.379 243.712 229.245 244.221L229.403 244.313C230.396 244.919 230.804 245.538 230.628 246.17ZM227.611 247.408C228.186 247.096 228.671 246.643 229.021 246.091C229.192 245.696 229.021 245.327 228.389 244.971H228.31C227.781 244.649 227.152 244.537 226.544 244.655C225.815 244.84 225.123 245.152 224.502 245.577C223.928 245.894 223.44 246.346 223.079 246.894C222.895 247.276 223.079 247.658 223.725 248.027H223.83C224.348 248.338 224.965 248.442 225.556 248.316C226.292 248.131 226.988 247.814 227.611 247.381" fill="white"/>
<path d="M141.183 209.43L138.087 214.302L137.007 213.657L137.718 212.603L135.083 211.023L133.41 211.51L132.33 210.865L140.024 208.745L141.183 209.43ZM136.045 210.747L138.127 211.985L139.655 209.693L136.058 210.733" fill="white"/>
<path d="M133.173 204.557L137.244 206.967L136.546 207.428L129.484 208.271L132.527 210.088L131.803 210.549L127.653 208.073L128.325 207.626L135.373 206.757L132.461 205.018L133.173 204.557Z" fill="white"/>
<path d="M131.118 203.333L132.132 203.925L126.651 207.481L125.65 206.888L131.118 203.333Z" fill="white"/>
<path d="M127.165 200.976L128.166 201.568L123.384 204.676L125.545 205.967L124.86 206.414L121.684 204.531L127.165 200.976Z" fill="white"/>
<path d="M122.593 198.25L126.177 200.383L125.452 200.857L122.883 199.316L121.223 200.396L123.542 201.766L122.857 202.214L120.538 200.844L118.838 201.937L121.421 203.465L120.696 203.939L117.113 201.805L122.593 198.25Z" fill="white"/>
<path d="M159.154 220.017L160.155 220.61L157.863 222.098L160.814 223.862L163.107 222.374L164.121 222.967L158.64 226.522L157.626 225.917L160.089 224.323L157.138 222.572L154.688 224.165L153.673 223.56L159.154 220.017Z" fill="white"/>
<path d="M153.897 216.883L158.39 219.57L157.692 220.03L155.939 218.99L151.17 222.072L150.156 221.466L154.912 218.371L153.173 217.344L153.897 216.883Z" fill="white"/>
<path d="M149.8 214.447L153.383 216.58L152.672 217.041L150.103 215.514L148.443 216.593L150.748 217.963L150.063 218.411L147.758 217.028L146.058 218.134L148.627 219.675L147.903 220.136L144.332 218.003L149.8 214.447Z" fill="white"/>
<path d="M145.373 215.698C145.359 215.858 145.305 216.013 145.215 216.146C145.125 216.28 145.003 216.389 144.859 216.462C144.383 216.76 143.825 216.898 143.265 216.857C142.646 216.808 142.047 216.619 141.513 216.304L141.355 216.212L138.865 214.724L144.345 211.168L146.783 212.617C147.265 212.836 147.649 213.225 147.863 213.71C147.955 214.078 147.784 214.394 147.362 214.671C147.015 214.891 146.614 215.014 146.203 215.026C145.776 215.043 145.35 214.972 144.951 214.816C145.089 214.917 145.199 215.05 145.272 215.204C145.346 215.358 145.38 215.528 145.373 215.698ZM143.937 215.777C144.214 215.606 144.319 215.395 144.266 215.171C144.136 214.867 143.896 214.622 143.594 214.487L142.277 213.736L140.538 214.868L141.855 215.632C142.177 215.823 142.537 215.94 142.909 215.975C143.241 216.006 143.575 215.928 143.858 215.751L143.937 215.777ZM144.543 212.235L142.909 213.288L144.161 214.026H144.253C144.535 214.19 144.85 214.289 145.175 214.315C145.49 214.337 145.804 214.258 146.071 214.091C146.175 214.043 146.26 213.964 146.317 213.865C146.374 213.766 146.398 213.652 146.387 213.538C146.387 213.341 146.124 213.117 145.755 212.893L144.543 212.169" fill="white"/>
<path d="M201.301 245.103L203.303 246.302L197.836 249.857L196.769 249.212L201.419 246.209L200.471 245.643L201.301 245.103Z" fill="white"/>
<path d="M213.185 249.883L214.173 250.476L203.066 254.663L202.091 254.084L213.185 249.883Z" fill="white"/>
<path d="M214.924 253.083H215.016C215.622 253.452 215.951 253.821 216.017 254.203C216.083 254.584 215.859 254.953 215.372 255.269C214.872 255.563 214.315 255.747 213.738 255.809C213.013 255.908 212.281 255.939 211.551 255.901C210.801 255.872 210.053 255.797 209.311 255.677L212.289 257.442L211.564 257.903L207.229 255.269L207.888 254.848C209.198 255.029 210.519 255.122 211.841 255.124C212.668 255.179 213.495 255.016 214.239 254.65C214.515 254.466 214.673 254.282 214.673 254.084C214.673 253.887 214.515 253.676 214.16 253.465H214.081C213.764 253.288 213.402 253.205 213.04 253.228C212.624 253.261 212.222 253.392 211.867 253.61L210.892 253.031C211.521 252.657 212.243 252.47 212.974 252.491C213.662 252.526 214.332 252.73 214.924 253.083Z" fill="white"/>
<path d="M206.505 248.079L206.624 248.145C207.23 248.514 207.559 248.883 207.625 249.264C207.691 249.646 207.48 250.015 206.979 250.331C206.48 250.626 205.923 250.81 205.346 250.871C204.621 250.97 203.889 251.001 203.159 250.963C202.413 250.935 201.67 250.864 200.932 250.752L203.896 252.517L203.185 252.978L198.824 250.344L199.483 249.923C200.792 250.104 202.113 250.196 203.435 250.199C204.262 250.254 205.089 250.091 205.833 249.725C206.123 249.541 206.268 249.357 206.268 249.146C206.268 248.935 206.097 248.738 205.754 248.527C205.426 248.338 205.052 248.247 204.674 248.264C204.255 248.302 203.85 248.433 203.488 248.646L202.513 248.066C203.145 247.69 203.872 247.502 204.608 247.526C205.275 247.556 205.926 247.745 206.505 248.079Z" fill="white"/>
<path d="M218.191 255.045L222.21 257.442L221.432 257.942L218.336 256.112L216.702 257.166C217.035 257.149 217.369 257.184 217.691 257.271C218.017 257.359 218.331 257.487 218.626 257.653H218.705C219.059 257.832 219.352 258.112 219.548 258.456C219.613 258.58 219.647 258.718 219.647 258.858C219.647 258.998 219.613 259.135 219.548 259.259C219.386 259.549 219.15 259.79 218.863 259.957C218.288 260.336 217.615 260.537 216.926 260.537C216.224 260.542 215.533 260.36 214.924 260.01L214.792 259.931C214.531 259.81 214.296 259.638 214.101 259.426C213.907 259.213 213.756 258.964 213.659 258.693C213.622 258.461 213.657 258.224 213.758 258.013C213.859 257.801 214.022 257.625 214.226 257.508L215.227 258.1C215.127 258.176 215.05 258.277 215.003 258.393C214.957 258.509 214.943 258.636 214.963 258.759C215.008 258.898 215.082 259.026 215.179 259.135C215.277 259.244 215.396 259.331 215.53 259.391H215.609C215.951 259.595 216.344 259.695 216.742 259.681C217.151 259.665 217.547 259.538 217.888 259.312C218.218 259.088 218.376 258.864 218.362 258.627C218.349 258.39 218.152 258.14 217.756 257.916H217.691C217.442 257.773 217.17 257.675 216.887 257.626C216.604 257.567 216.313 257.567 216.031 257.626L215.042 257.034L218.191 255.045Z" fill="white"/>
<path d="M296.53 245.485L297.663 246.157L295.449 247.592L299.744 247.408L301.101 248.211L296.306 248.356L296.174 251.411L294.817 250.594L294.988 247.895L292.722 249.357L291.602 248.685L296.53 245.485Z" fill="white"/>
<path d="M290.746 242.035L291.866 242.707L291.009 246.394L294.382 244.208L295.515 244.879L290.575 248.079L289.455 247.408L290.285 243.734L286.938 245.906L285.805 245.235L290.746 242.035Z" fill="white"/>
<path d="M288.006 240.481L285.199 244.879L284.014 244.168L284.58 243.273L282.314 241.956L280.996 242.364L279.797 241.653L286.741 239.73L288.006 240.481ZM283.394 241.64L285.054 242.628L286.306 240.784L283.394 241.64Z" fill="white"/>
<path d="M281.207 239.862C281.189 240.006 281.136 240.143 281.053 240.262C280.971 240.381 280.861 240.479 280.733 240.547C280.301 240.818 279.792 240.943 279.284 240.902C278.726 240.855 278.186 240.684 277.703 240.402L277.545 240.31L275.134 238.875L280.061 235.675L282.433 237.084C282.999 237.426 283.342 237.755 283.421 238.071C283.5 238.387 283.355 238.69 282.96 238.94C282.654 239.142 282.298 239.256 281.932 239.27C281.554 239.285 281.177 239.222 280.825 239.085C280.946 239.175 281.044 239.292 281.11 239.428C281.177 239.563 281.21 239.712 281.207 239.862ZM278.981 239.954C279.24 239.977 279.5 239.912 279.718 239.77C279.942 239.625 280.021 239.467 279.982 239.296C279.942 239.125 279.771 238.954 279.455 238.769L278.401 238.137L277.083 239.019L278.151 239.651H278.243C278.478 239.784 278.738 239.865 279.007 239.888L278.981 239.954ZM280.417 236.794L279.099 237.624L280.101 238.216C280.329 238.352 280.586 238.433 280.852 238.453C281.093 238.473 281.333 238.413 281.537 238.282C281.734 238.15 281.826 238.005 281.8 237.847C281.774 237.689 281.603 237.518 281.313 237.347L280.311 236.754" fill="white"/>
<path d="M158.838 177.325L165.741 181.381L164.582 182.132L152.461 178.721L151.908 178.392L153.765 177.193C154.528 176.788 155.378 176.575 156.242 176.575C157.106 176.575 157.957 176.788 158.719 177.193L158.838 177.325Z" fill="#F8C401"/>
<path d="M165.188 182.355L166.189 181.71L165.965 181.579L168.943 183.343L168.877 183.396L165.188 182.355Z" fill="#F8C401"/>
<path d="M161.539 184.173L152.461 178.787L164.595 182.184L161.539 184.173Z" fill="#F8C401"/>
<path d="M151.921 178.458L152.461 178.787L161.539 184.173L161.143 184.423L151.539 178.708L151.723 178.576L151.921 178.458Z" fill="#F15A24"/>
<path d="M165.188 182.355L168.877 183.396L164.74 186.082L161.974 184.436L165.188 182.355Z" fill="#F8C401"/>
<path d="M169.167 183.475L169.391 183.606L164.793 186.596L161.591 184.686L161.973 184.436L164.74 186.082L168.877 183.396L168.943 183.343L169.167 183.475Z" fill="#F15A24"/>
<path d="M146.822 181.75L151.513 178.747L161.117 184.476L156.361 187.557L146.743 181.842L146.822 181.75Z" fill="#F8C401"/>
<path d="M165.965 181.579L166.189 181.71L165.188 182.355L161.973 184.436L161.591 184.686L156.835 187.781L156.387 187.518L161.143 184.423L161.539 184.173L164.595 182.184L165.741 181.434L165.965 181.579Z" fill="#F15A24"/>
<path d="M147.165 184.897C145.847 184.12 145.571 182.922 146.427 182.079L155.992 187.768L154.068 189.019L147.165 184.897Z" fill="#F8C401"/>
<path d="M156.387 187.518L156.835 187.781L159.602 189.414L159.207 189.677L156.44 188.031L156.005 187.768L146.427 182.066L146.387 182.039L146.756 181.802L156.387 187.518Z" fill="#F15A24"/>
<path d="M154.082 189.006L156.005 187.768L156.44 188.031L154.53 189.269L154.516 189.282L154.082 189.006Z" fill="#F15A24"/>
<path d="M154.53 189.269L156.44 188.031L159.207 189.677L157.283 190.915L154.53 189.269Z" fill="#F8C401"/>
<path d="M162.975 187.768L165.201 189.085L159.944 192.495L160.168 192.627L157.718 191.178L162.975 187.768Z" fill="#F8C401"/>
<path d="M162.935 187.254L166.031 189.098L162.698 191.257L162.303 191.521L160.392 192.759L160.168 192.627L159.944 192.495L165.201 189.085L162.975 187.768L157.718 191.178L157.283 190.915L159.207 189.677L159.602 189.414L162.935 187.254Z" fill="#F15A24"/>
<path d="M173.106 185.819C174.582 186.714 174.753 188.11 173.436 188.966L166.493 193.47L162.738 191.231L166.071 189.071L162.975 187.228L159.642 189.387L156.875 187.741L161.631 184.66L164.832 186.569L169.431 183.58L169.207 183.448L173.106 185.819Z" fill="#F8C401"/>
<path d="M166.453 193.496L166.255 193.628L166.058 193.746L166.018 193.72L162.303 191.521L162.698 191.257L166.453 193.496Z" fill="#F15A24"/>
<path d="M160.392 192.759L162.316 191.508L166.018 193.707C165.295 193.981 164.521 194.098 163.749 194.05C162.976 194.003 162.223 193.791 161.539 193.43H161.433L160.116 192.666L160.392 192.759Z" fill="#F8C401"/>
<path d="M218.639 281.106C224.54 281.106 229.324 278.146 229.324 274.495C229.324 270.844 224.54 267.885 218.639 267.885C212.738 267.885 207.954 270.844 207.954 274.495C207.954 278.146 212.738 281.106 218.639 281.106Z" fill="#F15A24"/>
<path d="M228.349 286.373C234.25 286.373 239.034 283.413 239.034 279.763C239.034 276.112 234.25 273.152 228.349 273.152C222.448 273.152 217.664 276.112 217.664 279.763C217.664 283.413 222.448 286.373 228.349 286.373Z" fill="#FBB03B"/>
<path opacity="0.32" d="M394.525 252.214C399.308 253.676 404.117 255.124 409.018 256.165C412.02 256.697 415.051 257.045 418.095 257.205L423.194 253.755L458.49 227.471L431.481 218.49L367.583 240.731C375.488 246.512 385.277 249.37 394.525 252.214Z" fill="url(#paint1_linear)"/>
<path d="M444.419 200.251C438.042 199.698 431.336 197.776 426.62 193.417V212.301C426.62 217.497 428.685 222.481 432.362 226.156C436.038 229.831 441.025 231.895 446.224 231.895C451.423 231.895 456.41 229.831 460.086 226.156C463.763 222.481 465.828 217.497 465.828 212.301V193.101C459.149 195.866 451.56 200.87 444.419 200.251Z" fill="#68E1FD"/>
<path d="M446.237 203.688C457.064 203.688 465.842 199.037 465.842 193.298C465.842 187.56 457.064 182.909 446.237 182.909C435.41 182.909 426.633 187.56 426.633 193.298C426.633 199.037 435.41 203.688 446.237 203.688Z" fill="#5ED18D"/>
<path d="M446.237 195.05C446.237 195.05 432.904 193.088 429.373 171.531C429.373 171.544 440.743 177.812 446.237 195.05Z" fill="#5ED18D"/>
<path d="M448.2 192.311C448.2 192.311 432.904 164.881 448.2 146.458C452.868 161.386 452.868 177.383 448.2 192.311Z" fill="#5ED18D"/>
<path d="M446.237 175.073C446.237 175.073 432.904 173.111 429.373 151.554C429.373 151.554 440.743 157.823 446.237 175.073Z" fill="#5ED18D"/>
<path d="M447.858 183.857C447.858 183.857 444.524 170.807 463.049 159.232C463.049 159.232 461.652 172.163 447.858 183.857Z" fill="#5ED18D"/>
<path d="M446.237 203.688C457.064 203.688 465.842 199.037 465.842 193.298C465.842 187.56 457.064 182.909 446.237 182.909C435.41 182.909 426.633 187.56 426.633 193.298C426.633 199.037 435.41 203.688 446.237 203.688Z" fill="#146666"/>
<path d="M446.237 195.05C446.237 195.05 432.904 193.088 429.373 171.531C429.373 171.544 440.743 177.812 446.237 195.05Z" fill="#5ED18D"/>
<path d="M448.2 192.311C448.2 192.311 432.904 164.881 448.2 146.458C452.868 161.386 452.868 177.383 448.2 192.311Z" fill="#5ED18D"/>
<path d="M446.237 175.073C446.237 175.073 432.904 173.111 429.373 151.554C429.373 151.554 440.743 157.823 446.237 175.073Z" fill="#5ED18D"/>
<path d="M447.858 183.857C447.858 183.857 444.524 170.807 463.049 159.232C463.049 159.232 461.652 172.163 447.858 183.857Z" fill="#5ED18D"/>
<path d="M168.824 208.166L243.738 164.262C246.089 162.887 248.76 162.154 251.484 162.135C254.207 162.117 256.888 162.814 259.258 164.157L392.839 239.928C394.427 240.857 395.744 242.185 396.659 243.78C397.575 245.375 398.056 247.182 398.056 249.021C398.056 250.86 397.575 252.667 396.659 254.262C395.744 255.857 394.427 257.185 392.839 258.114L319.586 300.121C316.084 302.13 312.113 303.178 308.075 303.157C304.037 303.136 300.077 302.048 296.596 300.003L168.706 224.942C167.25 224.073 166.047 222.838 165.215 221.361C164.384 219.884 163.952 218.215 163.964 216.52C163.976 214.825 164.431 213.163 165.284 211.697C166.136 210.232 167.357 209.015 168.824 208.166Z" fill="#BA3D3A"/>
<path d="M168.824 204.018L243.738 160.153C246.089 158.778 248.76 158.045 251.483 158.026C254.207 158.008 256.888 158.705 259.258 160.048L392.839 235.819C394.427 236.748 395.744 238.076 396.659 239.671C397.575 241.266 398.056 243.073 398.056 244.912C398.056 246.751 397.575 248.558 396.659 250.153C395.744 251.748 394.427 253.076 392.839 254.005L319.586 296.012C316.101 298.01 312.152 299.056 308.135 299.044C304.118 299.032 300.174 297.964 296.701 295.947L168.811 220.886C167.329 220.032 166.098 218.802 165.242 217.321C164.387 215.839 163.937 214.159 163.938 212.448C163.939 210.738 164.392 209.058 165.25 207.578C166.108 206.098 167.341 204.87 168.824 204.018Z" fill="#DD5E57"/>
<path d="M246.926 173.651L247.058 173.717C247.654 173.997 248.125 174.49 248.375 175.1C248.446 175.352 248.444 175.62 248.369 175.871C248.294 176.123 248.15 176.348 247.954 176.522L246.504 175.653C246.559 175.556 246.587 175.447 246.587 175.337C246.587 175.226 246.559 175.117 246.504 175.021C246.38 174.766 246.177 174.558 245.925 174.428C245.522 174.206 245.066 174.101 244.607 174.125C244.11 174.146 243.627 174.301 243.211 174.573C242.776 174.849 242.565 175.139 242.565 175.455C242.577 175.631 242.638 175.801 242.74 175.945C242.842 176.089 242.982 176.202 243.145 176.272H243.237C243.516 176.421 243.819 176.519 244.133 176.561C244.472 176.627 244.821 176.627 245.16 176.561L246.61 177.417C245.896 177.706 245.123 177.819 244.357 177.747C243.607 177.691 242.878 177.47 242.222 177.101L242.078 177.022C241.609 176.778 241.217 176.409 240.944 175.956C240.846 175.783 240.787 175.59 240.773 175.392C240.76 175.193 240.791 174.994 240.865 174.81C241.074 174.371 241.409 174.005 241.827 173.756C242.328 173.435 242.888 173.216 243.474 173.111C244.666 172.899 245.894 173.104 246.952 173.691L246.926 173.651Z" fill="white"/>
<path d="M241.445 186.082L245.134 187.122L240.997 189.796L238.244 188.163L241.445 186.082Z" fill="#F8C401"/>
<path d="M237.796 187.899L228.758 182.513L240.852 185.911L237.796 187.899Z" fill="#F8C401"/>
<path d="M228.178 182.171L228.758 182.513L237.796 187.899L237.414 188.15L227.796 182.434L228.178 182.171Z" fill="#F15A24"/>
<path d="M245.213 187.07L245.648 187.333L241.05 190.322L237.861 188.413L238.244 188.163L240.997 189.796L245.134 187.122L245.213 187.07Z" fill="#F15A24"/>
<path d="M223.092 185.476L227.796 182.421L237.413 188.136L232.657 191.218L223.04 185.49L223.092 185.476Z" fill="#F8C401"/>
<path d="M242.012 185.174L242.46 185.437L241.445 186.082L238.244 188.163L237.861 188.413L233.105 191.508L232.657 191.231L237.414 188.15L237.796 187.899L240.852 185.911L242.012 185.174Z" fill="#F15A24"/>
<path d="M232.262 191.481L230.339 192.732L230.563 192.864L223.422 188.61C222.104 187.82 221.841 186.635 222.697 185.779L232.262 191.481Z" fill="#F8C401"/>
<path d="M232.657 191.231L233.105 191.508L235.859 193.14L235.464 193.391L232.71 191.758L232.262 191.481L222.697 185.792L222.657 185.766L223.026 185.529L232.657 191.231Z" fill="#F15A24"/>
<path d="M230.339 192.732L232.262 191.481L232.71 191.758L230.787 192.996L230.563 192.864L230.339 192.732Z" fill="#F15A24"/>
<path d="M235.464 193.391L233.54 194.642L233.764 194.76L230.786 192.996L232.71 191.758L235.464 193.391Z" fill="#F8C401"/>
<path d="M239.245 191.494L241.458 192.811L236.201 196.222L236.425 196.354L233.988 194.905L239.245 191.494Z" fill="#F8C401"/>
<path d="M239.192 190.968L242.301 192.824L238.955 194.984L238.573 195.234L236.649 196.485L236.425 196.354L236.201 196.222L241.458 192.811L239.245 191.494L233.988 194.905L233.764 194.76L233.54 194.642L235.464 193.391L235.859 193.14L239.192 190.968Z" fill="#F15A24"/>
<path d="M249.363 189.545C250.865 190.441 251.01 191.85 249.706 192.68L242.763 197.183L239.008 194.945L242.354 192.785L239.258 190.941L235.833 193.14L233.079 191.494L237.835 188.413L241.037 190.309L245.635 187.333L245.187 187.07H245.108L241.419 186.029L242.42 185.384L241.972 185.121L240.813 185.871L228.718 182.474L228.138 182.132L229.996 180.933C230.758 180.527 231.609 180.315 232.473 180.315C233.337 180.315 234.187 180.527 234.95 180.933H235.055L249.363 189.545Z" fill="#F8C401"/>
<path d="M242.71 197.223L242.512 197.354L242.328 197.473L242.288 197.447L238.573 195.234L238.955 194.984L242.71 197.223Z" fill="#F15A24"/>
<path d="M236.649 196.485L238.573 195.234L242.288 197.447C241.565 197.721 240.791 197.839 240.019 197.791C239.246 197.744 238.493 197.532 237.809 197.17H237.703L236.649 196.485Z" fill="#F8C401"/>
<path d="M252.051 179.827C251.538 179.849 251.027 179.764 250.549 179.577L249.943 181.631L248.441 180.736L249.087 178.8L248.77 178.616L246.913 179.827L245.595 179.024L250.536 175.824L252.855 177.207C253.225 177.403 253.545 177.683 253.79 178.023C253.873 178.133 253.928 178.26 253.951 178.395C253.974 178.531 253.964 178.669 253.922 178.8C253.81 179.079 253.605 179.312 253.342 179.458C252.955 179.7 252.508 179.828 252.051 179.827ZM251.84 178.655C252.038 178.523 252.117 178.392 252.104 178.234C252.091 178.076 251.932 177.931 251.669 177.773L250.826 177.272L249.587 178.089L250.43 178.589C250.642 178.716 250.882 178.788 251.129 178.8C251.362 178.81 251.593 178.745 251.787 178.616" fill="white"/>
<path d="M287.663 201.028C287.15 201.053 286.638 200.967 286.161 200.778L285.555 202.832L284.053 201.937L284.699 200.001L284.382 199.817L282.512 201.028L281.194 200.225L286.135 197.025L288.467 198.421C288.833 198.618 289.152 198.892 289.402 199.224C289.481 199.336 289.534 199.463 289.557 199.598C289.579 199.732 289.572 199.87 289.534 200.001C289.422 200.28 289.217 200.513 288.954 200.66C288.567 200.902 288.12 201.029 287.663 201.028ZM287.452 199.856C287.65 199.725 287.742 199.593 287.716 199.435C287.689 199.277 287.558 199.132 287.294 198.974L286.438 198.474L285.199 199.29L286.043 199.791C286.254 199.919 286.494 199.995 286.741 200.014C286.971 200.014 287.196 199.945 287.386 199.817" fill="white"/>
<path d="M283.46 195.498L280.627 199.896L279.165 199.04L279.705 198.237L277.597 196.92L276.359 197.302L274.91 196.446L281.945 194.549L283.46 195.498ZM278.862 196.617L280.272 197.46L281.392 195.866L278.875 196.617" fill="white"/>
<path d="M276.675 191.376L276.807 191.455C277.392 191.719 277.86 192.187 278.124 192.772C278.195 193.024 278.193 193.292 278.118 193.543C278.043 193.795 277.9 194.02 277.703 194.194L276.253 193.325C276.308 193.228 276.336 193.119 276.336 193.009C276.336 192.898 276.308 192.789 276.253 192.693C276.129 192.438 275.926 192.23 275.674 192.1C275.271 191.878 274.815 191.773 274.356 191.797C273.859 191.818 273.376 191.973 272.96 192.245C272.789 192.329 272.641 192.454 272.529 192.607C272.417 192.761 272.343 192.939 272.314 193.127C272.326 193.303 272.387 193.473 272.489 193.617C272.591 193.761 272.731 193.874 272.894 193.944H272.986C273.265 194.093 273.568 194.191 273.882 194.233C274.221 194.299 274.57 194.299 274.91 194.233L276.359 195.089C275.645 195.377 274.872 195.49 274.106 195.419C273.356 195.363 272.627 195.142 271.971 194.773L271.827 194.694C271.358 194.45 270.966 194.081 270.694 193.628C270.597 193.454 270.541 193.261 270.529 193.062C270.518 192.864 270.551 192.666 270.628 192.482C270.828 192.038 271.165 191.668 271.589 191.429C272.09 191.106 272.65 190.886 273.236 190.783C274.432 190.568 275.665 190.773 276.728 191.363L276.675 191.376Z" fill="white"/>
<path d="M263.381 184.963C263.197 185.402 262.873 185.767 262.459 186.003C261.977 186.323 261.435 186.543 260.865 186.648C260.238 186.763 259.595 186.763 258.968 186.648C258.358 186.526 257.771 186.308 257.229 186.003L257.084 185.924L254.963 184.607L259.89 181.407L262.011 182.724C262.538 182.986 262.991 183.375 263.329 183.857C263.417 184.026 263.468 184.213 263.477 184.404C263.486 184.595 263.454 184.786 263.381 184.963ZM261.076 185.187C261.515 184.897 261.713 184.585 261.669 184.252C261.669 183.909 261.326 183.593 260.799 183.264L260.154 182.882L257.334 184.713L257.98 185.095H258.085C258.542 185.362 259.058 185.516 259.587 185.542C260.114 185.566 260.635 185.423 261.076 185.134" fill="white"/>
<path d="M265.687 184.871L267.057 185.687L262.117 188.887L260.746 188.071L265.687 184.871Z" fill="white"/>
<path d="M267.624 186.029L272.051 188.65L271.102 189.269L269.574 188.36L265.582 190.941L264.211 190.125L268.19 187.544L266.688 186.635L267.624 186.029Z" fill="white"/>
<path d="M255.555 178.839L259.06 180.933L258.111 181.539L255.964 180.262L254.936 180.933L256.847 182.066L255.938 182.658L254.027 181.513L252.934 182.224L255.081 183.501L254.133 184.133L250.615 182.039L255.555 178.839Z" fill="white"/>
<path d="M294.711 203.609C294.526 204.048 294.202 204.413 293.789 204.65C293.289 204.967 292.728 205.178 292.142 205.269C291.515 205.383 290.872 205.383 290.245 205.269C289.65 205.153 289.076 204.944 288.546 204.65L288.361 204.544L286.24 203.227L291.167 200.028L293.289 201.344C293.816 201.605 294.269 201.995 294.606 202.477C294.707 202.646 294.769 202.835 294.787 203.031C294.806 203.227 294.78 203.425 294.711 203.609ZM292.406 203.833C292.854 203.544 293.051 203.227 293.012 202.885C292.972 202.543 292.669 202.227 292.142 201.911L291.497 201.516L288.677 203.346L289.31 203.728H289.415C289.877 203.996 290.397 204.145 290.93 204.162C291.453 204.186 291.969 204.043 292.406 203.754" fill="white"/>
<path d="M232.209 209.706L233.25 210.338L232.328 210.944L231.274 210.325L229.864 211.234L228.639 210.51L230.049 209.588L226.241 207.323L227.124 206.743L235.174 206.164L236.491 206.941L232.209 209.706ZM231.063 209.035L234.08 207.073L228.428 207.455L231.063 209.022" fill="white"/>
<path d="M226.847 201.002L227.032 201.107C227.445 201.33 227.805 201.64 228.086 202.016C228.179 202.14 228.243 202.285 228.273 202.437C228.303 202.59 228.297 202.748 228.257 202.898C228.142 203.212 227.918 203.474 227.624 203.636C227.196 203.913 226.698 204.063 226.188 204.07C225.628 204.089 225.072 203.971 224.568 203.728C224.898 204.011 225.125 204.395 225.213 204.821C225.213 205.163 225.042 205.479 224.594 205.782C224.002 206.147 223.312 206.322 222.618 206.283C221.852 206.243 221.107 206.022 220.444 205.637L220.286 205.545C219.643 205.245 219.142 204.707 218.889 204.044C218.749 203.517 218.995 203.008 219.627 202.516L220.826 203.227C220.683 203.314 220.567 203.439 220.49 203.588C220.413 203.736 220.379 203.903 220.391 204.07C220.443 204.259 220.536 204.433 220.664 204.581C220.791 204.729 220.95 204.847 221.129 204.926C221.494 205.139 221.906 205.261 222.328 205.282C222.709 205.298 223.086 205.196 223.408 204.992C223.777 204.755 223.896 204.478 223.764 204.162C223.503 203.719 223.119 203.362 222.657 203.135L222.368 202.964L223.237 202.398L223.527 202.569L223.738 202.688C224.1 202.966 224.533 203.137 224.988 203.178C225.443 203.22 225.9 203.132 226.307 202.925C226.606 202.723 226.737 202.503 226.702 202.266C226.702 202.029 226.452 201.805 226.096 201.581C225.734 201.375 225.327 201.258 224.91 201.239C224.454 201.22 223.999 201.32 223.593 201.529L222.394 200.818C223.076 200.435 223.852 200.253 224.634 200.291C225.418 200.348 226.177 200.591 226.847 201.002Z" fill="white"/>
<path d="M219.654 196.828L219.785 196.907C220.51 197.341 220.918 197.789 220.997 198.223C221.077 198.658 220.813 199.119 220.22 199.54C219.619 199.893 218.95 200.113 218.257 200.186C217.384 200.305 216.502 200.345 215.622 200.304C214.739 200.266 213.86 200.178 212.987 200.041L216.544 202.161L215.675 202.727L210.405 199.632L211.182 199.119C212.766 199.344 214.364 199.458 215.965 199.461C216.956 199.52 217.946 199.32 218.837 198.882C218.969 198.814 219.084 198.718 219.173 198.599C219.262 198.48 219.323 198.343 219.351 198.197C219.351 197.96 219.153 197.71 218.731 197.46C218.333 197.228 217.875 197.118 217.414 197.144C216.914 197.185 216.432 197.343 216.004 197.605L214.818 196.907C215.58 196.46 216.452 196.236 217.335 196.261C218.142 196.26 218.938 196.454 219.654 196.828Z" fill="white"/>
<path d="M212.341 192.627L214.752 194.062L208.178 198.329L206.913 197.565L212.486 193.944L211.353 193.272L212.341 192.627Z" fill="white"/>
<path d="M246.979 213.117L251.801 215.988L250.865 216.593L247.15 214.381L245.2 215.698C245.6 215.678 246 215.722 246.386 215.83C246.758 215.923 247.117 216.065 247.453 216.251L247.598 216.33C248.026 216.546 248.38 216.885 248.612 217.305C248.687 217.454 248.725 217.618 248.725 217.785C248.725 217.952 248.687 218.117 248.612 218.266C248.415 218.611 248.134 218.901 247.795 219.109C247.099 219.555 246.291 219.796 245.464 219.807C244.617 219.81 243.784 219.588 243.052 219.161L242.908 219.082C242.599 218.935 242.324 218.728 242.097 218.472C241.871 218.217 241.698 217.918 241.59 217.594C241.536 217.32 241.571 217.036 241.689 216.782C241.808 216.529 242.004 216.32 242.249 216.185L243.448 216.896C243.329 216.987 243.236 217.109 243.181 217.248C243.125 217.387 243.108 217.539 243.132 217.686C243.187 217.852 243.275 218.005 243.391 218.136C243.506 218.267 243.646 218.374 243.803 218.45H243.883C244.302 218.694 244.781 218.817 245.266 218.806C245.736 218.781 246.191 218.631 246.583 218.371C246.979 218.108 247.163 217.831 247.15 217.542C247.137 217.252 246.873 216.962 246.425 216.686C246.119 216.512 245.784 216.392 245.437 216.33C245.098 216.266 244.749 216.266 244.409 216.33L243.224 215.619L246.979 213.117Z" fill="white"/>
<path d="M261.55 221.874L266.517 224.824L265.713 225.337L257.11 227.444L255.832 226.681L264.356 224.692L260.641 222.467L261.55 221.874Z" fill="white"/>
<path d="M256.306 222.203C256.306 222.704 256.003 223.178 255.305 223.639C254.872 223.918 254.389 224.111 253.882 224.205C253.338 224.306 252.78 224.306 252.235 224.205C251.68 224.1 251.146 223.904 250.654 223.625L250.523 223.546C249.442 222.901 248.981 222.23 249.205 221.637C249.57 220.801 250.212 220.118 251.023 219.701C252.008 219.021 253.134 218.571 254.317 218.384C255.307 218.281 256.305 218.498 257.163 219.003L257.321 219.095C258.059 219.53 258.441 219.991 258.467 220.412C258.464 220.674 258.396 220.932 258.27 221.162C258.144 221.391 257.962 221.586 257.743 221.729L256.583 221.044C257.189 220.491 257.11 219.991 256.372 219.543C255.851 219.254 255.25 219.143 254.66 219.227C253.883 219.364 253.145 219.67 252.499 220.123L252.196 220.333C252.677 220.182 253.187 220.146 253.685 220.228C254.193 220.302 254.684 220.467 255.134 220.715H255.239C255.924 221.251 256.28 221.747 256.306 222.203ZM254.172 222.954C254.607 222.664 254.818 222.374 254.778 222.058C254.739 221.742 254.501 221.453 254.04 221.176C253.634 220.95 253.186 220.811 252.723 220.768C252.235 220.709 251.742 220.821 251.326 221.084C251.157 221.169 251.012 221.296 250.906 221.453C250.8 221.609 250.736 221.791 250.72 221.979C250.72 222.313 250.984 222.638 251.511 222.954H251.603C252.004 223.185 252.457 223.312 252.92 223.323C253.388 223.331 253.847 223.198 254.238 222.941" fill="white"/>
<path d="M269.943 231.421C269.905 231.613 269.825 231.794 269.709 231.951C269.593 232.108 269.443 232.238 269.271 232.33C268.595 232.751 267.796 232.932 267.005 232.843C266.17 232.762 265.362 232.506 264.633 232.093L264.436 231.974C263.764 231.659 263.233 231.105 262.947 230.42C262.789 229.88 263.026 229.406 263.671 228.985C264.102 228.71 264.597 228.551 265.107 228.524C265.693 228.497 266.279 228.582 266.833 228.774C266.699 228.66 266.594 228.516 266.525 228.354C266.456 228.191 266.427 228.015 266.438 227.839C266.475 227.671 266.548 227.513 266.653 227.377C266.758 227.24 266.891 227.128 267.044 227.049C267.403 226.823 267.808 226.684 268.23 226.641C268.742 226.593 269.259 226.634 269.758 226.76C270.285 226.883 270.791 227.082 271.26 227.352L271.418 227.444C271.876 227.696 272.279 228.036 272.604 228.445C272.709 228.577 272.785 228.73 272.828 228.893C272.871 229.056 272.88 229.226 272.854 229.393C272.815 229.551 272.743 229.7 272.643 229.829C272.543 229.958 272.418 230.065 272.275 230.144C271.88 230.394 271.425 230.535 270.957 230.552C270.44 230.593 269.919 230.526 269.429 230.355C269.585 230.486 269.712 230.648 269.801 230.832C269.889 231.016 269.938 231.217 269.943 231.421ZM268.124 231.579C268.507 231.329 268.638 231.052 268.533 230.75C268.356 230.362 268.048 230.05 267.663 229.867H267.558C267.151 229.639 266.703 229.492 266.24 229.433C265.781 229.371 265.314 229.473 264.923 229.722C264.541 229.973 264.396 230.249 264.475 230.565C264.631 230.968 264.938 231.294 265.331 231.474H265.437C265.863 231.723 266.341 231.871 266.833 231.908C267.296 231.954 267.76 231.843 268.151 231.592L268.124 231.579ZM268.151 227.879C267.808 228.09 267.677 228.34 267.756 228.603C267.893 228.954 268.163 229.238 268.507 229.393H268.612C268.984 229.605 269.397 229.736 269.824 229.775C270.231 229.817 270.639 229.719 270.983 229.499C271.326 229.288 271.458 229.038 271.379 228.761C271.242 228.409 270.972 228.125 270.628 227.971H270.522C270.159 227.763 269.754 227.637 269.337 227.602C268.929 227.567 268.52 227.669 268.177 227.892" fill="white"/>
<path d="M299.204 245.314C298.857 246.159 298.223 246.854 297.412 247.276C296.485 247.908 295.427 248.323 294.316 248.487C293.32 248.614 292.309 248.405 291.444 247.895L291.286 247.803C290.298 247.21 289.889 246.604 290.048 245.972C290.402 245.117 291.045 244.413 291.866 243.984C292.792 243.35 293.851 242.936 294.962 242.772C295.955 242.657 296.959 242.87 297.821 243.378L297.979 243.47C298.963 244.058 299.371 244.673 299.204 245.314ZM296.187 246.552C296.762 246.24 297.247 245.787 297.597 245.235C297.781 244.853 297.597 244.471 296.964 244.116H296.859C296.337 243.802 295.717 243.694 295.12 243.813C294.394 244.002 293.707 244.319 293.091 244.748C292.515 245.062 292.026 245.514 291.668 246.064C291.484 246.446 291.668 246.828 292.314 247.197H292.419C292.937 247.509 293.554 247.612 294.145 247.487C294.881 247.302 295.577 246.985 296.2 246.552" fill="white"/>
<path d="M290.364 239.059L292.762 240.494L286.187 244.761L284.923 243.997L290.496 240.376L289.363 239.704L290.364 239.059Z" fill="white"/>
<path d="M287.32 238.098C286.966 238.928 286.332 239.608 285.529 240.02C284.543 240.69 283.424 241.139 282.248 241.337C281.268 241.475 280.271 241.28 279.415 240.784L279.27 240.705C278.519 240.257 278.137 239.796 278.072 239.296C278.06 239.036 278.118 238.777 278.238 238.546C278.358 238.315 278.537 238.119 278.757 237.979L279.903 238.664C279.776 238.749 279.672 238.865 279.6 239.001C279.529 239.136 279.493 239.288 279.494 239.441C279.537 239.602 279.615 239.751 279.722 239.879C279.829 240.006 279.963 240.108 280.114 240.178C280.634 240.469 281.236 240.58 281.826 240.494C282.609 240.355 283.351 240.044 284 239.586L284.303 239.375C283.818 239.528 283.303 239.564 282.801 239.48C282.293 239.406 281.802 239.241 281.352 238.993H281.247C280.522 238.558 280.14 238.084 280.101 237.584C280.061 237.084 280.39 236.596 281.089 236.162C281.523 235.885 282.006 235.692 282.512 235.596C283.06 235.492 283.623 235.492 284.172 235.596C284.723 235.693 285.253 235.885 285.739 236.162L285.884 236.241C287.044 236.847 287.492 237.479 287.32 238.098ZM285.252 238.69C285.422 238.605 285.568 238.478 285.676 238.322C285.784 238.165 285.851 237.984 285.871 237.795C285.871 237.465 285.608 237.136 285.081 236.82C284.679 236.589 284.227 236.458 283.763 236.438C283.295 236.439 282.837 236.576 282.446 236.833C282.011 237.123 281.8 237.413 281.826 237.729C281.853 238.045 282.103 238.335 282.551 238.598H282.617C283.185 238.906 283.83 239.043 284.475 238.993C284.798 238.961 285.11 238.852 285.384 238.677" fill="white"/>
<path d="M306.898 249.857C306.55 250.705 305.91 251.401 305.093 251.819C304.166 252.451 303.108 252.865 301.997 253.031C300.989 253.182 299.96 252.991 299.073 252.491L298.914 252.399C297.913 251.806 297.505 251.187 297.676 250.555C298.033 249.705 298.676 249.006 299.494 248.58C300.418 247.951 301.472 247.537 302.577 247.368C303.571 247.254 304.574 247.467 305.436 247.974L305.594 248.066C306.661 248.646 307.07 249.251 306.898 249.857ZM303.881 251.095C304.448 250.777 304.928 250.325 305.278 249.778C305.476 249.383 305.278 249.014 304.646 248.646H304.58C304.049 248.329 303.42 248.221 302.814 248.343C302.084 248.526 301.392 248.838 300.772 249.264C300.196 249.578 299.707 250.031 299.349 250.581C299.152 250.976 299.349 251.345 299.995 251.714H300.061C300.59 252.033 301.22 252.141 301.826 252.017C302.561 251.828 303.256 251.511 303.881 251.082" fill="white"/>
<path d="M203.422 204.689L204.423 205.295L199.641 208.403L201.801 209.693L201.116 210.141L197.954 208.245L203.422 204.689Z" fill="white"/>
<path d="M207.374 207.06L208.402 207.665L202.921 211.208L201.907 210.602L207.374 207.06Z" fill="white"/>
<path d="M198.85 201.976L202.447 204.11L201.722 204.571L199.153 203.043L197.493 204.11L199.799 205.492L199.114 205.927L196.808 204.558L195.109 205.664L197.678 207.191L196.966 207.665L193.383 205.532L198.85 201.976Z" fill="white"/>
<path d="M217.388 213.143L214.305 218.016L213.224 217.37L213.922 216.317L211.288 214.75L209.614 215.224L208.534 214.579L216.228 212.445L217.388 213.143ZM212.249 214.46L214.318 215.698L215.833 213.42L212.236 214.46" fill="white"/>
<path d="M209.443 208.284L213.501 210.694L212.816 211.142L205.741 211.998L208.797 213.815L208.073 214.276L203.896 211.787L204.595 211.352L211.63 210.483L208.718 208.745L209.443 208.284Z" fill="white"/>
<path d="M221.643 219.425C221.628 219.588 221.571 219.745 221.479 219.881C221.387 220.017 221.262 220.127 221.116 220.202C220.637 220.502 220.073 220.641 219.509 220.597C218.875 220.541 218.263 220.343 217.717 220.017L217.598 219.951L215.121 218.463L220.589 214.908L223.04 216.37C223.672 216.738 224.028 217.107 224.12 217.463C224.212 217.818 224.028 218.134 223.606 218.411C223.266 218.637 222.869 218.765 222.46 218.779C222.037 218.792 221.616 218.72 221.221 218.569C221.352 218.67 221.458 218.8 221.531 218.948C221.604 219.097 221.642 219.259 221.643 219.425ZM220.194 219.504C220.471 219.319 220.576 219.122 220.523 218.898C220.471 218.674 220.247 218.45 219.864 218.213L218.547 217.463L216.795 218.595L218.112 219.359H218.218C218.528 219.54 218.874 219.652 219.232 219.688C219.564 219.72 219.898 219.641 220.181 219.464L220.194 219.504ZM220.853 215.935L219.219 217.002L220.457 217.752C220.754 217.929 221.088 218.033 221.432 218.055C221.743 218.08 222.054 218.001 222.315 217.831C222.565 217.673 222.671 217.489 222.631 217.278C222.592 217.068 222.381 216.857 222.012 216.633L220.787 215.909" fill="white"/>
<path d="M235.411 223.731L236.412 224.337L234.12 225.825L237.071 227.576L239.363 226.088L240.391 226.694L234.91 230.249L233.896 229.643L236.346 228.05L233.408 226.299L230.945 227.892L229.943 227.286L235.411 223.731Z" fill="white"/>
<path d="M230.154 220.61L234.66 223.283L233.948 223.757L232.196 222.704L227.44 225.798L226.412 225.192L231.169 222.111L229.443 221.071L230.154 220.61Z" fill="white"/>
<path d="M282.801 251.819H282.894C283.5 252.188 283.829 252.557 283.895 252.952C283.961 253.347 283.75 253.689 283.262 254.018C282.762 254.312 282.206 254.496 281.629 254.558C280.904 254.657 280.172 254.688 279.442 254.65C278.691 254.621 277.943 254.546 277.202 254.426L280.18 256.191L279.455 256.652L275.12 254.018L275.779 253.597C277.088 253.784 278.409 253.876 279.732 253.873C280.559 253.93 281.386 253.766 282.129 253.399C282.419 253.215 282.564 253.031 282.564 252.833C282.564 252.636 282.406 252.425 282.05 252.214H281.971C281.655 252.037 281.293 251.954 280.931 251.977C280.515 252.01 280.113 252.141 279.758 252.359L278.783 251.78C279.412 251.406 280.134 251.219 280.865 251.24C281.548 251.274 282.212 251.472 282.801 251.819Z" fill="white"/>
<path d="M291.168 256.784L291.299 256.863C291.918 257.231 292.248 257.6 292.314 257.995C292.38 258.39 292.169 258.733 291.668 259.062C291.167 259.351 290.61 259.53 290.034 259.588C289.301 259.686 288.56 259.716 287.821 259.681C287.079 259.65 286.34 259.575 285.608 259.457L288.572 261.221L287.847 261.695L283.5 259.062L284.145 258.64C285.455 258.821 286.776 258.913 288.098 258.917C288.926 258.966 289.752 258.798 290.496 258.43C290.606 258.374 290.703 258.295 290.778 258.197C290.853 258.098 290.906 257.985 290.93 257.863C290.93 257.666 290.772 257.455 290.417 257.244H290.337C290.022 257.064 289.659 256.981 289.297 257.007C288.877 257.038 288.47 257.169 288.111 257.389L287.123 256.797C287.757 256.426 288.483 256.239 289.218 256.257C289.902 256.266 290.572 256.447 291.168 256.784Z" fill="white"/>
<path d="M294.435 258.759L298.466 261.156L297.689 261.669L294.593 259.826L292.972 260.879C293.305 260.861 293.639 260.897 293.961 260.984C294.282 261.069 294.592 261.193 294.883 261.353H294.962C295.321 261.536 295.618 261.82 295.818 262.17C295.879 262.295 295.91 262.432 295.91 262.571C295.91 262.71 295.879 262.848 295.818 262.973C295.652 263.259 295.416 263.499 295.133 263.671C294.552 264.047 293.875 264.248 293.183 264.25C292.485 264.253 291.799 264.072 291.194 263.723L291.062 263.644C290.799 263.526 290.563 263.355 290.368 263.142C290.173 262.929 290.024 262.679 289.929 262.407C289.888 262.175 289.921 261.936 290.023 261.724C290.124 261.511 290.29 261.336 290.496 261.221L291.497 261.814C291.393 261.89 291.313 261.993 291.264 262.111C291.215 262.229 291.2 262.359 291.22 262.486C291.268 262.623 291.343 262.75 291.44 262.858C291.538 262.967 291.655 263.055 291.787 263.118C292.142 263.325 292.548 263.43 292.959 263.421C293.371 263.401 293.771 263.273 294.119 263.052C294.435 262.841 294.606 262.604 294.58 262.354C294.553 262.104 294.356 261.88 293.974 261.643C293.719 261.503 293.443 261.405 293.157 261.353C292.874 261.299 292.583 261.299 292.301 261.353L291.326 260.774L294.435 258.759Z" fill="white"/>
<path d="M289.455 253.61L290.443 254.189L279.336 258.39L278.361 257.811L289.455 253.61Z" fill="white"/>
<path d="M277.571 248.83L279.573 250.028L274.093 253.571L273.039 252.938L277.676 249.923L276.741 249.37L277.571 248.83Z" fill="white"/>
<path d="M372.8 249.212L373.92 249.87L371.719 251.319L376.014 251.121L377.371 251.938L372.563 252.082L372.444 255.124L371.087 254.321L371.245 251.608L368.992 253.083L367.872 252.412L372.8 249.212Z" fill="white"/>
<path d="M367.003 245.762L368.123 246.433L367.266 250.12L370.652 247.934L371.772 248.606L366.845 251.793L365.725 251.134L366.542 247.447L363.208 249.633L362.062 248.962L367.003 245.762Z" fill="white"/>
<path d="M364.276 244.208L361.469 248.54L360.283 247.829L360.876 246.947L358.623 245.63L357.227 246.038L356.041 245.327L362.998 243.404L364.276 244.208ZM359.664 245.367L361.324 246.354L362.563 244.511L359.664 245.367Z" fill="white"/>
<path d="M357.477 243.589C357.46 243.733 357.407 243.87 357.325 243.99C357.242 244.109 357.132 244.206 357.003 244.274C356.569 244.552 356.054 244.677 355.54 244.629C354.968 244.585 354.413 244.409 353.92 244.116L353.801 244.05L351.39 242.614L356.318 239.414L358.689 240.823C359.256 241.166 359.585 241.495 359.677 241.824C359.77 242.153 359.677 242.43 359.216 242.693C358.908 242.889 358.553 242.998 358.189 243.009C357.811 243.028 357.433 242.965 357.082 242.825C357.203 242.912 357.303 243.027 357.371 243.16C357.44 243.292 357.476 243.439 357.477 243.589ZM355.251 243.694C355.51 243.716 355.77 243.651 355.988 243.51C356.212 243.365 356.291 243.207 356.252 243.036C356.155 242.801 355.971 242.612 355.738 242.509L354.671 241.877L353.353 242.759L354.421 243.404C354.662 243.547 354.932 243.637 355.211 243.668L355.251 243.694ZM356.621 240.56L355.303 241.39L356.318 241.995C356.543 242.132 356.794 242.217 357.056 242.246C357.301 242.267 357.546 242.207 357.754 242.074C357.952 241.943 358.044 241.798 358.004 241.64C357.965 241.482 357.807 241.311 357.517 241.126L356.515 240.534" fill="white"/>
<path d="M294.909 284.832C300.81 284.832 305.594 281.873 305.594 278.222C305.594 274.571 300.81 271.611 294.909 271.611C289.008 271.611 284.224 274.571 284.224 278.222C284.224 281.873 289.008 284.832 294.909 284.832Z" fill="#F15A24"/>
<path d="M304.619 290.1C310.52 290.1 315.304 287.14 315.304 283.489C315.304 279.838 310.52 276.879 304.619 276.879C298.718 276.879 293.934 279.838 293.934 283.489C293.934 287.14 298.718 290.1 304.619 290.1Z" fill="#FBB03B"/>
<defs>
<linearGradient id="paint0_linear" x1="180.208" y1="289.586" x2="207.288" y2="240.838" gradientUnits="userSpaceOnUse">
<stop stop-opacity="0"/>
<stop offset="0.99" stop-color="#552800"/>
</linearGradient>
<linearGradient id="paint1_linear" x1="28055.3" y1="7398.63" x2="28799.6" y2="5754.27" gradientUnits="userSpaceOnUse">
<stop stop-opacity="0"/>
<stop offset="0.99" stop-color="#552800"/>
</linearGradient>
</defs>
</svg>
