<svg width="708" height="900" viewBox="0 0 708 900" fill="none" xmlns="http://www.w3.org/2000/svg">
<path d="M234.829 467.279C50.98 610.718 1.67257 815.526 0 900H708V0H234.829C311.433 95.9933 418.678 323.84 234.829 467.279Z" fill="#4260FB"/>
<path d="M256.267 613.487L28.985 479.234C21.7519 475.179 15.5465 468.502 22.5951 464.143L250.707 332.748C254.133 330.628 259.323 329.246 262.802 331.26L501.361 469.648C508.594 473.848 509.899 485.582 502.679 489.782L286.227 613.263C281.683 615.9 276.53 617.307 271.277 617.347C266.023 617.386 260.849 616.056 256.267 613.487Z" fill="#FFDAAE"/>
<path opacity="0.32" d="M76.6258 494.457C81.4083 495.919 86.2172 497.367 91.1183 498.408C94.1199 498.94 97.1515 499.288 100.196 499.448L253.026 595.328L343.591 538.98L126.019 440.532L49.7225 482.974C57.6143 488.755 67.377 491.639 76.6258 494.457Z" fill="url(#paint0_linear)"/>
<path d="M89.5109 459.943L164.477 416.078C166.828 414.703 169.499 413.97 172.223 413.951C174.947 413.933 177.627 414.63 179.997 415.973L313.565 491.758C315.153 492.686 316.47 494.014 317.385 495.609C318.301 497.205 318.782 499.012 318.782 500.85C318.782 502.689 318.301 504.496 317.385 506.091C316.47 507.687 315.153 509.015 313.565 509.943L240.312 551.951C236.81 553.96 232.839 555.007 228.801 554.986C224.763 554.966 220.803 553.877 217.322 551.832L89.4319 476.772C87.9619 475.909 86.7443 474.676 85.9009 473.195C85.0574 471.714 84.6177 470.038 84.6257 468.335C84.6337 466.631 85.0892 464.959 85.9465 463.486C86.8038 462.013 88.0329 460.792 89.5109 459.943Z" fill="#68E1FD"/>
<path opacity="0.33" d="M89.5109 459.943L164.477 416.078C166.828 414.703 169.499 413.97 172.223 413.951C174.947 413.933 177.627 414.63 179.997 415.973L313.565 491.758C315.153 492.686 316.47 494.014 317.385 495.609C318.301 497.205 318.782 499.012 318.782 500.85C318.782 502.689 318.301 504.496 317.385 506.091C316.47 507.687 315.153 509.015 313.565 509.943L240.312 551.951C236.81 553.96 232.839 555.007 228.801 554.986C224.763 554.966 220.803 553.877 217.322 551.832L89.4319 476.772C87.9619 475.909 86.7443 474.676 85.9009 473.195C85.0574 471.714 84.6177 470.038 84.6257 468.335C84.6337 466.631 85.0892 464.959 85.9465 463.486C86.8038 462.013 88.0329 460.792 89.5109 459.943Z" fill="#1E4549"/>
<path d="M88.8786 455.018L163.844 411.153C166.195 409.778 168.866 409.045 171.59 409.026C174.314 409.008 176.995 409.705 179.364 411.048L312.946 486.819C314.534 487.748 315.851 489.076 316.766 490.671C317.682 492.266 318.163 494.073 318.163 495.912C318.163 497.751 317.682 499.558 316.766 501.153C315.851 502.749 314.534 504.076 312.946 505.005L239.785 547.026C236.283 549.035 232.312 550.082 228.274 550.061C224.236 550.041 220.276 548.952 216.795 546.907L88.9049 471.847C87.4296 470.993 86.2043 469.768 85.3516 468.292C84.499 466.817 84.0488 465.144 84.0461 463.44C84.0435 461.736 84.4884 460.061 85.3364 458.583C86.1845 457.105 87.4059 455.876 88.8786 455.018Z" fill="#68E1FD"/>
<path d="M170.629 420.898L170.801 420.99C171.386 421.254 171.854 421.722 172.118 422.307C172.181 422.559 172.174 422.824 172.098 423.072C172.021 423.321 171.878 423.543 171.683 423.716L170.234 422.86C170.284 422.76 170.31 422.65 170.31 422.538C170.31 422.426 170.284 422.315 170.234 422.215C170.106 421.958 169.898 421.75 169.641 421.622H169.575C169.174 421.398 168.716 421.297 168.258 421.333C167.76 421.352 167.277 421.506 166.861 421.78C166.688 421.862 166.537 421.986 166.422 422.139C166.307 422.293 166.232 422.473 166.203 422.663C166.203 422.979 166.387 423.242 166.796 423.492C167.081 423.649 167.394 423.752 167.718 423.795C168.053 423.857 168.397 423.857 168.732 423.795L170.181 424.664C169.465 424.944 168.695 425.057 167.929 424.993C167.178 424.929 166.45 424.704 165.794 424.335L165.649 424.256C165.243 423.976 164.913 423.601 164.688 423.163C164.591 422.989 164.535 422.796 164.523 422.598C164.512 422.399 164.545 422.201 164.622 422.017C164.823 421.573 165.159 421.205 165.583 420.964C166.084 420.641 166.644 420.422 167.23 420.319C167.844 420.207 168.474 420.207 169.088 420.319C169.63 420.428 170.15 420.623 170.629 420.898Z" fill="white"/>
<path d="M175.781 427.114C175.268 427.138 174.756 427.053 174.279 426.863L173.686 428.918L172.171 428.022L172.816 426.086L172.5 425.902L170.643 427.114L169.325 426.297L174.253 423.097L176.545 424.48C176.914 424.673 177.234 424.948 177.48 425.283C177.562 425.393 177.617 425.521 177.639 425.656C177.662 425.791 177.653 425.929 177.612 426.06C177.506 426.342 177.306 426.579 177.046 426.732C176.663 426.964 176.228 427.096 175.781 427.114ZM175.57 425.942C175.768 425.81 175.86 425.678 175.847 425.533C175.834 425.389 175.689 425.231 175.425 425.072L174.569 424.572L173.317 425.375L174.173 425.876H174.266C174.466 425.993 174.692 426.061 174.924 426.073C175.155 426.077 175.381 426.008 175.57 425.876" fill="white"/>
<path d="M187.085 432.236C186.9 432.674 186.576 433.04 186.163 433.276C185.665 433.599 185.103 433.81 184.516 433.895C183.889 434.01 183.246 434.01 182.619 433.895C182.027 433.779 181.458 433.57 180.932 433.276L180.735 433.158L178.6 431.841L183.541 428.641L185.662 429.958C186.188 430.222 186.64 430.611 186.98 431.091C187.083 431.261 187.146 431.453 187.164 431.651C187.182 431.85 187.155 432.05 187.085 432.236ZM184.779 432.46C185.227 432.17 185.425 431.854 185.372 431.525C185.32 431.196 185.043 430.867 184.516 430.551L183.87 430.156L181.051 431.986L181.696 432.381H181.802C182.264 432.649 182.783 432.802 183.317 432.829C183.84 432.843 184.355 432.696 184.793 432.407" fill="white"/>
<path d="M179.285 426.113L182.803 428.207L181.855 428.826L179.707 427.535L178.666 428.22L180.577 429.352L179.681 429.932L177.77 428.799L176.677 429.51L178.811 430.788L177.863 431.407L174.358 429.313L179.285 426.113Z" fill="white"/>
<path d="M189.43 432.144L190.787 432.96L185.86 436.16L184.49 435.344L189.43 432.144Z" fill="white"/>
<path d="M191.367 433.303L195.794 435.936L194.832 436.542L193.304 435.634L189.312 438.215L187.941 437.398L191.933 434.817L190.418 433.922L191.367 433.303Z" fill="white"/>
<path d="M200.418 438.636L200.589 438.728C201.174 438.992 201.643 439.46 201.907 440.045C201.97 440.297 201.963 440.562 201.886 440.81C201.81 441.059 201.666 441.281 201.472 441.454L200.023 440.598C200.075 440.499 200.102 440.388 200.102 440.275C200.102 440.163 200.075 440.052 200.023 439.953C199.895 439.696 199.687 439.488 199.43 439.36H199.364C198.963 439.136 198.505 439.035 198.047 439.071C197.549 439.089 197.066 439.244 196.65 439.518C196.215 439.795 195.991 440.098 195.991 440.401C195.991 440.703 196.176 440.98 196.584 441.23C196.869 441.389 197.182 441.492 197.506 441.533C197.842 441.595 198.186 441.595 198.521 441.533L199.97 442.402C199.255 442.685 198.484 442.798 197.717 442.731C196.952 442.668 196.21 442.439 195.543 442.06H195.438C194.976 441.811 194.589 441.443 194.318 440.993C194.219 440.821 194.161 440.628 194.147 440.429C194.133 440.231 194.165 440.032 194.239 439.848C194.444 439.406 194.78 439.038 195.201 438.794C195.701 438.471 196.261 438.252 196.848 438.149C197.462 438.039 198.091 438.039 198.705 438.149C199.3 438.21 199.88 438.375 200.418 438.636Z" fill="white"/>
<path d="M207.19 442.771L204.357 447.182L202.908 446.313L203.462 445.523L201.34 444.206L200.023 444.588L198.587 443.732L205.556 441.783L207.19 442.771ZM202.605 443.877L204.015 444.72L205.122 443.113L202.605 443.864" fill="white"/>
<path d="M211.406 448.302C210.893 448.328 210.381 448.243 209.904 448.051L209.311 450.106L207.796 449.21L208.442 447.275L208.125 447.09L206.255 448.302L204.937 447.485L209.865 444.285L212.118 445.681C212.482 445.875 212.798 446.15 213.04 446.484C213.12 446.595 213.175 446.722 213.2 446.857C213.225 446.991 213.22 447.129 213.185 447.261C213.072 447.541 212.868 447.773 212.605 447.92C212.244 448.147 211.832 448.278 211.406 448.302ZM210.55 447.327C210.783 447.336 211.013 447.271 211.208 447.143C211.393 447.011 211.485 446.879 211.472 446.721C211.459 446.563 211.314 446.419 211.05 446.261L210.207 445.76L208.89 446.577L209.746 447.077C209.959 447.203 210.198 447.279 210.444 447.301" fill="white"/>
<path d="M218.455 450.817C218.271 451.264 217.941 451.635 217.519 451.87C217.02 452.191 216.459 452.402 215.872 452.489C215.249 452.602 214.611 452.602 213.988 452.489C213.374 452.368 212.782 452.15 212.236 451.844L212.091 451.765L209.97 450.448L214.897 447.248L217.032 448.565C217.557 448.829 218.01 449.218 218.349 449.698C218.448 449.865 218.509 450.052 218.527 450.245C218.546 450.439 218.521 450.634 218.455 450.817ZM216.149 451.041C216.588 450.751 216.786 450.439 216.742 450.106C216.742 449.763 216.413 449.447 215.886 449.131L215.227 448.749L212.407 450.58L213.066 450.962H213.172C213.634 451.23 214.153 451.383 214.687 451.409C215.21 451.423 215.725 451.276 216.162 450.988" fill="white"/>
<path d="M136.085 439.9L138.482 441.336L131.921 445.602L130.643 444.838L136.216 441.23L135.083 440.545L136.085 439.9Z" fill="white"/>
<path d="M143.384 444.101L143.515 444.18C144.24 444.615 144.648 445.062 144.727 445.497C144.806 445.931 144.543 446.392 143.95 446.814C143.354 447.167 142.689 447.387 142 447.459C141.127 447.58 140.245 447.62 139.365 447.577C138.483 447.539 137.603 447.451 136.73 447.314L140.287 449.434L139.418 450L134.148 446.893L134.925 446.392C136.51 446.611 138.108 446.721 139.708 446.721C140.698 446.789 141.689 446.593 142.58 446.155C142.715 446.091 142.832 445.995 142.921 445.876C143.011 445.757 143.07 445.618 143.094 445.47C143.094 445.233 142.896 444.983 142.474 444.733H142.395C141.996 444.503 141.537 444.397 141.078 444.43C140.574 444.47 140.086 444.628 139.655 444.891L138.482 444.193C139.243 443.744 140.116 443.52 140.999 443.548C141.828 443.528 142.648 443.718 143.384 444.101Z" fill="white"/>
<path d="M155.939 456.98L157.006 457.612L156.071 458.218L155.03 457.585L153.607 458.507L152.382 457.783L153.792 456.861L149.984 454.596L150.88 454.017L158.93 453.437L160.248 454.214L155.939 456.98ZM154.806 456.295L157.823 454.346L152.158 454.728L154.793 456.295" fill="white"/>
<path d="M150.617 448.302L150.775 448.394C151.185 448.616 151.54 448.926 151.816 449.302C151.909 449.427 151.973 449.571 152.003 449.724C152.033 449.877 152.027 450.034 151.987 450.185C151.881 450.5 151.66 450.763 151.368 450.922C150.943 451.208 150.444 451.363 149.932 451.37C149.371 451.384 148.815 451.262 148.311 451.014C148.638 451.303 148.861 451.692 148.943 452.121C148.943 452.463 148.737 452.779 148.324 453.069C147.734 453.438 147.043 453.614 146.348 453.569C145.586 453.532 144.845 453.31 144.187 452.924L144.029 452.832C143.383 452.531 142.878 451.994 142.619 451.33C142.488 450.804 142.734 450.295 143.357 449.803L144.556 450.514C144.416 450.604 144.304 450.729 144.229 450.877C144.155 451.026 144.122 451.191 144.134 451.357C144.134 451.66 144.424 451.936 144.872 452.213H144.965C145.318 452.417 145.716 452.53 146.124 452.542C146.505 452.552 146.88 452.451 147.204 452.252C147.56 452.015 147.679 451.725 147.56 451.409C147.298 450.966 146.908 450.612 146.44 450.395L146.15 450.224L147.033 449.658L147.323 449.829L147.56 449.974C147.916 450.245 148.341 450.409 148.786 450.449C149.231 450.488 149.679 450.401 150.076 450.198C150.379 450 150.511 449.79 150.472 449.553C150.422 449.401 150.342 449.262 150.235 449.144C150.128 449.026 149.998 448.932 149.852 448.868H149.76C149.417 448.675 149.033 448.567 148.64 448.552C148.183 448.533 147.729 448.632 147.323 448.842L146.137 448.131C146.816 447.739 147.594 447.551 148.377 447.591C149.169 447.647 149.937 447.89 150.617 448.302Z" fill="white"/>
<path d="M180.05 469.542C180.05 470.043 179.747 470.517 179.048 470.978C178.621 471.256 178.141 471.444 177.639 471.531C177.094 471.634 176.536 471.634 175.992 471.531C175.455 471.439 174.938 471.257 174.463 470.991L174.279 470.886C173.185 470.24 172.737 469.569 172.961 468.989C173.335 468.152 173.98 467.465 174.793 467.04C175.777 466.358 176.903 465.907 178.086 465.724C179.08 465.611 180.083 465.824 180.945 466.329L181.104 466.421C181.828 466.856 182.223 467.317 182.25 467.738C182.247 468 182.179 468.258 182.053 468.487C181.926 468.717 181.745 468.912 181.525 469.055L180.379 468.37C180.985 467.817 180.906 467.33 180.168 466.882H180.102C179.581 466.593 178.98 466.482 178.389 466.566C177.61 466.703 176.872 467.014 176.229 467.475L175.926 467.686C176.405 467.526 176.917 467.49 177.415 467.58C177.919 467.655 178.405 467.82 178.851 468.068H178.956C179.65 468.55 180.014 469.042 180.05 469.542ZM177.915 470.293C178.363 470.003 178.561 469.714 178.534 469.398C178.508 469.082 178.245 468.792 177.783 468.515H177.704C177.298 468.293 176.849 468.159 176.387 468.12C175.898 468.07 175.406 468.186 174.99 468.449C174.82 468.533 174.675 468.66 174.569 468.817C174.463 468.974 174.399 469.156 174.384 469.345C174.384 469.678 174.648 470.003 175.175 470.319H175.254C175.657 470.547 176.109 470.674 176.571 470.688C177.039 470.695 177.498 470.562 177.889 470.306" fill="white"/>
<path d="M170.722 460.39L175.557 463.274L174.608 463.88L170.893 461.668L168.943 462.985C169.343 462.966 169.743 463.011 170.129 463.116C170.519 463.218 170.895 463.369 171.249 463.564H171.328C171.751 463.787 172.102 464.125 172.342 464.538C172.416 464.688 172.455 464.852 172.455 465.019C172.455 465.186 172.416 465.35 172.342 465.5C172.145 465.849 171.859 466.14 171.512 466.342C170.817 466.79 170.007 467.028 169.18 467.027C168.343 467.035 167.519 466.817 166.795 466.395L166.624 466.29C166.008 465.985 165.535 465.451 165.307 464.802C165.251 464.524 165.286 464.236 165.407 463.979C165.528 463.723 165.728 463.513 165.979 463.38L167.178 464.091C167.059 464.183 166.967 464.304 166.909 464.442C166.851 464.581 166.83 464.732 166.848 464.881C166.904 465.046 166.992 465.199 167.107 465.33C167.223 465.461 167.363 465.568 167.52 465.645H167.599C168.019 465.888 168.497 466.011 168.983 466C169.453 465.968 169.908 465.814 170.3 465.552C170.695 465.289 170.893 465.026 170.867 464.723C170.84 464.42 170.603 464.143 170.142 463.867H170.076C169.774 463.693 169.444 463.573 169.101 463.511C168.761 463.45 168.413 463.45 168.073 463.511L166.901 462.813L170.722 460.39Z" fill="white"/>
<path d="M193.673 478.734C193.635 478.926 193.555 479.107 193.439 479.264C193.323 479.421 193.173 479.55 193.001 479.643C192.326 480.066 191.525 480.243 190.735 480.143C189.886 480.063 189.063 479.803 188.323 479.379L188.165 479.287C187.496 478.968 186.967 478.415 186.677 477.733C186.518 477.193 186.756 476.719 187.401 476.311C187.83 476.031 188.326 475.872 188.837 475.85C189.423 475.823 190.009 475.908 190.563 476.1C190.431 475.984 190.327 475.84 190.259 475.678C190.191 475.516 190.16 475.341 190.168 475.165C190.204 474.995 190.277 474.835 190.381 474.696C190.486 474.557 190.62 474.443 190.774 474.362C191.132 474.137 191.539 474.002 191.96 473.967C192.471 473.909 192.989 473.945 193.488 474.072C194.014 474.199 194.519 474.399 194.99 474.665L195.161 474.757C195.621 475 196.022 475.342 196.334 475.758C196.444 475.883 196.525 476.032 196.568 476.194C196.612 476.355 196.619 476.524 196.587 476.688C196.555 476.852 196.486 477.007 196.385 477.14C196.284 477.273 196.154 477.382 196.005 477.457C195.629 477.696 195.198 477.837 194.753 477.865C194.235 477.892 193.716 477.821 193.225 477.654C193.377 477.788 193.497 477.954 193.575 478.142C193.653 478.329 193.686 478.532 193.673 478.734ZM191.854 478.892C192.25 478.642 192.381 478.365 192.276 478.062C192.09 477.677 191.779 477.366 191.393 477.18H191.288C190.882 476.949 190.434 476.801 189.97 476.746C189.511 476.689 189.046 476.791 188.653 477.035C188.284 477.285 188.139 477.562 188.205 477.865C188.361 478.268 188.668 478.594 189.061 478.773H189.167C189.594 479.021 190.071 479.17 190.563 479.208C191.026 479.256 191.49 479.144 191.881 478.892H191.854ZM191.881 475.179C191.551 475.402 191.42 475.639 191.485 475.903C191.623 476.254 191.893 476.537 192.236 476.693H192.342C192.709 476.903 193.119 477.029 193.541 477.062C193.947 477.103 194.356 477.006 194.7 476.785C195.03 476.561 195.161 476.324 195.095 476.048C194.952 475.7 194.684 475.419 194.344 475.258H194.239C193.872 475.047 193.462 474.921 193.04 474.889C192.629 474.848 192.217 474.946 191.868 475.165" fill="white"/>
<path d="M185.28 469.147L190.247 472.097L189.443 472.624L180.84 474.718L179.575 473.954L188.099 471.965L184.371 469.74L185.28 469.147Z" fill="white"/>
<path d="M222.947 492.6C222.599 493.449 221.959 494.144 221.142 494.562C220.213 495.191 219.155 495.605 218.046 495.774C217.05 495.897 216.04 495.689 215.174 495.181L215.016 495.089C214.015 494.497 213.606 493.878 213.778 493.246C214.134 492.395 214.778 491.697 215.596 491.27C216.518 490.638 217.572 490.223 218.679 490.059C219.672 489.942 220.677 490.155 221.538 490.665L221.696 490.757C222.657 491.336 223.119 491.955 222.947 492.6ZM219.93 493.838C220.497 493.521 220.977 493.068 221.327 492.521C221.524 492.126 221.327 491.758 220.694 491.402H220.589C220.07 491.093 219.454 490.989 218.863 491.112C218.132 491.292 217.439 491.604 216.821 492.034C216.245 492.348 215.756 492.801 215.398 493.351C215.2 493.746 215.398 494.115 216.044 494.483H216.11C216.643 494.806 217.278 494.914 217.888 494.786C218.622 494.595 219.317 494.279 219.943 493.851" fill="white"/>
<path d="M214.094 486.332L216.505 487.768L209.93 492.034L208.652 491.27L214.226 487.649L213.106 486.991L214.094 486.332Z" fill="white"/>
<path d="M211.077 485.371C210.713 486.199 210.076 486.878 209.272 487.293C208.289 487.961 207.175 488.41 206.004 488.61C205.023 488.742 204.026 488.543 203.172 488.044L203.027 487.965C202.289 487.531 201.881 487.056 201.828 486.569C201.823 486.31 201.883 486.054 202.003 485.824C202.123 485.594 202.298 485.397 202.513 485.252L203.659 485.937C203.534 486.024 203.433 486.14 203.364 486.276C203.295 486.412 203.261 486.562 203.264 486.714C203.303 486.876 203.379 487.028 203.487 487.156C203.594 487.284 203.73 487.385 203.883 487.452H203.949C204.464 487.745 205.063 487.856 205.649 487.768C206.433 487.633 207.176 487.322 207.822 486.859L208.139 486.648C207.649 486.8 207.13 486.836 206.624 486.754C206.12 486.677 205.634 486.512 205.187 486.266H205.082C204.344 485.827 203.958 485.358 203.923 484.857C203.923 484.357 204.226 483.883 204.911 483.435C205.344 483.155 205.827 482.963 206.334 482.869C206.883 482.771 207.445 482.771 207.994 482.869C208.526 482.969 209.038 483.155 209.509 483.422L209.693 483.527C210.8 484.12 211.248 484.752 211.077 485.371ZM208.995 485.963C209.165 485.88 209.31 485.753 209.417 485.596C209.523 485.439 209.586 485.257 209.601 485.068C209.601 484.739 209.338 484.41 208.811 484.094H208.732C208.328 483.869 207.876 483.747 207.414 483.738C206.945 483.735 206.486 483.873 206.097 484.133C205.649 484.423 205.451 484.712 205.477 485.029C205.504 485.345 205.754 485.634 206.215 485.911H206.281C206.542 486.053 206.821 486.159 207.111 486.227C207.447 486.282 207.79 486.282 208.125 486.227C208.45 486.2 208.763 486.091 209.035 485.911" fill="white"/>
<path d="M230.628 497.17C230.281 498.019 229.641 498.715 228.823 499.132C227.898 499.768 226.839 500.182 225.727 500.343C224.744 500.462 223.748 500.253 222.895 499.751L222.71 499.646C221.722 499.053 221.3 498.447 221.459 497.802C221.819 496.949 222.467 496.25 223.29 495.827C224.213 495.196 225.267 494.782 226.373 494.615C227.371 494.499 228.379 494.712 229.245 495.221L229.403 495.313C230.396 495.919 230.804 496.538 230.628 497.17ZM227.611 498.408C228.186 498.096 228.671 497.643 229.021 497.091C229.192 496.696 229.021 496.327 228.389 495.971H228.31C227.781 495.649 227.151 495.537 226.544 495.655C225.815 495.84 225.123 496.152 224.502 496.577C223.928 496.894 223.44 497.346 223.079 497.894C222.895 498.276 223.079 498.658 223.725 499.027H223.83C224.348 499.338 224.965 499.442 225.556 499.316C226.292 499.131 226.988 498.814 227.611 498.381" fill="white"/>
<path d="M141.183 460.43L138.087 465.302L137.007 464.657L137.718 463.603L135.083 462.023L133.41 462.51L132.33 461.865L140.024 459.745L141.183 460.43ZM136.045 461.747L138.127 462.985L139.655 460.693L136.058 461.733" fill="white"/>
<path d="M133.173 455.557L137.244 457.967L136.546 458.428L129.484 459.271L132.527 461.088L131.803 461.549L127.653 459.073L128.325 458.626L135.373 457.757L132.461 456.018L133.173 455.557Z" fill="white"/>
<path d="M131.118 454.333L132.132 454.925L126.651 458.481L125.65 457.888L131.118 454.333Z" fill="white"/>
<path d="M127.165 451.976L128.166 452.568L123.384 455.676L125.545 456.967L124.859 457.414L121.684 455.531L127.165 451.976Z" fill="white"/>
<path d="M122.593 449.25L126.177 451.383L125.452 451.857L122.883 450.316L121.223 451.396L123.542 452.766L122.857 453.214L120.538 451.844L118.839 452.937L121.421 454.465L120.696 454.939L117.113 452.805L122.593 449.25Z" fill="white"/>
<path d="M159.154 471.017L160.155 471.61L157.863 473.098L160.814 474.862L163.107 473.374L164.121 473.967L158.64 477.522L157.626 476.917L160.089 475.323L157.138 473.572L154.688 475.165L153.673 474.56L159.154 471.017Z" fill="white"/>
<path d="M153.897 467.883L158.39 470.57L157.692 471.03L155.939 469.99L151.17 473.072L150.155 472.466L154.912 469.371L153.173 468.344L153.897 467.883Z" fill="white"/>
<path d="M149.8 465.447L153.383 467.58L152.672 468.041L150.103 466.514L148.443 467.593L150.748 468.963L150.063 469.411L147.758 468.028L146.058 469.134L148.627 470.675L147.903 471.136L144.332 469.003L149.8 465.447Z" fill="white"/>
<path d="M145.373 466.698C145.359 466.858 145.305 467.013 145.215 467.146C145.125 467.28 145.003 467.389 144.859 467.462C144.383 467.76 143.825 467.898 143.265 467.857C142.646 467.808 142.047 467.619 141.513 467.304L141.355 467.212L138.864 465.724L144.345 462.168L146.783 463.617C147.265 463.836 147.649 464.225 147.863 464.71C147.955 465.078 147.784 465.394 147.362 465.671C147.015 465.891 146.614 466.014 146.203 466.026C145.776 466.043 145.35 465.972 144.951 465.816C145.089 465.917 145.199 466.05 145.272 466.204C145.346 466.358 145.38 466.528 145.373 466.698ZM143.937 466.777C144.214 466.606 144.319 466.395 144.266 466.171C144.136 465.867 143.896 465.622 143.594 465.487L142.277 464.736L140.538 465.868L141.855 466.632C142.177 466.823 142.537 466.94 142.909 466.975C143.241 467.006 143.575 466.928 143.858 466.751L143.937 466.777ZM144.543 463.235L142.909 464.288L144.161 465.026H144.253C144.535 465.19 144.85 465.289 145.175 465.315C145.49 465.337 145.804 465.258 146.071 465.091C146.175 465.043 146.26 464.964 146.317 464.865C146.374 464.766 146.398 464.652 146.387 464.538C146.387 464.341 146.124 464.117 145.755 463.893L144.543 463.169" fill="white"/>
<path d="M201.301 496.103L203.303 497.302L197.836 500.857L196.769 500.212L201.419 497.209L200.471 496.643L201.301 496.103Z" fill="white"/>
<path d="M213.185 500.883L214.173 501.476L203.066 505.663L202.091 505.084L213.185 500.883Z" fill="white"/>
<path d="M214.924 504.083H215.016C215.622 504.452 215.951 504.821 216.017 505.203C216.083 505.584 215.859 505.953 215.372 506.269C214.872 506.563 214.315 506.747 213.738 506.809C213.014 506.908 212.281 506.939 211.551 506.901C210.801 506.872 210.053 506.797 209.311 506.677L212.289 508.442L211.564 508.903L207.23 506.269L207.888 505.848C209.198 506.029 210.519 506.122 211.841 506.124C212.668 506.179 213.495 506.016 214.239 505.65C214.515 505.466 214.673 505.282 214.673 505.084C214.673 504.887 214.515 504.676 214.16 504.465H214.081C213.764 504.288 213.402 504.205 213.04 504.228C212.624 504.261 212.222 504.392 211.867 504.61L210.892 504.031C211.521 503.657 212.243 503.47 212.974 503.491C213.662 503.526 214.332 503.73 214.924 504.083Z" fill="white"/>
<path d="M206.505 499.079L206.624 499.145C207.23 499.514 207.559 499.883 207.625 500.264C207.691 500.646 207.48 501.015 206.979 501.331C206.48 501.626 205.923 501.81 205.346 501.871C204.621 501.97 203.889 502.001 203.159 501.963C202.413 501.935 201.67 501.864 200.932 501.752L203.896 503.517L203.185 503.978L198.824 501.344L199.483 500.923C200.792 501.104 202.113 501.196 203.435 501.199C204.262 501.254 205.089 501.091 205.833 500.725C206.123 500.541 206.268 500.357 206.268 500.146C206.268 499.935 206.097 499.738 205.754 499.527C205.426 499.338 205.052 499.247 204.674 499.264C204.255 499.302 203.85 499.433 203.488 499.646L202.513 499.066C203.145 498.69 203.872 498.502 204.608 498.526C205.275 498.556 205.926 498.745 206.505 499.079Z" fill="white"/>
<path d="M218.191 506.045L222.21 508.442L221.432 508.942L218.336 507.112L216.702 508.166C217.035 508.149 217.369 508.184 217.69 508.271C218.017 508.359 218.331 508.487 218.626 508.653H218.705C219.059 508.832 219.352 509.112 219.548 509.456C219.613 509.58 219.647 509.718 219.647 509.858C219.647 509.998 219.613 510.135 219.548 510.259C219.386 510.549 219.15 510.79 218.863 510.957C218.288 511.336 217.615 511.537 216.926 511.537C216.224 511.542 215.533 511.36 214.924 511.01L214.792 510.931C214.53 510.81 214.296 510.638 214.101 510.426C213.907 510.213 213.756 509.964 213.659 509.693C213.622 509.461 213.657 509.224 213.758 509.013C213.859 508.801 214.022 508.625 214.225 508.508L215.227 509.1C215.127 509.176 215.05 509.277 215.003 509.393C214.957 509.509 214.943 509.636 214.963 509.759C215.008 509.898 215.082 510.026 215.179 510.135C215.277 510.244 215.396 510.331 215.53 510.391H215.609C215.951 510.595 216.344 510.695 216.742 510.681C217.151 510.665 217.547 510.538 217.888 510.312C218.217 510.088 218.376 509.864 218.362 509.627C218.349 509.39 218.152 509.14 217.756 508.916H217.69C217.442 508.773 217.17 508.675 216.887 508.626C216.604 508.567 216.313 508.567 216.03 508.626L215.042 508.034L218.191 506.045Z" fill="white"/>
<path d="M296.53 496.485L297.663 497.157L295.449 498.592L299.744 498.408L301.101 499.211L296.306 499.356L296.174 502.411L294.817 501.594L294.988 498.895L292.722 500.357L291.602 499.685L296.53 496.485Z" fill="white"/>
<path d="M290.746 493.035L291.866 493.707L291.009 497.394L294.382 495.208L295.515 495.879L290.575 499.079L289.455 498.408L290.285 494.734L286.938 496.906L285.805 496.235L290.746 493.035Z" fill="white"/>
<path d="M288.006 491.481L285.199 495.879L284.013 495.168L284.58 494.273L282.314 492.956L280.996 493.364L279.797 492.653L286.741 490.73L288.006 491.481ZM283.394 492.64L285.054 493.628L286.306 491.784L283.394 492.64Z" fill="white"/>
<path d="M281.207 490.862C281.188 491.006 281.136 491.143 281.053 491.262C280.971 491.381 280.861 491.479 280.733 491.547C280.301 491.818 279.792 491.943 279.284 491.902C278.726 491.855 278.186 491.684 277.703 491.402L277.545 491.31L275.133 489.875L280.061 486.675L282.432 488.084C282.999 488.426 283.342 488.755 283.421 489.071C283.5 489.387 283.355 489.69 282.959 489.94C282.654 490.142 282.298 490.256 281.932 490.27C281.554 490.285 281.177 490.222 280.825 490.085C280.946 490.175 281.044 490.292 281.11 490.428C281.176 490.563 281.21 490.712 281.207 490.862ZM278.981 490.954C279.24 490.977 279.5 490.912 279.718 490.77C279.942 490.625 280.021 490.467 279.982 490.296C279.942 490.125 279.771 489.954 279.455 489.769L278.401 489.137L277.083 490.019L278.151 490.651H278.243C278.478 490.784 278.738 490.865 279.007 490.888L278.981 490.954ZM280.417 487.794L279.099 488.624L280.1 489.216C280.329 489.352 280.586 489.433 280.851 489.453C281.092 489.473 281.333 489.413 281.537 489.282C281.734 489.15 281.826 489.005 281.8 488.847C281.774 488.689 281.602 488.518 281.313 488.347L280.311 487.754" fill="white"/>
<path d="M158.838 428.325L165.742 432.381L164.582 433.132L152.461 429.721L151.908 429.392L153.765 428.193C154.528 427.788 155.378 427.575 156.242 427.575C157.106 427.575 157.957 427.788 158.719 428.193L158.838 428.325Z" fill="#F8C401"/>
<path d="M165.188 433.355L166.189 432.71L165.965 432.579L168.943 434.343L168.877 434.396L165.188 433.355Z" fill="#F8C401"/>
<path d="M161.539 435.173L152.461 429.787L164.595 433.184L161.539 435.173Z" fill="#F8C401"/>
<path d="M151.921 429.458L152.461 429.787L161.539 435.173L161.143 435.423L151.539 429.708L151.723 429.576L151.921 429.458Z" fill="#F15A24"/>
<path d="M165.188 433.355L168.877 434.396L164.74 437.082L161.973 435.436L165.188 433.355Z" fill="#F8C401"/>
<path d="M169.167 434.475L169.391 434.606L164.793 437.596L161.591 435.686L161.973 435.436L164.74 437.082L168.877 434.396L168.943 434.343L169.167 434.475Z" fill="#F15A24"/>
<path d="M146.822 432.75L151.512 429.747L161.117 435.476L156.361 438.557L146.743 432.842L146.822 432.75Z" fill="#F8C401"/>
<path d="M165.965 432.579L166.189 432.71L165.188 433.355L161.973 435.436L161.591 435.686L156.835 438.781L156.387 438.518L161.143 435.423L161.539 435.173L164.595 433.184L165.741 432.434L165.965 432.579Z" fill="#F15A24"/>
<path d="M147.165 435.897C145.847 435.12 145.571 433.922 146.427 433.079L155.992 438.768L154.068 440.019L147.165 435.897Z" fill="#F8C401"/>
<path d="M156.387 438.518L156.835 438.781L159.602 440.414L159.207 440.677L156.44 439.031L156.005 438.768L146.427 433.066L146.387 433.039L146.756 432.802L156.387 438.518Z" fill="#F15A24"/>
<path d="M154.082 440.006L156.005 438.768L156.44 439.031L154.53 440.269L154.516 440.282L154.082 440.006Z" fill="#F15A24"/>
<path d="M154.53 440.269L156.44 439.031L159.207 440.677L157.283 441.915L154.53 440.269Z" fill="#F8C401"/>
<path d="M162.975 438.768L165.201 440.085L159.944 443.495L160.168 443.627L157.718 442.178L162.975 438.768Z" fill="#F8C401"/>
<path d="M162.935 438.254L166.031 440.098L162.698 442.257L162.303 442.521L160.392 443.759L160.168 443.627L159.944 443.495L165.201 440.085L162.975 438.768L157.718 442.178L157.283 441.915L159.207 440.677L159.602 440.414L162.935 438.254Z" fill="#F15A24"/>
<path d="M173.106 436.819C174.582 437.714 174.753 439.11 173.436 439.966L166.492 444.47L162.738 442.231L166.071 440.071L162.975 438.228L159.641 440.387L156.875 438.741L161.631 435.66L164.832 437.569L169.431 434.58L169.207 434.448L173.106 436.819Z" fill="#F8C401"/>
<path d="M166.453 444.496L166.255 444.628L166.058 444.746L166.018 444.72L162.303 442.521L162.698 442.257L166.453 444.496Z" fill="#F15A24"/>
<path d="M160.392 443.759L162.316 442.508L166.018 444.707C165.295 444.981 164.521 445.098 163.749 445.05C162.976 445.003 162.223 444.791 161.539 444.43H161.433L160.116 443.666L160.392 443.759Z" fill="#F8C401"/>
<path d="M218.639 532.106C224.54 532.106 229.324 529.146 229.324 525.495C229.324 521.844 224.54 518.885 218.639 518.885C212.738 518.885 207.954 521.844 207.954 525.495C207.954 529.146 212.738 532.106 218.639 532.106Z" fill="#F15A24"/>
<path d="M228.349 537.373C234.25 537.373 239.034 534.413 239.034 530.763C239.034 527.112 234.25 524.152 228.349 524.152C222.448 524.152 217.664 527.112 217.664 530.763C217.664 534.413 222.448 537.373 228.349 537.373Z" fill="#FBB03B"/>
<path opacity="0.32" d="M394.525 503.214C399.308 504.676 404.117 506.124 409.018 507.165C412.02 507.697 415.051 508.045 418.095 508.205L423.194 504.755L458.49 478.471L431.481 469.49L367.583 491.731C375.488 497.512 385.277 500.37 394.525 503.214Z" fill="url(#paint1_linear)"/>
<path d="M444.419 451.251C438.042 450.698 431.336 448.776 426.62 444.417V463.301C426.62 468.497 428.685 473.481 432.362 477.156C436.038 480.831 441.025 482.895 446.224 482.895C451.423 482.895 456.41 480.831 460.086 477.156C463.763 473.481 465.828 468.497 465.828 463.301V444.101C459.149 446.866 451.56 451.87 444.419 451.251Z" fill="#68E1FD"/>
<path d="M446.237 454.688C457.064 454.688 465.842 450.037 465.842 444.298C465.842 438.56 457.064 433.909 446.237 433.909C435.41 433.909 426.633 438.56 426.633 444.298C426.633 450.037 435.41 454.688 446.237 454.688Z" fill="#5ED18D"/>
<path d="M446.237 446.05C446.237 446.05 432.904 444.088 429.373 422.531C429.373 422.544 440.743 428.812 446.237 446.05Z" fill="#5ED18D"/>
<path d="M448.2 443.311C448.2 443.311 432.904 415.881 448.2 397.458C452.868 412.386 452.868 428.383 448.2 443.311Z" fill="#5ED18D"/>
<path d="M446.237 426.073C446.237 426.073 432.904 424.111 429.373 402.554C429.373 402.554 440.743 408.823 446.237 426.073Z" fill="#5ED18D"/>
<path d="M447.858 434.857C447.858 434.857 444.524 421.807 463.049 410.232C463.049 410.232 461.652 423.163 447.858 434.857Z" fill="#5ED18D"/>
<path d="M446.237 454.688C457.064 454.688 465.842 450.037 465.842 444.298C465.842 438.56 457.064 433.909 446.237 433.909C435.41 433.909 426.633 438.56 426.633 444.298C426.633 450.037 435.41 454.688 446.237 454.688Z" fill="#146666"/>
<path d="M446.237 446.05C446.237 446.05 432.904 444.088 429.373 422.531C429.373 422.544 440.743 428.812 446.237 446.05Z" fill="#5ED18D"/>
<path d="M448.2 443.311C448.2 443.311 432.904 415.881 448.2 397.458C452.868 412.386 452.868 428.383 448.2 443.311Z" fill="#5ED18D"/>
<path d="M446.237 426.073C446.237 426.073 432.904 424.111 429.373 402.554C429.373 402.554 440.743 408.823 446.237 426.073Z" fill="#5ED18D"/>
<path d="M447.858 434.857C447.858 434.857 444.524 421.807 463.049 410.232C463.049 410.232 461.652 423.163 447.858 434.857Z" fill="#5ED18D"/>
<path d="M168.824 459.166L243.737 415.262C246.088 413.887 248.76 413.154 251.483 413.135C254.207 413.117 256.888 413.814 259.258 415.157L392.839 490.928C394.427 491.857 395.744 493.185 396.659 494.78C397.575 496.375 398.056 498.182 398.056 500.021C398.056 501.86 397.575 503.667 396.659 505.262C395.744 506.857 394.427 508.185 392.839 509.114L319.586 551.121C316.084 553.13 312.113 554.178 308.075 554.157C304.037 554.136 300.077 553.048 296.596 551.003L168.706 475.942C167.25 475.073 166.047 473.838 165.215 472.361C164.384 470.884 163.952 469.215 163.964 467.52C163.976 465.825 164.431 464.163 165.284 462.697C166.136 461.232 167.357 460.015 168.824 459.166Z" fill="#BA3D3A"/>
<path d="M168.824 455.018L243.737 411.153C246.088 409.778 248.76 409.045 251.483 409.026C254.207 409.008 256.888 409.705 259.258 411.048L392.839 486.819C394.427 487.748 395.744 489.076 396.659 490.671C397.575 492.266 398.056 494.073 398.056 495.912C398.056 497.751 397.575 499.558 396.659 501.153C395.744 502.748 394.427 504.076 392.839 505.005L319.586 547.012C316.101 549.01 312.152 550.056 308.135 550.044C304.117 550.032 300.174 548.964 296.701 546.947L168.811 471.886C167.329 471.032 166.098 469.802 165.242 468.321C164.387 466.839 163.937 465.159 163.938 463.448C163.939 461.738 164.392 460.058 165.25 458.578C166.108 457.098 167.341 455.87 168.824 455.018Z" fill="#DD5E57"/>
<path d="M246.926 424.651L247.058 424.717C247.654 424.997 248.124 425.49 248.375 426.1C248.446 426.352 248.444 426.62 248.369 426.871C248.294 427.123 248.15 427.348 247.953 427.522L246.504 426.653C246.558 426.556 246.587 426.447 246.587 426.337C246.587 426.226 246.558 426.117 246.504 426.021C246.38 425.766 246.177 425.558 245.925 425.428C245.522 425.206 245.066 425.101 244.607 425.125C244.11 425.146 243.627 425.301 243.21 425.573C242.776 425.849 242.565 426.139 242.565 426.455C242.577 426.631 242.638 426.801 242.74 426.945C242.842 427.089 242.982 427.202 243.145 427.272H243.237C243.516 427.421 243.819 427.519 244.133 427.561C244.472 427.627 244.821 427.627 245.16 427.561L246.61 428.417C245.896 428.706 245.123 428.819 244.357 428.747C243.607 428.691 242.878 428.47 242.222 428.101L242.077 428.022C241.609 427.778 241.217 427.409 240.944 426.956C240.846 426.783 240.787 426.59 240.773 426.392C240.76 426.193 240.791 425.994 240.865 425.81C241.074 425.371 241.409 425.005 241.827 424.756C242.328 424.435 242.888 424.216 243.474 424.111C244.666 423.899 245.894 424.104 246.952 424.691L246.926 424.651Z" fill="white"/>
<path d="M241.445 437.082L245.134 438.122L240.997 440.796L238.244 439.163L241.445 437.082Z" fill="#F8C401"/>
<path d="M237.796 438.899L228.758 433.513L240.852 436.911L237.796 438.899Z" fill="#F8C401"/>
<path d="M228.178 433.171L228.758 433.513L237.796 438.899L237.414 439.15L227.796 433.434L228.178 433.171Z" fill="#F15A24"/>
<path d="M245.213 438.07L245.648 438.333L241.05 441.322L237.861 439.413L238.244 439.163L240.997 440.796L245.134 438.122L245.213 438.07Z" fill="#F15A24"/>
<path d="M223.092 436.476L227.796 433.421L237.414 439.136L232.657 442.218L223.04 436.49L223.092 436.476Z" fill="#F8C401"/>
<path d="M242.012 436.174L242.46 436.437L241.445 437.082L238.244 439.163L237.861 439.413L233.105 442.508L232.657 442.231L237.414 439.15L237.796 438.899L240.852 436.911L242.012 436.174Z" fill="#F15A24"/>
<path d="M232.262 442.481L230.339 443.732L230.563 443.864L223.422 439.61C222.104 438.82 221.841 437.635 222.697 436.779L232.262 442.481Z" fill="#F8C401"/>
<path d="M232.657 442.231L233.105 442.508L235.859 444.14L235.464 444.391L232.71 442.758L232.262 442.481L222.697 436.792L222.658 436.766L223.026 436.529L232.657 442.231Z" fill="#F15A24"/>
<path d="M230.339 443.732L232.262 442.481L232.71 442.758L230.787 443.996L230.563 443.864L230.339 443.732Z" fill="#F15A24"/>
<path d="M235.464 444.391L233.54 445.642L233.764 445.76L230.786 443.996L232.71 442.758L235.464 444.391Z" fill="#F8C401"/>
<path d="M239.245 442.494L241.458 443.811L236.201 447.222L236.425 447.354L233.988 445.905L239.245 442.494Z" fill="#F8C401"/>
<path d="M239.192 441.968L242.301 443.824L238.955 445.984L238.573 446.234L236.649 447.485L236.425 447.354L236.201 447.222L241.458 443.811L239.245 442.494L233.988 445.905L233.764 445.76L233.54 445.642L235.464 444.391L235.859 444.14L239.192 441.968Z" fill="#F15A24"/>
<path d="M249.363 440.545C250.865 441.441 251.01 442.85 249.706 443.68L242.763 448.183L239.008 445.945L242.354 443.785L239.258 441.941L235.833 444.14L233.079 442.494L237.835 439.413L241.037 441.309L245.635 438.333L245.187 438.07H245.108L241.419 437.029L242.42 436.384L241.972 436.121L240.813 436.871L228.718 433.474L228.138 433.132L229.996 431.933C230.758 431.527 231.609 431.315 232.473 431.315C233.337 431.315 234.187 431.527 234.95 431.933H235.055L249.363 440.545Z" fill="#F8C401"/>
<path d="M242.71 448.223L242.512 448.354L242.328 448.473L242.288 448.447L238.573 446.234L238.955 445.984L242.71 448.223Z" fill="#F15A24"/>
<path d="M236.649 447.485L238.573 446.234L242.288 448.447C241.565 448.721 240.791 448.839 240.019 448.791C239.246 448.744 238.493 448.532 237.809 448.17H237.703L236.649 447.485Z" fill="#F8C401"/>
<path d="M252.051 430.827C251.538 430.849 251.027 430.764 250.549 430.577L249.943 432.631L248.441 431.736L249.087 429.8L248.77 429.616L246.913 430.827L245.595 430.024L250.536 426.824L252.855 428.207C253.225 428.403 253.545 428.683 253.79 429.023C253.873 429.133 253.928 429.26 253.951 429.395C253.974 429.531 253.964 429.669 253.922 429.8C253.81 430.079 253.605 430.312 253.342 430.458C252.955 430.7 252.507 430.828 252.051 430.827ZM251.84 429.655C252.038 429.523 252.117 429.392 252.104 429.234C252.09 429.076 251.932 428.931 251.669 428.773L250.826 428.272L249.587 429.089L250.43 429.589C250.642 429.716 250.882 429.788 251.129 429.8C251.362 429.81 251.593 429.745 251.787 429.616" fill="white"/>
<path d="M287.663 452.028C287.15 452.053 286.638 451.967 286.161 451.778L285.555 453.832L284.053 452.937L284.699 451.001L284.382 450.817L282.512 452.028L281.194 451.225L286.135 448.025L288.467 449.421C288.833 449.618 289.152 449.892 289.402 450.224C289.481 450.336 289.534 450.463 289.557 450.598C289.579 450.732 289.572 450.87 289.534 451.001C289.422 451.28 289.217 451.513 288.954 451.66C288.567 451.902 288.119 452.029 287.663 452.028ZM287.452 450.856C287.65 450.725 287.742 450.593 287.716 450.435C287.689 450.277 287.558 450.132 287.294 449.974L286.438 449.474L285.199 450.29L286.042 450.791C286.254 450.919 286.494 450.995 286.741 451.014C286.971 451.014 287.195 450.945 287.386 450.817" fill="white"/>
<path d="M283.46 446.498L280.627 450.896L279.165 450.04L279.705 449.237L277.597 447.92L276.359 448.302L274.91 447.446L281.945 445.549L283.46 446.498ZM278.862 447.617L280.272 448.46L281.392 446.866L278.875 447.617" fill="white"/>
<path d="M276.675 442.376L276.807 442.455C277.392 442.719 277.86 443.187 278.124 443.772C278.195 444.024 278.193 444.292 278.118 444.543C278.044 444.795 277.9 445.02 277.703 445.194L276.253 444.325C276.308 444.228 276.336 444.119 276.336 444.009C276.336 443.898 276.308 443.789 276.253 443.693C276.129 443.438 275.926 443.23 275.674 443.1C275.271 442.878 274.815 442.773 274.356 442.797C273.859 442.818 273.376 442.973 272.96 443.245C272.789 443.329 272.641 443.454 272.529 443.607C272.417 443.761 272.343 443.939 272.314 444.127C272.326 444.303 272.387 444.473 272.489 444.617C272.591 444.761 272.731 444.874 272.894 444.944H272.986C273.265 445.093 273.568 445.191 273.882 445.233C274.221 445.299 274.57 445.299 274.91 445.233L276.359 446.089C275.645 446.377 274.872 446.49 274.106 446.419C273.356 446.363 272.627 446.142 271.972 445.773L271.827 445.694C271.358 445.45 270.966 445.081 270.694 444.628C270.597 444.454 270.541 444.261 270.529 444.062C270.518 443.864 270.551 443.666 270.628 443.482C270.828 443.038 271.165 442.668 271.589 442.429C272.09 442.106 272.65 441.886 273.236 441.783C274.432 441.568 275.666 441.773 276.728 442.363L276.675 442.376Z" fill="white"/>
<path d="M263.381 435.963C263.197 436.402 262.873 436.767 262.459 437.003C261.977 437.323 261.435 437.543 260.865 437.648C260.238 437.763 259.595 437.763 258.968 437.648C258.358 437.526 257.771 437.308 257.229 437.003L257.084 436.924L254.963 435.607L259.89 432.407L262.011 433.724C262.538 433.986 262.991 434.375 263.329 434.857C263.417 435.026 263.468 435.213 263.477 435.404C263.486 435.595 263.454 435.786 263.381 435.963ZM261.076 436.187C261.515 435.897 261.713 435.585 261.669 435.252C261.669 434.909 261.326 434.593 260.799 434.264L260.154 433.882L257.334 435.713L257.98 436.095H258.085C258.542 436.362 259.058 436.516 259.587 436.542C260.114 436.566 260.635 436.423 261.076 436.134" fill="white"/>
<path d="M265.687 435.871L267.057 436.687L262.117 439.887L260.746 439.071L265.687 435.871Z" fill="white"/>
<path d="M267.624 437.029L272.051 439.65L271.102 440.269L269.574 439.36L265.582 441.941L264.211 441.125L268.19 438.544L266.688 437.635L267.624 437.029Z" fill="white"/>
<path d="M255.555 429.839L259.06 431.933L258.111 432.539L255.964 431.262L254.936 431.933L256.847 433.066L255.938 433.658L254.027 432.513L252.934 433.224L255.081 434.501L254.133 435.133L250.615 433.039L255.555 429.839Z" fill="white"/>
<path d="M294.712 454.609C294.526 455.048 294.202 455.413 293.789 455.65C293.289 455.967 292.728 456.178 292.142 456.269C291.515 456.383 290.872 456.383 290.245 456.269C289.65 456.153 289.076 455.944 288.546 455.65L288.361 455.544L286.24 454.227L291.167 451.028L293.289 452.344C293.816 452.605 294.269 452.995 294.606 453.477C294.707 453.646 294.769 453.835 294.787 454.031C294.806 454.227 294.78 454.425 294.712 454.609ZM292.406 454.833C292.854 454.544 293.052 454.227 293.012 453.885C292.972 453.543 292.669 453.227 292.142 452.911L291.497 452.516L288.677 454.346L289.31 454.728H289.415C289.877 454.996 290.397 455.145 290.93 455.162C291.453 455.186 291.97 455.043 292.406 454.754" fill="white"/>
<path d="M232.209 460.706L233.25 461.338L232.328 461.944L231.274 461.325L229.864 462.234L228.639 461.51L230.049 460.588L226.241 458.323L227.124 457.743L235.174 457.164L236.491 457.941L232.209 460.706ZM231.063 460.035L234.08 458.073L228.428 458.455L231.063 460.022" fill="white"/>
<path d="M226.847 452.002L227.032 452.107C227.445 452.33 227.805 452.64 228.086 453.016C228.179 453.14 228.243 453.285 228.273 453.437C228.303 453.59 228.297 453.748 228.257 453.898C228.142 454.212 227.918 454.474 227.624 454.636C227.196 454.913 226.698 455.063 226.188 455.07C225.628 455.089 225.072 454.971 224.568 454.728C224.898 455.011 225.125 455.395 225.213 455.821C225.213 456.163 225.042 456.479 224.594 456.782C224.002 457.147 223.312 457.322 222.618 457.283C221.852 457.243 221.107 457.022 220.444 456.637L220.286 456.545C219.643 456.245 219.142 455.707 218.889 455.044C218.749 454.517 218.995 454.008 219.627 453.516L220.826 454.227C220.683 454.314 220.567 454.439 220.49 454.588C220.413 454.736 220.379 454.903 220.391 455.07C220.443 455.259 220.536 455.433 220.664 455.581C220.791 455.729 220.95 455.847 221.129 455.926C221.494 456.139 221.906 456.261 222.328 456.282C222.709 456.298 223.086 456.196 223.408 455.992C223.777 455.755 223.896 455.478 223.764 455.162C223.503 454.719 223.119 454.362 222.657 454.135L222.368 453.964L223.237 453.398L223.527 453.569L223.738 453.688C224.1 453.966 224.533 454.137 224.988 454.178C225.443 454.22 225.9 454.132 226.307 453.925C226.606 453.723 226.737 453.503 226.702 453.266C226.702 453.029 226.452 452.805 226.096 452.581C225.734 452.375 225.327 452.258 224.91 452.239C224.454 452.22 223.999 452.32 223.593 452.529L222.394 451.818C223.076 451.435 223.852 451.253 224.634 451.291C225.418 451.348 226.177 451.591 226.847 452.002Z" fill="white"/>
<path d="M219.654 447.828L219.785 447.907C220.51 448.341 220.918 448.789 220.997 449.223C221.076 449.658 220.813 450.119 220.22 450.54C219.619 450.893 218.95 451.113 218.257 451.186C217.384 451.305 216.502 451.345 215.622 451.304C214.739 451.266 213.86 451.178 212.987 451.041L216.544 453.161L215.675 453.727L210.405 450.632L211.182 450.119C212.766 450.344 214.364 450.458 215.965 450.461C216.956 450.52 217.946 450.32 218.837 449.882C218.969 449.814 219.084 449.718 219.173 449.599C219.262 449.48 219.323 449.343 219.351 449.197C219.351 448.96 219.153 448.71 218.731 448.46C218.333 448.228 217.874 448.118 217.414 448.144C216.914 448.185 216.432 448.343 216.004 448.605L214.818 447.907C215.58 447.46 216.452 447.236 217.335 447.261C218.142 447.26 218.938 447.454 219.654 447.828Z" fill="white"/>
<path d="M212.341 443.627L214.753 445.062L208.178 449.329L206.913 448.565L212.486 444.944L211.353 444.272L212.341 443.627Z" fill="white"/>
<path d="M246.979 464.117L251.801 466.988L250.865 467.593L247.15 465.381L245.2 466.698C245.6 466.678 246 466.722 246.386 466.83C246.758 466.923 247.117 467.065 247.453 467.251L247.598 467.33C248.026 467.546 248.38 467.885 248.612 468.305C248.687 468.454 248.725 468.618 248.725 468.785C248.725 468.952 248.687 469.117 248.612 469.266C248.415 469.611 248.134 469.901 247.795 470.109C247.099 470.555 246.291 470.796 245.463 470.807C244.617 470.81 243.784 470.588 243.052 470.161L242.907 470.082C242.599 469.935 242.324 469.728 242.097 469.472C241.871 469.217 241.698 468.918 241.59 468.594C241.536 468.32 241.571 468.036 241.689 467.782C241.807 467.529 242.003 467.32 242.249 467.185L243.448 467.896C243.328 467.987 243.236 468.109 243.18 468.248C243.125 468.387 243.108 468.539 243.131 468.686C243.187 468.852 243.275 469.005 243.391 469.136C243.506 469.267 243.646 469.374 243.803 469.45H243.882C244.302 469.694 244.781 469.817 245.266 469.806C245.736 469.781 246.191 469.631 246.583 469.371C246.979 469.108 247.163 468.831 247.15 468.542C247.137 468.252 246.873 467.962 246.425 467.686C246.118 467.512 245.784 467.392 245.437 467.33C245.098 467.266 244.749 467.266 244.409 467.33L243.224 466.619L246.979 464.117Z" fill="white"/>
<path d="M261.55 472.874L266.517 475.824L265.713 476.337L257.11 478.444L255.832 477.681L264.356 475.692L260.641 473.467L261.55 472.874Z" fill="white"/>
<path d="M256.306 473.203C256.306 473.704 256.003 474.178 255.305 474.639C254.872 474.918 254.389 475.111 253.882 475.205C253.338 475.306 252.78 475.306 252.235 475.205C251.68 475.1 251.146 474.904 250.654 474.625L250.523 474.546C249.442 473.901 248.981 473.23 249.205 472.637C249.57 471.801 250.212 471.118 251.023 470.701C252.008 470.021 253.134 469.571 254.317 469.384C255.307 469.281 256.305 469.498 257.163 470.003L257.321 470.095C258.059 470.53 258.441 470.991 258.467 471.412C258.464 471.674 258.396 471.932 258.27 472.162C258.144 472.391 257.962 472.586 257.743 472.729L256.583 472.044C257.189 471.491 257.11 470.991 256.372 470.543C255.851 470.254 255.25 470.143 254.66 470.227C253.883 470.364 253.145 470.67 252.499 471.123L252.196 471.333C252.677 471.182 253.187 471.146 253.685 471.228C254.193 471.302 254.684 471.467 255.134 471.715H255.239C255.924 472.251 256.28 472.747 256.306 473.203ZM254.172 473.954C254.607 473.664 254.818 473.374 254.778 473.058C254.739 472.742 254.501 472.453 254.04 472.176C253.634 471.95 253.186 471.811 252.723 471.768C252.235 471.709 251.742 471.821 251.326 472.084C251.157 472.169 251.012 472.296 250.906 472.453C250.8 472.609 250.736 472.791 250.72 472.979C250.72 473.313 250.984 473.638 251.511 473.954H251.603C252.004 474.185 252.457 474.312 252.92 474.323C253.388 474.331 253.847 474.198 254.238 473.941" fill="white"/>
<path d="M269.943 482.421C269.905 482.613 269.825 482.794 269.709 482.951C269.593 483.108 269.443 483.238 269.271 483.33C268.595 483.751 267.796 483.932 267.005 483.843C266.17 483.762 265.362 483.506 264.633 483.093L264.435 482.974C263.763 482.659 263.233 482.105 262.947 481.42C262.789 480.88 263.026 480.406 263.671 479.985C264.102 479.71 264.597 479.551 265.107 479.524C265.693 479.497 266.279 479.582 266.833 479.774C266.699 479.66 266.594 479.516 266.525 479.354C266.456 479.191 266.427 479.015 266.438 478.839C266.475 478.671 266.548 478.513 266.653 478.377C266.758 478.24 266.891 478.128 267.044 478.049C267.402 477.823 267.808 477.684 268.23 477.641C268.742 477.593 269.259 477.634 269.758 477.76C270.285 477.883 270.791 478.082 271.26 478.352L271.418 478.444C271.876 478.696 272.279 479.036 272.604 479.445C272.709 479.577 272.785 479.73 272.828 479.893C272.871 480.056 272.88 480.226 272.854 480.393C272.815 480.551 272.743 480.7 272.643 480.829C272.543 480.958 272.418 481.065 272.275 481.144C271.879 481.394 271.425 481.535 270.957 481.552C270.439 481.593 269.919 481.526 269.429 481.355C269.585 481.486 269.712 481.648 269.801 481.832C269.889 482.016 269.938 482.217 269.943 482.421ZM268.124 482.579C268.507 482.329 268.638 482.052 268.533 481.75C268.356 481.362 268.048 481.05 267.663 480.867H267.558C267.151 480.639 266.703 480.492 266.24 480.433C265.781 480.371 265.314 480.473 264.923 480.722C264.541 480.973 264.396 481.249 264.475 481.565C264.631 481.968 264.938 482.294 265.331 482.474H265.437C265.863 482.723 266.341 482.871 266.833 482.908C267.296 482.954 267.76 482.843 268.151 482.592L268.124 482.579ZM268.151 478.879C267.808 479.09 267.676 479.34 267.756 479.603C267.893 479.954 268.163 480.238 268.507 480.393H268.612C268.984 480.605 269.397 480.736 269.824 480.775C270.231 480.817 270.639 480.719 270.983 480.499C271.326 480.288 271.458 480.038 271.379 479.761C271.242 479.409 270.972 479.125 270.628 478.971H270.522C270.159 478.763 269.754 478.637 269.337 478.602C268.929 478.567 268.52 478.669 268.177 478.892" fill="white"/>
<path d="M299.204 496.314C298.857 497.159 298.223 497.854 297.412 498.276C296.485 498.908 295.427 499.323 294.316 499.487C293.32 499.614 292.309 499.405 291.444 498.895L291.286 498.803C290.298 498.21 289.89 497.604 290.048 496.972C290.402 496.117 291.045 495.413 291.866 494.984C292.792 494.35 293.851 493.936 294.962 493.772C295.955 493.657 296.96 493.87 297.821 494.378L297.979 494.47C298.963 495.058 299.371 495.673 299.204 496.314ZM296.187 497.552C296.762 497.24 297.247 496.787 297.597 496.235C297.781 495.853 297.597 495.471 296.964 495.116H296.859C296.337 494.802 295.717 494.694 295.12 494.813C294.394 495.002 293.707 495.319 293.091 495.748C292.515 496.062 292.026 496.514 291.668 497.064C291.484 497.446 291.668 497.828 292.314 498.197H292.419C292.937 498.509 293.554 498.612 294.145 498.487C294.881 498.302 295.577 497.985 296.2 497.552" fill="white"/>
<path d="M290.364 490.059L292.762 491.494L286.187 495.761L284.923 494.997L290.496 491.376L289.363 490.704L290.364 490.059Z" fill="white"/>
<path d="M287.32 489.098C286.966 489.928 286.332 490.608 285.529 491.02C284.543 491.69 283.424 492.139 282.248 492.337C281.268 492.475 280.271 492.28 279.415 491.784L279.27 491.705C278.519 491.257 278.137 490.796 278.072 490.296C278.06 490.036 278.118 489.777 278.238 489.546C278.358 489.315 278.537 489.119 278.757 488.979L279.903 489.664C279.776 489.749 279.672 489.865 279.6 490.001C279.529 490.136 279.493 490.288 279.494 490.441C279.537 490.602 279.615 490.751 279.722 490.879C279.829 491.006 279.963 491.108 280.114 491.178C280.634 491.469 281.236 491.58 281.826 491.494C282.609 491.355 283.351 491.044 284 490.586L284.303 490.375C283.818 490.528 283.303 490.564 282.801 490.48C282.293 490.406 281.802 490.241 281.352 489.993H281.247C280.522 489.558 280.14 489.084 280.101 488.584C280.061 488.084 280.39 487.596 281.089 487.162C281.523 486.885 282.006 486.692 282.512 486.596C283.06 486.492 283.623 486.492 284.172 486.596C284.723 486.693 285.253 486.885 285.739 487.162L285.884 487.241C287.044 487.847 287.492 488.479 287.32 489.098ZM285.252 489.69C285.422 489.605 285.568 489.478 285.676 489.322C285.784 489.165 285.851 488.984 285.871 488.795C285.871 488.465 285.608 488.136 285.081 487.82C284.679 487.589 284.227 487.458 283.763 487.438C283.295 487.439 282.837 487.576 282.446 487.833C282.011 488.123 281.8 488.413 281.826 488.729C281.853 489.045 282.103 489.335 282.551 489.598H282.617C283.185 489.906 283.83 490.043 284.475 489.993C284.798 489.961 285.11 489.852 285.384 489.677" fill="white"/>
<path d="M306.898 500.857C306.55 501.705 305.91 502.401 305.093 502.819C304.166 503.451 303.108 503.865 301.997 504.031C300.989 504.182 299.96 503.991 299.073 503.491L298.914 503.399C297.913 502.806 297.505 502.187 297.676 501.555C298.033 500.705 298.676 500.006 299.494 499.58C300.418 498.951 301.472 498.537 302.577 498.368C303.571 498.254 304.574 498.467 305.436 498.974L305.594 499.066C306.661 499.646 307.07 500.251 306.898 500.857ZM303.881 502.095C304.448 501.777 304.928 501.325 305.278 500.778C305.476 500.383 305.278 500.014 304.646 499.646H304.58C304.049 499.329 303.42 499.221 302.814 499.343C302.084 499.526 301.392 499.838 300.772 500.264C300.196 500.578 299.707 501.031 299.349 501.581C299.152 501.976 299.349 502.345 299.995 502.714H300.061C300.59 503.033 301.22 503.141 301.826 503.017C302.561 502.828 303.256 502.511 303.881 502.082" fill="white"/>
<path d="M203.422 455.689L204.423 456.295L199.641 459.403L201.801 460.693L201.116 461.141L197.954 459.245L203.422 455.689Z" fill="white"/>
<path d="M207.374 458.06L208.402 458.665L202.921 462.208L201.907 461.602L207.374 458.06Z" fill="white"/>
<path d="M198.85 452.976L202.447 455.11L201.722 455.571L199.153 454.043L197.493 455.11L199.799 456.492L199.114 456.927L196.808 455.558L195.109 456.664L197.678 458.191L196.966 458.665L193.383 456.532L198.85 452.976Z" fill="white"/>
<path d="M217.387 464.143L214.305 469.016L213.224 468.37L213.922 467.317L211.287 465.75L209.614 466.224L208.534 465.579L216.228 463.445L217.387 464.143ZM212.249 465.46L214.318 466.698L215.833 464.42L212.236 465.46" fill="white"/>
<path d="M209.443 459.284L213.501 461.694L212.816 462.142L205.741 462.998L208.797 464.815L208.073 465.276L203.896 462.787L204.595 462.352L211.63 461.483L208.718 459.745L209.443 459.284Z" fill="white"/>
<path d="M221.643 470.425C221.628 470.588 221.571 470.745 221.479 470.881C221.387 471.017 221.262 471.127 221.116 471.202C220.637 471.502 220.073 471.641 219.509 471.597C218.875 471.541 218.263 471.343 217.717 471.017L217.598 470.951L215.121 469.463L220.589 465.908L223.04 467.37C223.672 467.738 224.028 468.107 224.12 468.463C224.212 468.818 224.028 469.134 223.606 469.411C223.265 469.637 222.869 469.765 222.46 469.779C222.037 469.792 221.616 469.72 221.221 469.569C221.352 469.67 221.458 469.8 221.531 469.948C221.604 470.097 221.642 470.259 221.643 470.425ZM220.194 470.504C220.47 470.319 220.576 470.122 220.523 469.898C220.47 469.674 220.246 469.45 219.864 469.213L218.547 468.463L216.795 469.595L218.112 470.359H218.218C218.528 470.54 218.874 470.652 219.232 470.688C219.564 470.72 219.898 470.641 220.181 470.464L220.194 470.504ZM220.853 466.935L219.219 468.002L220.457 468.752C220.754 468.929 221.088 469.033 221.432 469.055C221.743 469.08 222.054 469.001 222.315 468.831C222.565 468.673 222.671 468.489 222.631 468.278C222.592 468.068 222.381 467.857 222.012 467.633L220.787 466.909" fill="white"/>
<path d="M235.411 474.731L236.412 475.337L234.12 476.825L237.071 478.576L239.363 477.088L240.391 477.694L234.91 481.249L233.896 480.643L236.346 479.05L233.408 477.299L230.945 478.892L229.943 478.286L235.411 474.731Z" fill="white"/>
<path d="M230.154 471.61L234.66 474.283L233.948 474.757L232.196 473.704L227.44 476.798L226.412 476.192L231.169 473.111L229.443 472.071L230.154 471.61Z" fill="white"/>
<path d="M282.801 502.819H282.894C283.5 503.188 283.829 503.557 283.895 503.952C283.961 504.347 283.75 504.689 283.262 505.018C282.762 505.312 282.206 505.496 281.629 505.558C280.904 505.657 280.172 505.688 279.442 505.65C278.691 505.621 277.943 505.546 277.202 505.426L280.18 507.191L279.455 507.652L275.12 505.018L275.779 504.597C277.088 504.784 278.409 504.876 279.732 504.873C280.559 504.93 281.386 504.766 282.129 504.399C282.419 504.215 282.564 504.031 282.564 503.833C282.564 503.636 282.406 503.425 282.05 503.214H281.971C281.655 503.037 281.293 502.954 280.931 502.977C280.515 503.01 280.113 503.141 279.758 503.359L278.783 502.78C279.412 502.406 280.134 502.219 280.865 502.24C281.548 502.274 282.212 502.472 282.801 502.819Z" fill="white"/>
<path d="M291.168 507.784L291.299 507.863C291.918 508.231 292.248 508.6 292.314 508.995C292.38 509.39 292.169 509.733 291.668 510.062C291.167 510.351 290.61 510.53 290.034 510.588C289.301 510.686 288.56 510.716 287.821 510.681C287.079 510.65 286.34 510.575 285.608 510.457L288.572 512.221L287.847 512.695L283.5 510.062L284.145 509.64C285.455 509.821 286.776 509.913 288.098 509.917C288.926 509.966 289.752 509.798 290.496 509.43C290.606 509.374 290.703 509.295 290.778 509.197C290.853 509.098 290.906 508.985 290.93 508.863C290.93 508.666 290.772 508.455 290.417 508.244H290.337C290.022 508.064 289.659 507.981 289.297 508.007C288.877 508.038 288.47 508.169 288.111 508.389L287.123 507.797C287.757 507.426 288.483 507.239 289.218 507.257C289.902 507.266 290.572 507.447 291.168 507.784Z" fill="white"/>
<path d="M294.435 509.759L298.466 512.156L297.689 512.669L294.593 510.826L292.972 511.879C293.305 511.861 293.639 511.897 293.961 511.984C294.282 512.069 294.592 512.193 294.883 512.353H294.962C295.321 512.536 295.618 512.82 295.818 513.17C295.879 513.295 295.91 513.432 295.91 513.571C295.91 513.71 295.879 513.848 295.818 513.973C295.652 514.259 295.416 514.499 295.133 514.671C294.552 515.047 293.875 515.248 293.183 515.25C292.485 515.253 291.799 515.072 291.194 514.723L291.062 514.644C290.799 514.526 290.563 514.355 290.368 514.142C290.173 513.929 290.024 513.679 289.929 513.407C289.889 513.175 289.921 512.936 290.023 512.724C290.124 512.511 290.29 512.336 290.496 512.221L291.497 512.814C291.394 512.89 291.313 512.993 291.264 513.111C291.215 513.229 291.2 513.359 291.22 513.486C291.268 513.623 291.343 513.75 291.44 513.858C291.538 513.967 291.655 514.055 291.787 514.118C292.142 514.325 292.548 514.43 292.959 514.421C293.371 514.401 293.771 514.273 294.119 514.052C294.435 513.841 294.606 513.604 294.58 513.354C294.553 513.104 294.356 512.88 293.974 512.643C293.719 512.503 293.443 512.405 293.157 512.353C292.874 512.299 292.583 512.299 292.301 512.353L291.326 511.774L294.435 509.759Z" fill="white"/>
<path d="M289.455 504.61L290.443 505.189L279.336 509.39L278.361 508.811L289.455 504.61Z" fill="white"/>
<path d="M277.571 499.83L279.573 501.028L274.093 504.571L273.039 503.938L277.676 500.923L276.741 500.37L277.571 499.83Z" fill="white"/>
<path d="M372.8 500.212L373.92 500.87L371.719 502.319L376.015 502.121L377.372 502.938L372.563 503.082L372.444 506.124L371.087 505.321L371.245 502.608L368.992 504.083L367.872 503.412L372.8 500.212Z" fill="white"/>
<path d="M367.003 496.762L368.123 497.433L367.266 501.12L370.652 498.934L371.772 499.606L366.845 502.793L365.725 502.134L366.542 498.447L363.208 500.633L362.062 499.962L367.003 496.762Z" fill="white"/>
<path d="M364.276 495.208L361.469 499.54L360.284 498.829L360.876 497.947L358.623 496.63L357.227 497.038L356.041 496.327L362.998 494.404L364.276 495.208ZM359.664 496.367L361.324 497.354L362.563 495.511L359.664 496.367Z" fill="white"/>
<path d="M357.477 494.589C357.46 494.733 357.407 494.87 357.325 494.99C357.242 495.109 357.132 495.206 357.003 495.274C356.569 495.552 356.054 495.677 355.541 495.629C354.968 495.585 354.413 495.409 353.92 495.116L353.801 495.05L351.39 493.614L356.318 490.414L358.689 491.823C359.256 492.166 359.585 492.495 359.677 492.824C359.77 493.153 359.677 493.43 359.216 493.693C358.908 493.889 358.553 493.998 358.189 494.009C357.811 494.028 357.433 493.965 357.082 493.825C357.203 493.912 357.303 494.027 357.371 494.16C357.44 494.292 357.476 494.439 357.477 494.589ZM355.251 494.694C355.51 494.716 355.77 494.651 355.989 494.51C356.212 494.365 356.292 494.207 356.252 494.036C356.155 493.801 355.971 493.612 355.738 493.509L354.671 492.877L353.354 493.759L354.421 494.404C354.662 494.547 354.932 494.637 355.211 494.668L355.251 494.694ZM356.621 491.56L355.303 492.39L356.318 492.995C356.543 493.132 356.794 493.217 357.056 493.246C357.301 493.267 357.546 493.207 357.754 493.074C357.952 492.943 358.044 492.798 358.004 492.64C357.965 492.482 357.807 492.311 357.517 492.126L356.516 491.534" fill="white"/>
<path d="M294.909 535.832C300.81 535.832 305.594 532.873 305.594 529.222C305.594 525.571 300.81 522.611 294.909 522.611C289.008 522.611 284.224 525.571 284.224 529.222C284.224 532.873 289.008 535.832 294.909 535.832Z" fill="#F15A24"/>
<path d="M304.619 541.1C310.52 541.1 315.304 538.14 315.304 534.489C315.304 530.838 310.52 527.879 304.619 527.879C298.718 527.879 293.934 530.838 293.934 534.489C293.934 538.14 298.718 541.1 304.619 541.1Z" fill="#FBB03B"/>
<defs>
<linearGradient id="paint0_linear" x1="180.208" y1="540.586" x2="207.288" y2="491.838" gradientUnits="userSpaceOnUse">
<stop stop-opacity="0"/>
<stop offset="0.99" stop-color="#552800"/>
</linearGradient>
<linearGradient id="paint1_linear" x1="28055.3" y1="7649.63" x2="28799.6" y2="6005.27" gradientUnits="userSpaceOnUse">
<stop stop-opacity="0"/>
<stop offset="0.99" stop-color="#552800"/>
</linearGradient>
</defs>
</svg>
