<svg width="198" height="159" viewBox="0 0 198 159" fill="none" xmlns="http://www.w3.org/2000/svg">
<path d="M20.7952 114.92V120.4H9.35516V126.32H17.9152V131.64H9.35516V143H2.51516V114.92H20.7952ZM23.0302 131.8C23.0302 129.507 23.4568 127.493 24.3102 125.76C25.1902 124.027 26.3768 122.693 27.8702 121.76C29.3635 120.827 31.0302 120.36 32.8702 120.36C34.4435 120.36 35.8168 120.68 36.9902 121.32C38.1902 121.96 39.1102 122.8 39.7502 123.84V120.68H46.5902V143H39.7502V139.84C39.0835 140.88 38.1502 141.72 36.9502 142.36C35.7768 143 34.4035 143.32 32.8302 143.32C31.0168 143.32 29.3635 142.853 27.8702 141.92C26.3768 140.96 25.1902 139.613 24.3102 137.88C23.4568 136.12 23.0302 134.093 23.0302 131.8ZM39.7502 131.84C39.7502 130.133 39.2702 128.787 38.3102 127.8C37.3768 126.813 36.2302 126.32 34.8702 126.32C33.5102 126.32 32.3502 126.813 31.3902 127.8C30.4568 128.76 29.9902 130.093 29.9902 131.8C29.9902 133.507 30.4568 134.867 31.3902 135.88C32.3502 136.867 33.5102 137.36 34.8702 137.36C36.2302 137.36 37.3768 136.867 38.3102 135.88C39.2702 134.893 39.7502 133.547 39.7502 131.84ZM60.6186 143.32C58.6719 143.32 56.9386 142.987 55.4186 142.32C53.8986 141.653 52.6986 140.747 51.8186 139.6C50.9386 138.427 50.4453 137.12 50.3386 135.68H57.0986C57.1786 136.453 57.5386 137.08 58.1786 137.56C58.8186 138.04 59.6053 138.28 60.5386 138.28C61.3919 138.28 62.0453 138.12 62.4986 137.8C62.9786 137.453 63.2186 137.013 63.2186 136.48C63.2186 135.84 62.8853 135.373 62.2186 135.08C61.5519 134.76 60.4719 134.413 58.9786 134.04C57.3786 133.667 56.0453 133.28 54.9786 132.88C53.9119 132.453 52.9919 131.8 52.2186 130.92C51.4453 130.013 51.0586 128.8 51.0586 127.28C51.0586 126 51.4053 124.84 52.0986 123.8C52.8186 122.733 53.8586 121.893 55.2186 121.28C56.6053 120.667 58.2453 120.36 60.1386 120.36C62.9386 120.36 65.1386 121.053 66.7386 122.44C68.3653 123.827 69.2986 125.667 69.5386 127.96H63.2186C63.1119 127.187 62.7653 126.573 62.1786 126.12C61.6186 125.667 60.8719 125.44 59.9386 125.44C59.1386 125.44 58.5253 125.6 58.0986 125.92C57.6719 126.213 57.4586 126.627 57.4586 127.16C57.4586 127.8 57.7919 128.28 58.4586 128.6C59.1519 128.92 60.2186 129.24 61.6586 129.56C63.3119 129.987 64.6586 130.413 65.6986 130.84C66.7386 131.24 67.6453 131.907 68.4186 132.84C69.2186 133.747 69.6319 134.973 69.6586 136.52C69.6586 137.827 69.2853 139 68.5386 140.04C67.8186 141.053 66.7653 141.853 65.3786 142.44C64.0186 143.027 62.4319 143.32 60.6186 143.32ZM86.2833 137.2V143H82.8033C80.3233 143 78.3899 142.4 77.0033 141.2C75.6166 139.973 74.9233 137.987 74.9233 135.24V126.36H72.2033V120.68H74.9233V115.24H81.7633V120.68H86.2433V126.36H81.7633V135.32C81.7633 135.987 81.9233 136.467 82.2433 136.76C82.5633 137.053 83.0966 137.2 83.8433 137.2H86.2833ZM97.4098 128.92C97.4098 126.147 98.0098 123.68 99.2098 121.52C100.41 119.333 102.077 117.64 104.21 116.44C106.37 115.213 108.81 114.6 111.53 114.6C114.863 114.6 117.717 115.48 120.09 117.24C122.463 119 124.05 121.4 124.85 124.44H117.33C116.77 123.267 115.97 122.373 114.93 121.76C113.917 121.147 112.757 120.84 111.45 120.84C109.343 120.84 107.637 121.573 106.33 123.04C105.023 124.507 104.37 126.467 104.37 128.92C104.37 131.373 105.023 133.333 106.33 134.8C107.637 136.267 109.343 137 111.45 137C112.757 137 113.917 136.693 114.93 136.08C115.97 135.467 116.77 134.573 117.33 133.4H124.85C124.05 136.44 122.463 138.84 120.09 140.6C117.717 142.333 114.863 143.2 111.53 143.2C108.81 143.2 106.37 142.6 104.21 141.4C102.077 140.173 100.41 138.48 99.2098 136.32C98.0098 134.16 97.4098 131.693 97.4098 128.92ZM127.679 131.8C127.679 129.507 128.105 127.493 128.959 125.76C129.839 124.027 131.025 122.693 132.519 121.76C134.012 120.827 135.679 120.36 137.519 120.36C139.092 120.36 140.465 120.68 141.639 121.32C142.839 121.96 143.759 122.8 144.399 123.84V120.68H151.239V143H144.399V139.84C143.732 140.88 142.799 141.72 141.599 142.36C140.425 143 139.052 143.32 137.479 143.32C135.665 143.32 134.012 142.853 132.519 141.92C131.025 140.96 129.839 139.613 128.959 137.88C128.105 136.12 127.679 134.093 127.679 131.8ZM144.399 131.84C144.399 130.133 143.919 128.787 142.959 127.8C142.025 126.813 140.879 126.32 139.519 126.32C138.159 126.32 136.999 126.813 136.039 127.8C135.105 128.76 134.639 130.093 134.639 131.8C134.639 133.507 135.105 134.867 136.039 135.88C136.999 136.867 138.159 137.36 139.519 137.36C140.879 137.36 142.025 136.867 142.959 135.88C143.919 134.893 144.399 133.547 144.399 131.84ZM163.027 124.4C163.827 123.173 164.827 122.213 166.027 121.52C167.227 120.8 168.56 120.44 170.027 120.44V127.68H168.147C166.44 127.68 165.16 128.053 164.307 128.8C163.454 129.52 163.027 130.8 163.027 132.64V143H156.187V120.68H163.027V124.4ZM171.936 131.8C171.936 129.507 172.363 127.493 173.216 125.76C174.096 124.027 175.283 122.693 176.776 121.76C178.27 120.827 179.936 120.36 181.776 120.36C183.243 120.36 184.576 120.667 185.776 121.28C187.003 121.893 187.963 122.72 188.656 123.76V113.4H195.496V143H188.656V139.8C188.016 140.867 187.096 141.72 185.896 142.36C184.723 143 183.35 143.32 181.776 143.32C179.936 143.32 178.27 142.853 176.776 141.92C175.283 140.96 174.096 139.613 173.216 137.88C172.363 136.12 171.936 134.093 171.936 131.8ZM188.656 131.84C188.656 130.133 188.176 128.787 187.216 127.8C186.283 126.813 185.136 126.32 183.776 126.32C182.416 126.32 181.256 126.813 180.296 127.8C179.363 128.76 178.896 130.093 178.896 131.8C178.896 133.507 179.363 134.867 180.296 135.88C181.256 136.867 182.416 137.36 183.776 137.36C185.136 137.36 186.283 136.867 187.216 135.88C188.176 134.893 188.656 133.547 188.656 131.84Z" fill="#4260FB"/>
<path d="M158.369 48.1815C156.915 45.8225 154.689 44.2244 152.101 43.6812C149.514 43.1377 146.89 43.7181 144.715 45.3146L128.206 57.4235C126.692 54.9372 124.076 53.2896 121.106 53.2896H110.646C108.875 51.4336 104.911 48.5348 97.427 48.5348C87.8934 48.5348 83.7969 52.8629 82.967 53.8792L79.6496 57.5159L77.869 53.8581L60 63.8625L77.2635 99.3243L95.1322 89.3199L93.2824 85.5205H125.773L155.895 62.4753C160.195 59.1853 161.281 52.9069 158.369 48.1815ZM79.7506 90.8286L67.9219 66.53L75.3818 62.3533L87.2106 86.652L79.7506 90.8286ZM152.485 57.3494L123.894 79.2237H90.2176L82.5078 63.3864L87.2324 58.2069L87.2977 58.1627L87.4076 57.9995C87.7162 57.6489 90.416 54.8312 97.427 54.8312C104.207 54.8312 106.572 57.7687 106.857 58.161L107.596 59.5858H121.106C122.543 59.5858 123.712 60.8396 123.712 62.3808C123.712 63.922 122.543 65.1758 121.106 65.1758H103.473V71.4724H121.106C125.212 71.4724 128.644 68.3255 129.419 64.1627L148.03 50.5117C148.897 49.8752 149.943 49.6446 150.974 49.8605C152.005 50.0769 152.892 50.7139 153.471 51.6537C154.631 53.5365 154.199 56.0383 152.485 57.3494Z" fill="#4260FB"/>
<path d="M133.749 0H91.6637C87.7371 0 84.5424 3.42593 84.5424 7.63713V34.4197C84.5424 38.6309 87.7369 42.0569 91.6637 42.0569H133.749C137.675 42.0569 140.87 38.6309 140.87 34.4197V7.63713C140.87 3.42614 137.675 0 133.749 0ZM134.999 34.4197C134.998 35.1589 134.438 35.7605 133.749 35.7605H91.6637C90.9744 35.7605 90.4135 35.1593 90.4135 34.4197V19.4718H134.999V34.4197ZM134.999 13.1755H90.4135V7.63734C90.4135 6.89815 90.974 6.29658 91.6637 6.29658H133.749C134.438 6.29658 134.999 6.89815 134.999 7.63734V13.1755H134.999Z" fill="#4260FB"/>
<path d="M103.135 25.6626H93.936V31.9584H103.135V25.6626Z" fill="#4260FB"/>
</svg>
