<svg width="318" height="100" viewBox="0 0 318 100" fill="none" xmlns="http://www.w3.org/2000/svg">
<path d="M140.795 42.92V48.4H129.355V54.32H137.915V59.64H129.355V71H122.515V42.92H140.795ZM143.03 59.8C143.03 57.5067 143.457 55.4933 144.31 53.76C145.19 52.0267 146.377 50.6933 147.87 49.76C149.363 48.8267 151.03 48.36 152.87 48.36C154.443 48.36 155.817 48.68 156.99 49.32C158.19 49.96 159.11 50.8 159.75 51.84V48.68H166.59V71H159.75V67.84C159.083 68.88 158.15 69.72 156.95 70.36C155.777 71 154.403 71.32 152.83 71.32C151.017 71.32 149.363 70.8533 147.87 69.92C146.377 68.96 145.19 67.6133 144.31 65.88C143.457 64.12 143.03 62.0933 143.03 59.8ZM159.75 59.84C159.75 58.1333 159.27 56.7867 158.31 55.8C157.377 54.8133 156.23 54.32 154.87 54.32C153.51 54.32 152.35 54.8133 151.39 55.8C150.457 56.76 149.99 58.0933 149.99 59.8C149.99 61.5067 150.457 62.8667 151.39 63.88C152.35 64.8667 153.51 65.36 154.87 65.36C156.23 65.36 157.377 64.8667 158.31 63.88C159.27 62.8933 159.75 61.5467 159.75 59.84ZM180.619 71.32C178.672 71.32 176.939 70.9867 175.419 70.32C173.899 69.6533 172.699 68.7467 171.819 67.6C170.939 66.4267 170.445 65.12 170.339 63.68H177.099C177.179 64.4533 177.539 65.08 178.179 65.56C178.819 66.04 179.605 66.28 180.539 66.28C181.392 66.28 182.045 66.12 182.499 65.8C182.979 65.4533 183.219 65.0133 183.219 64.48C183.219 63.84 182.885 63.3733 182.219 63.08C181.552 62.76 180.472 62.4133 178.979 62.04C177.379 61.6667 176.045 61.28 174.979 60.88C173.912 60.4533 172.992 59.8 172.219 58.92C171.445 58.0133 171.059 56.8 171.059 55.28C171.059 54 171.405 52.84 172.099 51.8C172.819 50.7333 173.859 49.8933 175.219 49.28C176.605 48.6667 178.245 48.36 180.139 48.36C182.939 48.36 185.139 49.0533 186.739 50.44C188.365 51.8267 189.299 53.6667 189.539 55.96H183.219C183.112 55.1867 182.765 54.5733 182.179 54.12C181.619 53.6667 180.872 53.44 179.939 53.44C179.139 53.44 178.525 53.6 178.099 53.92C177.672 54.2133 177.459 54.6267 177.459 55.16C177.459 55.8 177.792 56.28 178.459 56.6C179.152 56.92 180.219 57.24 181.659 57.56C183.312 57.9867 184.659 58.4133 185.699 58.84C186.739 59.24 187.645 59.9067 188.419 60.84C189.219 61.7467 189.632 62.9733 189.659 64.52C189.659 65.8267 189.285 67 188.539 68.04C187.819 69.0533 186.765 69.8533 185.379 70.44C184.019 71.0267 182.432 71.32 180.619 71.32ZM206.283 65.2V71H202.803C200.323 71 198.39 70.4 197.003 69.2C195.617 67.9733 194.923 65.9867 194.923 63.24V54.36H192.203V48.68H194.923V43.24H201.763V48.68H206.243V54.36H201.763V63.32C201.763 63.9867 201.923 64.4667 202.243 64.76C202.563 65.0533 203.097 65.2 203.843 65.2H206.283ZM217.41 56.92C217.41 54.1467 218.01 51.68 219.21 49.52C220.41 47.3333 222.077 45.64 224.21 44.44C226.37 43.2133 228.81 42.6 231.53 42.6C234.863 42.6 237.717 43.48 240.09 45.24C242.463 47 244.05 49.4 244.85 52.44H237.33C236.77 51.2667 235.97 50.3733 234.93 49.76C233.917 49.1467 232.757 48.84 231.45 48.84C229.343 48.84 227.637 49.5733 226.33 51.04C225.023 52.5067 224.37 54.4667 224.37 56.92C224.37 59.3733 225.023 61.3333 226.33 62.8C227.637 64.2667 229.343 65 231.45 65C232.757 65 233.917 64.6933 234.93 64.08C235.97 63.4667 236.77 62.5733 237.33 61.4H244.85C244.05 64.44 242.463 66.84 240.09 68.6C237.717 70.3333 234.863 71.2 231.53 71.2C228.81 71.2 226.37 70.6 224.21 69.4C222.077 68.1733 220.41 66.48 219.21 64.32C218.01 62.16 217.41 59.6933 217.41 56.92ZM247.679 59.8C247.679 57.5067 248.105 55.4933 248.959 53.76C249.839 52.0267 251.025 50.6933 252.519 49.76C254.012 48.8267 255.679 48.36 257.519 48.36C259.092 48.36 260.465 48.68 261.639 49.32C262.839 49.96 263.759 50.8 264.399 51.84V48.68H271.239V71H264.399V67.84C263.732 68.88 262.799 69.72 261.599 70.36C260.425 71 259.052 71.32 257.479 71.32C255.665 71.32 254.012 70.8533 252.519 69.92C251.025 68.96 249.839 67.6133 248.959 65.88C248.105 64.12 247.679 62.0933 247.679 59.8ZM264.399 59.84C264.399 58.1333 263.919 56.7867 262.959 55.8C262.025 54.8133 260.879 54.32 259.519 54.32C258.159 54.32 256.999 54.8133 256.039 55.8C255.105 56.76 254.639 58.0933 254.639 59.8C254.639 61.5067 255.105 62.8667 256.039 63.88C256.999 64.8667 258.159 65.36 259.519 65.36C260.879 65.36 262.025 64.8667 262.959 63.88C263.919 62.8933 264.399 61.5467 264.399 59.84ZM283.027 52.4C283.827 51.1733 284.827 50.2133 286.027 49.52C287.227 48.8 288.56 48.44 290.027 48.44V55.68H288.147C286.44 55.68 285.16 56.0533 284.307 56.8C283.454 57.52 283.027 58.8 283.027 60.64V71H276.187V48.68H283.027V52.4ZM291.936 59.8C291.936 57.5067 292.363 55.4933 293.216 53.76C294.096 52.0267 295.283 50.6933 296.776 49.76C298.27 48.8267 299.936 48.36 301.776 48.36C303.243 48.36 304.576 48.6667 305.776 49.28C307.003 49.8933 307.963 50.72 308.656 51.76V41.4H315.496V71H308.656V67.8C308.016 68.8667 307.096 69.72 305.896 70.36C304.723 71 303.35 71.32 301.776 71.32C299.936 71.32 298.27 70.8533 296.776 69.92C295.283 68.96 294.096 67.6133 293.216 65.88C292.363 64.12 291.936 62.0933 291.936 59.8ZM308.656 59.84C308.656 58.1333 308.176 56.7867 307.216 55.8C306.283 54.8133 305.136 54.32 303.776 54.32C302.416 54.32 301.256 54.8133 300.296 55.8C299.363 56.76 298.896 58.0933 298.896 59.8C298.896 61.5067 299.363 62.8667 300.296 63.88C301.256 64.8667 302.416 65.36 303.776 65.36C305.136 65.36 306.283 64.8667 307.216 63.88C308.176 62.8933 308.656 61.5467 308.656 59.84Z" fill="#4260FB"/>
<path d="M98.369 48.1815C96.9149 45.8226 94.6891 44.2244 92.1014 43.6812C89.5135 43.1377 86.8905 43.7181 84.7153 45.3146L68.2065 57.4235C66.692 54.9372 64.0756 53.2896 61.1057 53.2896H50.6455C48.8746 51.4336 44.9106 48.5349 37.427 48.5349C27.8934 48.5349 23.7969 52.8629 22.967 53.8792L19.6496 57.5159L17.869 53.8581L0 63.8625L17.2635 99.3243L35.1322 89.3199L33.2824 85.5205H65.7735L95.895 62.4753C100.195 59.1853 101.281 52.9069 98.369 48.1815ZM19.7506 90.8286L7.92188 66.53L15.3818 62.3534L27.2106 86.652L19.7506 90.8286ZM92.4854 57.3494L63.8942 79.2237H30.2176L22.5078 63.3864L27.2324 58.2069L27.2977 58.1627L27.4076 57.9995C27.7162 57.6489 30.416 54.8312 37.427 54.8312C44.2072 54.8312 46.5719 57.7687 46.8574 58.161L47.5961 59.5858H61.1057C62.5428 59.5858 63.7119 60.8396 63.7119 62.3808C63.7119 63.922 62.5428 65.1758 61.1057 65.1758H43.4727V71.4724H61.1057C65.2117 71.4724 68.6442 68.3255 69.4188 64.1627L88.0303 50.5117C88.8973 49.8752 89.9432 49.6446 90.9737 49.8605C92.0047 50.0769 92.8918 50.7139 93.4711 51.6537C94.6315 53.5365 94.1989 56.0383 92.4854 57.3494Z" fill="#4260FB"/>
<path d="M73.7487 0H31.6638C27.7372 0 24.5425 3.42593 24.5425 7.63713V34.4197C24.5425 38.6309 27.737 42.0569 31.6638 42.0569H73.7489C77.6755 42.0569 80.87 38.6309 80.87 34.4197V7.63713C80.87 3.42614 77.6755 0 73.7487 0ZM74.9987 34.4197C74.9986 35.1589 74.438 35.7605 73.7487 35.7605H31.6638C30.9745 35.7605 30.4136 35.1593 30.4136 34.4197V19.4718H74.9987V34.4197ZM74.9987 13.1755H30.4136V7.63734C30.4136 6.89815 30.9741 6.29658 31.6638 6.29658H73.7489C74.438 6.29658 74.9989 6.89815 74.9989 7.63734V13.1755H74.9987Z" fill="#4260FB"/>
<path d="M43.1347 25.6626H33.936V31.9584H43.1347V25.6626Z" fill="#4260FB"/>
</svg>
