<svg width="414" height="250" viewBox="0 0 414 250" fill="none" xmlns="http://www.w3.org/2000/svg">
<rect x="27.0743" y="18" width="375.167" height="232" rx="38" fill="#DD5E57"/>
<path d="M66.2435 162H64.1165V151.726L60.9788 152.798V150.996L65.971 149.159H66.2435V162ZM79.2952 162H70.6907V160.532L74.9534 155.883C75.5686 155.197 76.0052 154.626 76.263 154.169C76.5267 153.706 76.6585 153.243 76.6585 152.78C76.6585 152.171 76.4856 151.679 76.1399 151.304C75.8001 150.929 75.3401 150.741 74.7601 150.741C74.0686 150.741 73.5325 150.952 73.1517 151.374C72.7708 151.796 72.5804 152.373 72.5804 153.105H70.4446C70.4446 152.326 70.6204 151.626 70.972 151.005C71.3294 150.378 71.8362 149.892 72.4925 149.546C73.1546 149.2 73.9163 149.027 74.7776 149.027C76.0198 149.027 76.9983 149.341 77.7132 149.968C78.4339 150.589 78.7942 151.45 78.7942 152.552C78.7942 153.19 78.6126 153.861 78.2493 154.564C77.8919 155.262 77.303 156.056 76.4827 156.946L73.3538 160.295H79.2952V162ZM83.3909 154.626H84.6917C85.3479 154.62 85.8665 154.45 86.2474 154.116C86.6341 153.782 86.8274 153.299 86.8274 152.666C86.8274 152.057 86.6663 151.585 86.344 151.251C86.0276 150.911 85.5413 150.741 84.8851 150.741C84.3108 150.741 83.8392 150.908 83.47 151.242C83.1009 151.57 82.9163 152.001 82.9163 152.534H80.7806C80.7806 151.878 80.9534 151.28 81.2991 150.741C81.6507 150.202 82.137 149.783 82.7581 149.484C83.3851 149.18 84.0853 149.027 84.8587 149.027C86.136 149.027 87.138 149.35 87.8645 149.994C88.597 150.633 88.9632 151.523 88.9632 152.666C88.9632 153.24 88.7786 153.782 88.4095 154.292C88.0462 154.796 87.5745 155.177 86.9944 155.435C87.6976 155.675 88.2308 156.053 88.594 156.568C88.9632 157.084 89.1478 157.699 89.1478 158.414C89.1478 159.562 88.7522 160.477 87.9612 161.156C87.1761 161.836 86.1419 162.176 84.8587 162.176C83.6282 162.176 82.6204 161.848 81.8353 161.191C81.0501 160.535 80.6575 159.662 80.6575 158.572H82.7933C82.7933 159.135 82.9808 159.592 83.3558 159.943C83.7366 160.295 84.2464 160.471 84.8851 160.471C85.5472 160.471 86.0686 160.295 86.4495 159.943C86.8304 159.592 87.0208 159.082 87.0208 158.414C87.0208 157.74 86.8216 157.222 86.4231 156.858C86.0247 156.495 85.4329 156.313 84.6478 156.313H83.3909V154.626ZM98.3763 157.438H99.9671V159.152H98.3763V162H96.2405V159.152H90.7122L90.6507 157.852L96.1702 149.203H98.3763V157.438ZM92.8919 157.438H96.2405V152.095L96.0823 152.376L92.8919 157.438ZM119.883 155.654L120.577 149.203H127.45V151.049H122.353L122.001 154.107C122.593 153.768 123.261 153.598 124.005 153.598C125.224 153.598 126.17 153.987 126.844 154.767C127.524 155.546 127.864 156.595 127.864 157.913C127.864 159.214 127.489 160.251 126.739 161.024C125.989 161.792 124.96 162.176 123.654 162.176C122.482 162.176 121.509 161.845 120.736 161.183C119.968 160.515 119.552 159.636 119.488 158.546H121.553C121.635 159.167 121.858 159.645 122.221 159.979C122.584 160.307 123.059 160.471 123.645 160.471C124.301 160.471 124.811 160.236 125.174 159.768C125.543 159.299 125.728 158.66 125.728 157.852C125.728 157.072 125.526 156.457 125.121 156.006C124.717 155.549 124.16 155.32 123.451 155.32C123.065 155.32 122.737 155.373 122.467 155.479C122.198 155.578 121.905 155.777 121.588 156.076L119.883 155.654ZM136.187 149.142V150.908H135.923C134.728 150.926 133.773 151.254 133.058 151.893C132.343 152.531 131.918 153.437 131.783 154.608C132.469 153.888 133.345 153.527 134.411 153.527C135.542 153.527 136.433 153.926 137.083 154.723C137.74 155.52 138.068 156.548 138.068 157.808C138.068 159.108 137.684 160.163 136.916 160.972C136.155 161.774 135.153 162.176 133.91 162.176C132.633 162.176 131.596 161.704 130.799 160.761C130.008 159.817 129.613 158.581 129.613 157.052V156.322C129.613 154.078 130.158 152.32 131.247 151.049C132.343 149.777 133.916 149.142 135.967 149.142H136.187ZM133.893 155.25C133.424 155.25 132.993 155.382 132.601 155.646C132.214 155.909 131.93 156.261 131.748 156.7V157.351C131.748 158.3 131.948 159.056 132.346 159.618C132.744 160.175 133.26 160.453 133.893 160.453C134.526 160.453 135.027 160.216 135.396 159.741C135.765 159.267 135.95 158.643 135.95 157.869C135.95 157.096 135.762 156.466 135.387 155.979C135.012 155.493 134.514 155.25 133.893 155.25ZM148.289 150.39L143.174 162H140.933L146.039 150.917H139.421V149.203H148.289V150.39ZM158.063 152.578C158.063 153.205 157.902 153.765 157.579 154.257C157.257 154.743 156.818 155.127 156.261 155.408C156.929 155.719 157.442 156.144 157.799 156.683C158.162 157.222 158.344 157.831 158.344 158.511C158.344 159.636 157.963 160.529 157.201 161.191C156.44 161.848 155.426 162.176 154.16 162.176C152.889 162.176 151.869 161.845 151.102 161.183C150.34 160.521 149.959 159.63 149.959 158.511C149.959 157.825 150.141 157.21 150.504 156.665C150.867 156.12 151.377 155.701 152.033 155.408C151.483 155.127 151.046 154.743 150.724 154.257C150.408 153.765 150.249 153.205 150.249 152.578C150.249 151.488 150.601 150.624 151.304 149.985C152.007 149.347 152.956 149.027 154.152 149.027C155.353 149.027 156.305 149.347 157.008 149.985C157.711 150.624 158.063 151.488 158.063 152.578ZM156.208 158.405C156.208 157.772 156.018 157.263 155.637 156.876C155.262 156.483 154.764 156.287 154.143 156.287C153.522 156.287 153.024 156.48 152.649 156.867C152.28 157.254 152.095 157.767 152.095 158.405C152.095 159.032 152.277 159.533 152.64 159.908C153.009 160.283 153.516 160.471 154.16 160.471C154.805 160.471 155.306 160.289 155.663 159.926C156.027 159.562 156.208 159.056 156.208 158.405ZM155.936 152.657C155.936 152.101 155.775 151.644 155.452 151.286C155.13 150.923 154.697 150.741 154.152 150.741C153.607 150.741 153.176 150.914 152.86 151.26C152.543 151.6 152.385 152.065 152.385 152.657C152.385 153.243 152.543 153.709 152.86 154.055C153.182 154.4 153.616 154.573 154.16 154.573C154.705 154.573 155.136 154.4 155.452 154.055C155.775 153.709 155.936 153.243 155.936 152.657ZM184.219 156.647C183.504 157.403 182.669 157.781 181.714 157.781C180.589 157.781 179.693 157.389 179.025 156.604C178.357 155.812 178.023 154.775 178.023 153.492C178.023 152.648 178.193 151.884 178.533 151.198C178.872 150.513 179.356 149.979 179.983 149.599C180.61 149.218 181.336 149.027 182.162 149.027C183.451 149.027 184.474 149.508 185.23 150.469C185.986 151.43 186.364 152.716 186.364 154.327V154.925C186.364 157.233 185.842 158.994 184.799 160.207C183.756 161.42 182.2 162.035 180.132 162.053H179.877V160.286H180.185C181.445 160.269 182.411 159.967 183.085 159.381C183.759 158.789 184.137 157.878 184.219 156.647ZM182.162 156.111C182.59 156.111 182.992 155.988 183.367 155.742C183.742 155.496 184.032 155.156 184.237 154.723V153.888C184.237 152.944 184.043 152.186 183.657 151.611C183.27 151.037 182.769 150.75 182.154 150.75C181.538 150.75 181.046 151.005 180.677 151.515C180.314 152.019 180.132 152.657 180.132 153.431C180.132 154.233 180.317 154.881 180.686 155.373C181.055 155.865 181.547 156.111 182.162 156.111ZM194.177 162H192.05V151.726L188.912 152.798V150.996L193.905 149.159H194.177V162ZM206.965 156.612C206.965 158.452 206.619 159.841 205.928 160.778C205.242 161.71 204.197 162.176 202.79 162.176C201.408 162.176 200.365 161.722 199.661 160.813C198.964 159.899 198.607 158.549 198.589 156.762V154.547C198.589 152.707 198.932 151.327 199.617 150.407C200.309 149.487 201.361 149.027 202.773 149.027C204.173 149.027 205.216 149.476 205.902 150.372C206.593 151.269 206.948 152.61 206.965 154.397V156.612ZM204.829 154.222C204.829 153.021 204.665 152.142 204.337 151.585C204.009 151.022 203.488 150.741 202.773 150.741C202.075 150.741 201.563 151.008 201.235 151.541C200.907 152.068 200.734 152.895 200.716 154.02V156.92C200.716 158.115 200.883 159.006 201.217 159.592C201.551 160.178 202.075 160.471 202.79 160.471C203.476 160.471 203.983 160.201 204.311 159.662C204.639 159.117 204.812 158.268 204.829 157.113V154.222ZM217.196 156.612C217.196 158.452 216.85 159.841 216.158 160.778C215.473 161.71 214.427 162.176 213.021 162.176C211.638 162.176 210.595 161.722 209.892 160.813C209.195 159.899 208.837 158.549 208.82 156.762V154.547C208.82 152.707 209.162 151.327 209.848 150.407C210.539 149.487 211.591 149.027 213.003 149.027C214.404 149.027 215.447 149.476 216.132 150.372C216.824 151.269 217.178 152.61 217.196 154.397V156.612ZM215.06 154.222C215.06 153.021 214.896 152.142 214.568 151.585C214.24 151.022 213.718 150.741 213.003 150.741C212.306 150.741 211.793 151.008 211.465 151.541C211.137 152.068 210.964 152.895 210.947 154.02V156.92C210.947 158.115 211.114 159.006 211.448 159.592C211.782 160.178 212.306 160.471 213.021 160.471C213.706 160.471 214.213 160.201 214.541 159.662C214.869 159.117 215.042 158.268 215.06 157.113V154.222Z" fill="white"/>
<path fill-rule="evenodd" clip-rule="evenodd" d="M104.745 86.7511H99.2049V84.3846H130.764C135.183 84.3846 138.764 87.9664 138.764 92.3846V97.7946H113.215H112.745V94.7511C112.745 90.3328 109.163 86.7511 104.745 86.7511ZM96.4395 84.3846H65.6454C61.2271 84.3846 57.6454 87.9664 57.6454 92.3846V97.7946H83.1953H83.6647V94.7511C83.6647 90.3328 87.2464 86.7511 91.6647 86.7511H96.4395V84.3846ZM112.745 111.993V115.826C112.745 120.244 109.163 123.826 104.745 123.826H99.2049V130.136H130.764C135.183 130.136 138.764 126.555 138.764 122.136V111.993H113.215H112.745ZM97.2049 123.826H91.6647C87.2464 123.826 83.6647 120.244 83.6647 115.826V111.993H83.1953H57.6454V122.136C57.6454 126.555 61.2271 130.136 65.6454 130.136H97.2049V123.826ZM138.764 109.993V99.7946H113.215V109.993H138.764ZM57.6454 109.993H83.1953V99.7946H57.6454V109.993ZM91.6647 88.7511H104.745C108.059 88.7511 110.745 91.4374 110.745 94.7511V115.826C110.745 119.139 108.059 121.826 104.745 121.826H91.6647C88.351 121.826 85.6647 119.139 85.6647 115.826V94.7511C85.6647 91.4374 88.351 88.7511 91.6647 88.7511Z" fill="#F8C401"/>
<path d="M332.192 64.3234V51.5266H336.577C338.025 51.5266 339.126 51.8166 339.882 52.3967C340.638 52.9767 341.016 53.841 341.016 54.9894C341.016 55.5754 340.858 56.1027 340.541 56.5715C340.225 57.0402 339.762 57.4035 339.153 57.6613C339.844 57.8488 340.377 58.2033 340.752 58.7248C341.133 59.2404 341.323 59.8615 341.323 60.5881C341.323 61.7892 340.937 62.7121 340.163 63.3566C339.396 64.0012 338.294 64.3234 336.859 64.3234H332.192ZM334.415 58.549V62.548H336.885C337.582 62.548 338.127 62.3752 338.52 62.0295C338.912 61.6838 339.109 61.2033 339.109 60.5881C339.109 59.258 338.429 58.5783 337.07 58.549H334.415ZM334.415 56.9142H336.595C337.286 56.9142 337.825 56.759 338.212 56.4484C338.605 56.132 338.801 55.6867 338.801 55.1125C338.801 54.4797 338.619 54.0226 338.256 53.7414C337.899 53.4601 337.339 53.3195 336.577 53.3195H334.415V56.9142ZM349.023 64.3234C348.929 64.1418 348.847 63.8459 348.777 63.4357C348.097 64.1447 347.265 64.4992 346.28 64.4992C345.325 64.4992 344.546 64.2267 343.943 63.6818C343.339 63.1369 343.037 62.4631 343.037 61.6603C343.037 60.6467 343.412 59.8703 344.162 59.3312C344.918 58.7863 345.996 58.5139 347.397 58.5139H348.706V57.8898C348.706 57.3976 348.569 57.0051 348.293 56.7121C348.018 56.4133 347.599 56.2639 347.036 56.2639C346.55 56.2639 346.152 56.3869 345.841 56.633C345.53 56.8732 345.375 57.1808 345.375 57.5558H343.239C343.239 57.0344 343.412 56.548 343.758 56.0969C344.104 55.6398 344.572 55.2824 345.164 55.0246C345.762 54.7668 346.427 54.6379 347.159 54.6379C348.273 54.6379 349.16 54.9191 349.822 55.4816C350.485 56.0383 350.824 56.8234 350.842 57.8371V62.1262C350.842 62.9816 350.962 63.6642 351.202 64.174V64.3234H349.023ZM346.676 62.7853C347.098 62.7853 347.493 62.6828 347.862 62.4777C348.237 62.2726 348.519 61.9973 348.706 61.6516V59.8586H347.555C346.764 59.8586 346.169 59.9963 345.771 60.2717C345.372 60.5471 345.173 60.9367 345.173 61.4406C345.173 61.8508 345.308 62.1789 345.577 62.425C345.853 62.6652 346.219 62.7853 346.676 62.7853ZM355.061 54.8137L355.122 55.9123C355.825 55.0627 356.748 54.6379 357.891 54.6379C359.871 54.6379 360.879 55.7717 360.914 58.0392V64.3234H358.778V58.1623C358.778 57.5588 358.647 57.1135 358.383 56.8264C358.125 56.5334 357.7 56.3869 357.109 56.3869C356.247 56.3869 355.606 56.7766 355.184 57.5558V64.3234H353.048V54.8137H355.061ZM366.188 60.2453L365.238 61.2209V64.3234H363.103V50.8234H365.238V58.6105L365.906 57.7756L368.534 54.8137H371.101L367.568 58.7775L371.479 64.3234H369.009L366.188 60.2453Z" fill="white"/>
<path d="M68.5787 60.834C68.4498 62.1992 67.9459 63.2656 67.067 64.0332C66.188 64.7949 65.0191 65.1758 63.5601 65.1758C62.5406 65.1758 61.6412 64.9355 60.8619 64.4551C60.0884 63.9688 59.4908 63.2803 59.0689 62.3896C58.647 61.499 58.4273 60.4648 58.4097 59.2871V58.0918C58.4097 56.8848 58.6236 55.8213 59.0513 54.9014C59.4791 53.9814 60.0914 53.2725 60.8882 52.7744C61.691 52.2764 62.6168 52.0273 63.6656 52.0273C65.0777 52.0273 66.2144 52.4111 67.0757 53.1787C67.9371 53.9463 68.438 55.0303 68.5787 56.4307H66.3638C66.2584 55.5107 65.9888 54.8486 65.5552 54.4443C65.1275 54.0342 64.4976 53.8291 63.6656 53.8291C62.6988 53.8291 61.9546 54.1836 61.4332 54.8926C60.9175 55.5957 60.6539 56.6299 60.6421 57.9951V59.1289C60.6421 60.5117 60.8882 61.5664 61.3804 62.293C61.8785 63.0195 62.605 63.3828 63.5601 63.3828C64.4332 63.3828 65.0894 63.1865 65.5289 62.7939C65.9683 62.4014 66.2466 61.748 66.3638 60.834H68.5787ZM75.3462 57.4414C75.065 57.3945 74.775 57.3711 74.4761 57.3711C73.4976 57.3711 72.8384 57.7461 72.4986 58.4961V65H70.3629V55.4902H72.4019L72.4546 56.5537C72.9703 55.7275 73.6851 55.3145 74.5992 55.3145C74.9039 55.3145 75.1558 55.3555 75.355 55.4375L75.3462 57.4414ZM80.7076 65.1758C79.3541 65.1758 78.2554 64.751 77.4117 63.9014C76.5738 63.0459 76.1548 61.9092 76.1548 60.4912V60.2275C76.1548 59.2783 76.3365 58.4316 76.6998 57.6875C77.0689 56.9375 77.5845 56.3545 78.2466 55.9385C78.9087 55.5225 79.647 55.3145 80.4615 55.3145C81.7564 55.3145 82.7554 55.7275 83.4586 56.5537C84.1675 57.3799 84.522 58.5488 84.522 60.0605V60.9219H78.3082C78.3726 61.707 78.6334 62.3281 79.0904 62.7852C79.5533 63.2422 80.1334 63.4707 80.8306 63.4707C81.8091 63.4707 82.606 63.0752 83.2212 62.2842L84.3726 63.3828C83.9918 63.9512 83.482 64.3936 82.8433 64.71C82.2105 65.0205 81.4986 65.1758 80.7076 65.1758ZM80.4527 57.0283C79.8668 57.0283 79.3921 57.2334 79.0289 57.6436C78.6714 58.0537 78.4429 58.625 78.3433 59.3574H82.4127V59.1992C82.3658 58.4844 82.1754 57.9453 81.8414 57.582C81.5074 57.2129 81.0445 57.0283 80.4527 57.0283ZM85.7877 60.1748C85.7877 58.71 86.1275 57.5352 86.8072 56.6504C87.4869 55.7598 88.398 55.3145 89.5406 55.3145C90.5484 55.3145 91.3629 55.666 91.9839 56.3691V51.5H94.1197V65H92.1861L92.0806 64.0156C91.442 64.7891 90.5894 65.1758 89.523 65.1758C88.4097 65.1758 87.5074 64.7275 86.816 63.8311C86.1304 62.9346 85.7877 61.7158 85.7877 60.1748ZM87.9234 60.3594C87.9234 61.3262 88.108 62.082 88.4771 62.627C88.8521 63.166 89.3824 63.4355 90.0679 63.4355C90.941 63.4355 91.5796 63.0459 91.9839 62.2666V58.2061C91.5914 57.4443 90.9586 57.0635 90.0855 57.0635C89.3941 57.0635 88.8609 57.3389 88.4859 57.8896C88.1109 58.4346 87.9234 59.2578 87.9234 60.3594ZM98.6197 65H96.4839V55.4902H98.6197V65ZM96.3521 53.0205C96.3521 52.6924 96.4546 52.4199 96.6597 52.2031C96.8707 51.9863 97.1695 51.8779 97.5562 51.8779C97.9429 51.8779 98.2418 51.9863 98.4527 52.2031C98.6636 52.4199 98.7691 52.6924 98.7691 53.0205C98.7691 53.3428 98.6636 53.6123 98.4527 53.8291C98.2418 54.04 97.9429 54.1455 97.5562 54.1455C97.1695 54.1455 96.8707 54.04 96.6597 53.8291C96.4546 53.6123 96.3521 53.3428 96.3521 53.0205ZM103.629 53.1787V55.4902H105.308V57.0723H103.629V62.3809C103.629 62.7441 103.7 63.0078 103.84 63.1719C103.987 63.3301 104.245 63.4092 104.614 63.4092C104.86 63.4092 105.109 63.3799 105.361 63.3213V64.9736C104.875 65.1084 104.406 65.1758 103.955 65.1758C102.314 65.1758 101.494 64.2705 101.494 62.46V57.0723H99.9293V55.4902H101.494V53.1787H103.629ZM121.401 60.834C121.272 62.1992 120.768 63.2656 119.889 64.0332C119.01 64.7949 117.841 65.1758 116.382 65.1758C115.363 65.1758 114.463 64.9355 113.684 64.4551C112.911 63.9688 112.313 63.2803 111.891 62.3896C111.469 61.499 111.25 60.4648 111.232 59.2871V58.0918C111.232 56.8848 111.446 55.8213 111.874 54.9014C112.301 53.9814 112.914 53.2725 113.711 52.7744C114.513 52.2764 115.439 52.0273 116.488 52.0273C117.9 52.0273 119.037 52.4111 119.898 53.1787C120.759 53.9463 121.26 55.0303 121.401 56.4307H119.186C119.081 55.5107 118.811 54.8486 118.377 54.4443C117.95 54.0342 117.32 53.8291 116.488 53.8291C115.521 53.8291 114.777 54.1836 114.255 54.8926C113.74 55.5957 113.476 56.6299 113.464 57.9951V59.1289C113.464 60.5117 113.711 61.5664 114.203 62.293C114.701 63.0195 115.427 63.3828 116.382 63.3828C117.255 63.3828 117.912 63.1865 118.351 62.7939C118.791 62.4014 119.069 61.748 119.186 60.834H121.401ZM128.872 65C128.778 64.8184 128.696 64.5225 128.626 64.1123C127.946 64.8213 127.114 65.1758 126.129 65.1758C125.174 65.1758 124.395 64.9033 123.792 64.3584C123.188 63.8135 122.886 63.1396 122.886 62.3369C122.886 61.3232 123.261 60.5469 124.011 60.0078C124.767 59.4629 125.845 59.1904 127.246 59.1904H128.555V58.5664C128.555 58.0742 128.418 57.6816 128.142 57.3887C127.867 57.0898 127.448 56.9404 126.885 56.9404C126.399 56.9404 126.001 57.0635 125.69 57.3096C125.379 57.5498 125.224 57.8574 125.224 58.2324H123.088C123.088 57.7109 123.261 57.2246 123.607 56.7734C123.953 56.3164 124.421 55.959 125.013 55.7012C125.611 55.4434 126.276 55.3145 127.008 55.3145C128.122 55.3145 129.009 55.5957 129.671 56.1582C130.334 56.7148 130.673 57.5 130.691 58.5137V62.8027C130.691 63.6582 130.811 64.3408 131.051 64.8506V65H128.872ZM126.525 63.4619C126.947 63.4619 127.342 63.3594 127.711 63.1543C128.086 62.9492 128.368 62.6738 128.555 62.3281V60.5352H127.404C126.613 60.5352 126.018 60.6729 125.62 60.9482C125.221 61.2236 125.022 61.6133 125.022 62.1172C125.022 62.5273 125.157 62.8555 125.426 63.1016C125.702 63.3418 126.068 63.4619 126.525 63.4619ZM137.907 57.4414C137.626 57.3945 137.336 57.3711 137.037 57.3711C136.058 57.3711 135.399 57.7461 135.059 58.4961V65H132.923V55.4902H134.962L135.015 56.5537C135.531 55.7275 136.246 55.3145 137.16 55.3145C137.464 55.3145 137.716 55.3555 137.916 55.4375L137.907 57.4414ZM138.68 60.1748C138.68 58.71 139.02 57.5352 139.7 56.6504C140.379 55.7598 141.291 55.3145 142.433 55.3145C143.441 55.3145 144.255 55.666 144.877 56.3691V51.5H147.012V65H145.079L144.973 64.0156C144.335 64.7891 143.482 65.1758 142.416 65.1758C141.302 65.1758 140.4 64.7275 139.709 63.8311C139.023 62.9346 138.68 61.7158 138.68 60.1748ZM140.816 60.3594C140.816 61.3262 141.001 62.082 141.37 62.627C141.745 63.166 142.275 63.4355 142.961 63.4355C143.834 63.4355 144.472 63.0459 144.877 62.2666V58.2061C144.484 57.4443 143.851 57.0635 142.978 57.0635C142.287 57.0635 141.753 57.3389 141.378 57.8896C141.003 58.4346 140.816 59.2578 140.816 60.3594Z" fill="white"/>
<path d="M72.5532 189.959H74.2495V199.021C74.2495 200.245 73.8803 201.203 73.142 201.895C72.4096 202.586 71.4311 202.932 70.2065 202.932C68.935 202.932 67.9448 202.606 67.2358 201.956C66.5268 201.306 66.1723 200.395 66.1723 199.223H67.8598C67.8598 199.955 68.059 200.526 68.4575 200.937C68.8618 201.347 69.4448 201.552 70.2065 201.552C70.9038 201.552 71.4663 201.332 71.894 200.893C72.3276 200.453 72.5473 199.838 72.5532 199.047V189.959ZM76.4379 197.913C76.4379 196.981 76.6196 196.144 76.9829 195.399C77.352 194.655 77.8618 194.081 78.5121 193.677C79.1684 193.272 79.9155 193.07 80.7534 193.07C82.0483 193.07 83.0942 193.519 83.8911 194.415C84.6938 195.312 85.0952 196.504 85.0952 197.992V198.106C85.0952 199.032 84.9164 199.864 84.559 200.603C84.2075 201.335 83.7006 201.906 83.0385 202.316C82.3823 202.727 81.6264 202.932 80.7709 202.932C79.4819 202.932 78.436 202.483 77.6332 201.587C76.8364 200.69 76.4379 199.504 76.4379 198.027V197.913ZM78.0727 198.106C78.0727 199.161 78.3159 200.008 78.8022 200.646C79.2944 201.285 79.9506 201.604 80.7709 201.604C81.5971 201.604 82.2534 201.282 82.7397 200.638C83.226 199.987 83.4692 199.079 83.4692 197.913C83.4692 196.87 83.2202 196.026 82.7221 195.382C82.2299 194.731 81.5737 194.406 80.7534 194.406C79.9506 194.406 79.3032 194.726 78.811 195.364C78.3188 196.003 78.0727 196.917 78.0727 198.106ZM88.7602 194.397C89.4809 193.513 90.4184 193.07 91.5727 193.07C93.5825 193.07 94.5961 194.204 94.6137 196.472V202.756H92.9877V196.463C92.9819 195.777 92.8237 195.271 92.5131 194.942C92.2084 194.614 91.7309 194.45 91.0805 194.45C90.5532 194.45 90.0903 194.591 89.6918 194.872C89.2934 195.153 88.9829 195.522 88.7602 195.979V202.756H87.1342V189.256H88.7602V194.397ZM98.5864 193.246L98.6391 194.441C99.3657 193.527 100.315 193.07 101.487 193.07C103.497 193.07 104.51 194.204 104.528 196.472V202.756H102.902V196.463C102.896 195.777 102.738 195.271 102.427 194.942C102.123 194.614 101.645 194.45 100.995 194.45C100.467 194.45 100.004 194.591 99.6059 194.872C99.2075 195.153 98.8969 195.522 98.6743 195.979V202.756H97.0483V193.246H98.5864ZM111.7 202.756V189.959H115.312C116.425 189.959 117.41 190.205 118.265 190.697C119.121 191.189 119.78 191.89 120.243 192.798C120.711 193.706 120.949 194.749 120.955 195.927V196.744C120.955 197.951 120.72 199.009 120.251 199.917C119.789 200.825 119.123 201.522 118.256 202.009C117.395 202.495 116.39 202.744 115.242 202.756H111.7ZM113.387 191.348V201.376H115.163C116.463 201.376 117.474 200.972 118.195 200.163C118.921 199.354 119.285 198.203 119.285 196.709V195.962C119.285 194.509 118.942 193.381 118.256 192.578C117.577 191.77 116.61 191.359 115.356 191.348H113.387ZM122.827 197.913C122.827 196.981 123.008 196.144 123.372 195.399C123.741 194.655 124.25 194.081 124.901 193.677C125.557 193.272 126.304 193.07 127.142 193.07C128.437 193.07 129.483 193.519 130.28 194.415C131.082 195.312 131.484 196.504 131.484 197.992V198.106C131.484 199.032 131.305 199.864 130.948 200.603C130.596 201.335 130.089 201.906 129.427 202.316C128.771 202.727 128.015 202.932 127.16 202.932C125.871 202.932 124.825 202.483 124.022 201.587C123.225 200.69 122.827 199.504 122.827 198.027V197.913ZM124.461 198.106C124.461 199.161 124.705 200.008 125.191 200.646C125.683 201.285 126.339 201.604 127.16 201.604C127.986 201.604 128.642 201.282 129.128 200.638C129.615 199.987 129.858 199.079 129.858 197.913C129.858 196.87 129.609 196.026 129.111 195.382C128.619 194.731 127.962 194.406 127.142 194.406C126.339 194.406 125.692 194.726 125.2 195.364C124.707 196.003 124.461 196.917 124.461 198.106ZM137.469 202.932C136.18 202.932 135.131 202.51 134.323 201.666C133.514 200.816 133.11 199.683 133.11 198.265V197.966C133.11 197.022 133.289 196.182 133.646 195.443C134.009 194.699 134.513 194.119 135.158 193.703C135.808 193.281 136.511 193.07 137.267 193.07C138.503 193.07 139.464 193.478 140.15 194.292C140.835 195.106 141.178 196.272 141.178 197.79V198.467H134.736C134.759 199.404 135.032 200.163 135.553 200.743C136.081 201.317 136.748 201.604 137.557 201.604C138.131 201.604 138.618 201.487 139.016 201.253C139.414 201.019 139.763 200.708 140.062 200.321L141.055 201.095C140.258 202.319 139.063 202.932 137.469 202.932ZM137.267 194.406C136.611 194.406 136.06 194.646 135.615 195.127C135.169 195.602 134.894 196.27 134.789 197.131H139.552V197.008C139.505 196.182 139.283 195.543 138.884 195.092C138.486 194.635 137.947 194.406 137.267 194.406Z" fill="white"/>
<path d="M211.145 202.756H209.51V191.919L206.232 193.123V191.646L210.89 189.897H211.145V202.756ZM224.293 202.756H215.909V201.587L220.338 196.665C220.995 195.921 221.446 195.317 221.692 194.854C221.944 194.386 222.07 193.902 222.07 193.404C222.07 192.736 221.868 192.188 221.463 191.761C221.059 191.333 220.52 191.119 219.846 191.119C219.038 191.119 218.408 191.351 217.956 191.813C217.511 192.271 217.289 192.909 217.289 193.729H215.663C215.663 192.552 216.04 191.6 216.796 190.873C217.558 190.146 218.575 189.783 219.846 189.783C221.036 189.783 221.976 190.097 222.667 190.724C223.359 191.345 223.705 192.174 223.705 193.211C223.705 194.471 222.902 195.971 221.296 197.711L217.869 201.429H224.293V202.756ZM226.508 203.854H225.111L230.455 189.959H231.843L226.508 203.854ZM241.819 202.756H233.434V201.587L237.864 196.665C238.52 195.921 238.971 195.317 239.217 194.854C239.469 194.386 239.595 193.902 239.595 193.404C239.595 192.736 239.393 192.188 238.989 191.761C238.584 191.333 238.045 191.119 237.372 191.119C236.563 191.119 235.933 191.351 235.482 191.813C235.037 192.271 234.814 192.909 234.814 193.729H233.188C233.188 192.552 233.566 191.6 234.322 190.873C235.083 190.146 236.1 189.783 237.372 189.783C238.561 189.783 239.501 190.097 240.193 190.724C240.884 191.345 241.23 192.174 241.23 193.211C241.23 194.471 240.427 195.971 238.822 197.711L235.394 201.429H241.819V202.756ZM244.289 196.34L244.939 189.959H251.496V191.462H246.319L245.932 194.951C246.559 194.582 247.271 194.397 248.068 194.397C249.234 194.397 250.16 194.784 250.845 195.558C251.531 196.325 251.873 197.365 251.873 198.678C251.873 199.996 251.516 201.036 250.801 201.798C250.092 202.554 249.099 202.932 247.822 202.932C246.691 202.932 245.768 202.618 245.053 201.991C244.338 201.364 243.931 200.497 243.831 199.39H245.37C245.469 200.122 245.73 200.676 246.152 201.051C246.574 201.42 247.13 201.604 247.822 201.604C248.578 201.604 249.169 201.347 249.597 200.831C250.031 200.315 250.247 199.604 250.247 198.695C250.247 197.84 250.013 197.154 249.544 196.639C249.081 196.117 248.463 195.856 247.69 195.856C246.981 195.856 246.424 196.012 246.02 196.322L245.589 196.674L244.289 196.34Z" fill="white"/>
<ellipse cx="328.747" cy="206.398" rx="20.4523" ry="21.0816" fill="#F15A24"/>
<ellipse cx="351.376" cy="206.398" rx="20.4523" ry="21.0816" fill="#FBB03B"/>
<g clip-path="url(#clip0)">
<path d="M388.656 31.8234C389.804 32.9716 389.804 34.9401 388.656 36.0884L386.278 38.4669C385.129 39.6152 383.161 39.6152 382.013 38.4669L371.596 27.9685C370.448 26.8202 370.448 24.8518 371.596 23.7035L373.975 21.3249C375.123 20.1767 377.091 20.1767 378.24 21.3249L388.656 31.8234Z" fill="white"/>
<path d="M397.76 13.6972C398.908 12.5489 400.877 12.5489 402.025 13.6972L404.404 16.0757C405.552 17.224 405.552 19.1925 404.404 20.3407L386.36 38.3029C385.211 39.4511 383.243 39.4511 382.095 38.3029L379.716 35.9243C378.568 34.7761 378.568 32.8076 379.716 31.6593L397.76 13.6972Z" fill="white"/>
<path d="M388 52.0002C402.36 52.0002 414 40.3595 414 26.0001C414 11.6406 402.36 0 388 0C373.641 0 362 11.6406 362 26.0001C362 40.3595 373.641 52.0002 388 52.0002Z" fill="#E24C4B"/>
<path d="M414 26.0001C414 40.3002 402.3 52.0002 388 52.0002C379.712 52.0002 372.4 48.2627 367.687 42.2502C372.075 45.8252 377.762 47.9378 383.937 47.9378C398.237 47.9378 409.937 36.2377 409.937 21.9377C409.937 15.7627 407.825 10.0752 404.25 5.68768C410.263 10.4 414 17.7125 414 26.0001Z" fill="#D1403F"/>
<path d="M399.863 37.8626C398.888 38.8375 397.263 38.8375 396.288 37.8626L388 29.5751L379.713 37.8626C378.738 38.8375 377.113 38.8375 376.138 37.8626C375.163 36.8876 375.163 35.2625 376.138 34.2876L384.425 26.0001L376.138 17.7126C375.163 16.7376 375.163 15.1126 376.138 14.1376C377.113 13.1626 378.738 13.1626 379.713 14.1376L388 22.4251L396.288 14.1376C397.263 13.1626 398.888 13.1626 399.863 14.1376C400.838 15.1126 400.838 16.7376 399.863 17.7126L391.575 26.0001L399.863 34.2876C400.838 35.2625 400.838 36.8875 399.863 37.8626Z" fill="white"/>
</g>
<defs>
<clipPath id="clip0">
<rect width="52" height="52" fill="white" transform="translate(362)"/>
</clipPath>
</defs>
</svg>
